M48
;GenerationSoftware,Autodesk,EAGLE,9.6.2*%
;CreationDate,2021-05-01T19:58:20Z*%
FMAT,2
ICI,OFF
METRIC,TZ,000.000
T5C0.300
T4C0.813
T3C0.914
T2C1.016
T1C2.794
%
G90
M71
T1
X6350Y2794
X95250Y2794
X95250Y2794
X6350Y2794
T2
X52070Y22860
X52070Y20320
X54610Y22860
X54610Y25400
X52070Y25400
X54610Y27940
X52070Y27940
X54610Y30480
X52070Y30480
X54610Y20320
T3
X39370Y10414
X41910Y10414
X44450Y10414
X46990Y10414
X49530Y10414
X52070Y10414
X54610Y10414
X57150Y10414
X59690Y10414
X62230Y10414
X64770Y10414
X67310Y10414
X69850Y10414
X72390Y10414
X74930Y10414
X80010Y10414
X82550Y10414
X85090Y10414
X87630Y10414
X90170Y10414
X11430Y5334
X13970Y5334
X77470Y10414
X16510Y5334
X19050Y5334
X21590Y5334
X24130Y5334
X26670Y5334
X29210Y5334
X31750Y5334
X34290Y5334
X39370Y5334
X41910Y5334
X44450Y5334
X46990Y5334
X49530Y5334
X34290Y7874
X52070Y5334
X54610Y5334
X57150Y5334
X59690Y5334
X62230Y5334
X64770Y5334
X67310Y5334
X36830Y5334
X72390Y5334
X74930Y5334
X77470Y5334
X80010Y5334
X82550Y5334
X85090Y5334
X87630Y5334
X90170Y5334
X90170Y7874
X11430Y10414
X13970Y10414
X16510Y10414
X19050Y10414
X69850Y5334
X21590Y10414
X24130Y10414
X26670Y10414
X29210Y10414
X31750Y10414
X34290Y10414
X20320Y21590
X22860Y21590
X20320Y19050
X22860Y19050
X20320Y16510
X22860Y16510
X11430Y7874
X13970Y7874
X16510Y7874
X19050Y7874
X21590Y7874
X24130Y7874
X26670Y7874
X29210Y7874
X31750Y7874
X36830Y10414
X36830Y7874
X39370Y7874
X41910Y7874
X44450Y7874
X46990Y7874
X49530Y7874
X52070Y7874
X54610Y7874
X57150Y7874
X59690Y7874
X62230Y7874
X64770Y7874
X67310Y7874
X69850Y7874
X72390Y7874
X74930Y7874
X77470Y7874
X80010Y7874
X82550Y7874
X85090Y7874
X87630Y7874
T4
X5080Y19050
X10160Y19050
X5080Y21590
X10160Y21590
X5080Y24130
X10160Y24130
X5080Y26670
X10160Y26670
X5080Y29210
X10160Y29210
X62230Y15240
X64770Y15240
X77470Y15240
X80010Y15240
X67310Y15240
X69850Y15240
X74930Y15240
X72390Y15240
X82550Y15240
X85090Y15240
X87630Y15240
X90170Y15240
X92710Y15240
X95250Y15240
X95250Y22860
X92710Y22860
X90170Y22860
X87630Y22860
X85090Y22860
X82550Y22860
X80010Y22860
X77470Y22860
X74930Y22860
X72390Y22860
X67310Y22860
X64770Y22860
X62230Y22860
X12700Y16510
X17780Y16510
X12700Y19050
X17780Y19050
X12700Y21590
X17780Y21590
X2540Y29210
X2540Y26670
X2540Y24130
X2540Y21590
X2540Y19050
X2540Y16510
X58420Y22860
X58420Y17780
X58420Y20320
X58420Y35560
X58420Y30480
X58420Y33020
X27940Y38100
X27940Y33020
X27940Y35560
X45720Y36830
X40640Y36830
X43180Y36830
X38100Y36830
X33020Y36830
X35560Y36830
X97790Y10160
X99822Y10160
X97790Y37846
X99822Y37846
X69850Y22860
X62230Y27940
X64770Y27940
X77470Y27940
X80010Y27940
X67310Y27940
X69850Y27940
X74930Y27940
X72390Y27940
X82550Y27940
X85090Y27940
X87630Y27940
X90170Y27940
X92710Y27940
X95250Y27940
X95250Y35560
X92710Y35560
X90170Y35560
X87630Y35560
X85090Y35560
X82550Y35560
X80010Y35560
X77470Y35560
X74930Y35560
X72390Y35560
X69850Y35560
X67310Y35560
X64770Y35560
X62230Y35560
X15240Y35560
X15240Y27940
X22860Y27940
X22860Y35560
X5080Y16510
X10160Y16510
T5
X35052Y29464
X35052Y28702
X35052Y23876
X35052Y24638
X25400Y19812
X34036Y28956
X34036Y26416
X34036Y23876
X37846Y34798
X37084Y31496
X35814Y31496
X35814Y30480
X33528Y32512
X32512Y32512
X41656Y32004
X41529Y34798
X42926Y32004
X44450Y32004
X50292Y29972
X49530Y33274
X55880Y33020
X47244Y23622
X47244Y25908
X46736Y20320
X44958Y22098
X44450Y20574
X42926Y20574
X40132Y20574
X40132Y22352
X37084Y22860
X35560Y22352
X33782Y18034
X34544Y19050
X59690Y17780
X57150Y17780
X49784Y17018
X56388Y21336
X55372Y17018
X55880Y30480
X55880Y27940
X57404Y27940
X60198Y27940
X62992Y32512
X68580Y31750
X71120Y31750
X73406Y31750
X64770Y20066
X64770Y18034
X67310Y20066
X67310Y18034
X69850Y20066
X90424Y19812
X90424Y18542
X62230Y20066
X89408Y17272
X87376Y18034
X87376Y20066
X92710Y21082
X92456Y18542
X59690Y15748
X55372Y15748
X56896Y35306
X49530Y35306
X78232Y29718
X75692Y29718
X73152Y29718
X70612Y29718
X76962Y11938
X74422Y11938
X23622Y29718
X26924Y27432
X43688Y22860
X45466Y25908
X46482Y18796
X46736Y15748
X38100Y20574
X31496Y11684
X28956Y11684
X21336Y11684
X23876Y11684
X24638Y14986
X26162Y14986
X26416Y11684
X49784Y15748
X44450Y30226
X47752Y32512
X25400Y17272
X42926Y30226
X25400Y22606
X16510Y23622
X15240Y23622
X12700Y23622
X81534Y33020
X76962Y32512
X64262Y32766
X61722Y32512
X67056Y31750
X65278Y31496
X74422Y31242
X80010Y30480
X71628Y29845
X68834Y29718
X47244Y30226
X46482Y25400
X43688Y26924
X43434Y28194
X35814Y19558
X36322Y18796
X36830Y19558
X37338Y20320
X38100Y19558
X39370Y20066
X40132Y18669
X41656Y19812
X42164Y19050
X42672Y19812
X44196Y19558
X44704Y18796
X44958Y19558
X45720Y19050
X40132Y32004
X40640Y30480
X41656Y29972
X42418Y28448
X39751Y19431
X43688Y18796
X14224Y25400
X11430Y24892
X62992Y31242
X24384Y27432
X41148Y29210
X45974Y28194
X69850Y18034
X46990Y28194
X78486Y33782
X75692Y33782
X40132Y34798
X39751Y37465
X79502Y11938
X72390Y18034
X74930Y18034
X77470Y18034
X73406Y33782
X71120Y33782
X68580Y33782
X95504Y31750
X92964Y31750
X90424Y31750
X87884Y31750
X85344Y31750
X82804Y31750
X78486Y31750
X80772Y31750
X75692Y31750
X60452Y23622
X81534Y11938
X69596Y11684
X71882Y11938
X10160Y13716
X30734Y37338
X42164Y38862
X21590Y38862
X22606Y37338
X24384Y35814
X24638Y33782
X22352Y33782
X20574Y33782
X18542Y33782
X18542Y28194
X20574Y28194
X22098Y29718
X58420Y36830
X60706Y36322
X80010Y18034
X82550Y18034
X85090Y18034
X85090Y20066
X82550Y20066
X80010Y20066
X77470Y20066
X74930Y20066
X72390Y20066
X60706Y34798
M30