M48
;GenerationSoftware,Autodesk,EAGLE,9.6.2*%
;CreationDate,2021-07-27T02:59:54Z*%
FMAT,2
ICI,OFF
METRIC,TZ,000.000
T6C0.300
T5C0.400
T4C0.813
T3C0.914
T2C1.000
T1C1.016
%
G90
M71
T1
X6350Y54610
X29210Y63627
X6350Y52070
X3810Y52070
X29210Y66167
X39370Y66167
X39370Y63627
X36830Y66167
X36830Y63627
X34290Y66167
X34290Y63627
X3810Y54610
X6350Y57150
X3810Y57150
X6350Y59690
X3810Y59690
X6350Y62230
X3810Y62230
X31750Y66167
X31750Y63627
T2
X11430Y8890
X24130Y6350
X21590Y6350
X19050Y6350
X16510Y6350
X13970Y6350
X11430Y6350
X8890Y6350
X85090Y3810
X87630Y3810
X82550Y3810
X80010Y3810
X77470Y3810
X74930Y3810
X72390Y3810
X69850Y3810
X67310Y3810
X64770Y3810
X62230Y3810
X59690Y3810
X57150Y3810
X54610Y3810
X52070Y3810
X49530Y3810
X46990Y3810
X44450Y3810
X41910Y3810
X39370Y3810
X36830Y3810
X34290Y3810
X31750Y3810
X29210Y3810
X26670Y3810
X24130Y3810
X21590Y3810
X19050Y3810
X16510Y3810
X13970Y3810
X11430Y3810
X8890Y3810
X87630Y8890
X85090Y8890
X82550Y8890
X80010Y8890
X77470Y8890
X74930Y8890
X72390Y8890
X69850Y8890
X67310Y8890
X64770Y8890
X62230Y8890
X59690Y8890
X57150Y8890
X54610Y8890
X52070Y8890
X49530Y8890
X46990Y8890
X44450Y8890
X41910Y8890
X39370Y8890
X36830Y8890
X34290Y8890
X31750Y8890
X29210Y8890
X26670Y8890
X24130Y8890
X21590Y8890
X19050Y8890
X16510Y8890
X13970Y8890
X8890Y8890
X87630Y6350
X85090Y6350
X82550Y6350
X80010Y6350
X77470Y6350
X74930Y6350
X72390Y6350
X69850Y6350
X67310Y6350
X64770Y6350
X62230Y6350
X59690Y6350
X57150Y6350
X54610Y6350
X52070Y6350
X49530Y6350
X46990Y6350
X44450Y6350
X41910Y6350
X39370Y6350
X36830Y6350
X34290Y6350
X31750Y6350
X29210Y6350
X26670Y6350
T3
X16510Y45720
X19050Y45720
X16510Y43180
X19050Y43180
X16510Y40640
X19050Y40640
T4
X48260Y34290
X45720Y34290
X43180Y34290
X40640Y34290
X7620Y34290
X7620Y11430
X40640Y11430
X43180Y11430
X45720Y11430
X48260Y11430
X50800Y11430
X40640Y1270
X55880Y11430
X58420Y11430
X60960Y11430
X63500Y11430
X66040Y11430
X68580Y11430
X71120Y11430
X73660Y11430
X76200Y11430
X78740Y11430
X81280Y11430
X83820Y11430
X86360Y11430
X38100Y34290
X35560Y34290
X33020Y34290
X30480Y34290
X27940Y34290
X25400Y34290
X22860Y34290
X20320Y34290
X17780Y34290
X15240Y34290
X12700Y34290
X10160Y34290
X38100Y11430
X35560Y11430
X33020Y11430
X30480Y11430
X27940Y11430
X22860Y11430
X20320Y11430
X17780Y11430
X15240Y11430
X12700Y11430
X10160Y11430
X12700Y62230
X12700Y54610
X10160Y62230
X10160Y54610
X29210Y45720
X21590Y45720
X29210Y43180
X21590Y43180
X29210Y40640
X21590Y40640
X61976Y45720
X59944Y45720
X32766Y55880
X30734Y55880
X86360Y24130
X83820Y24130
X81280Y24130
X78740Y24130
X76200Y24130
X73660Y24130
X71120Y24130
X68580Y24130
X66040Y24130
X63500Y24130
X60960Y24130
X58420Y24130
X55880Y24130
X53340Y24130
X50800Y24130
X48260Y24130
X45720Y24130
X43180Y24130
X40640Y24130
X7620Y24130
X7620Y1270
X43180Y1270
X45720Y1270
X48260Y1270
X50800Y1270
X53340Y1270
X55880Y1270
X58420Y1270
X60960Y1270
X63500Y1270
X66040Y1270
X68580Y1270
X71120Y1270
X73660Y1270
X76200Y1270
X78740Y1270
X81280Y1270
X83820Y1270
X86360Y1270
X38100Y24130
X35560Y24130
X33020Y24130
X30480Y24130
X27940Y24130
X25400Y24130
X22860Y24130
X53340Y11430
X20320Y24130
X17780Y24130
X15240Y24130
X12700Y24130
X10160Y24130
X38100Y1270
X35560Y1270
X33020Y1270
X30480Y1270
X27940Y1270
X25400Y1270
X22860Y1270
X20320Y1270
X17780Y1270
X15240Y1270
X12700Y1270
X10160Y1270
X86360Y34290
X83820Y34290
X81280Y34290
X78740Y34290
X76200Y34290
X73660Y34290
X71120Y34290
X68580Y34290
X66040Y34290
X63500Y34290
X60960Y34290
X58420Y34290
X55880Y34290
X53340Y34290
X50800Y34290
X25400Y11430
T5
X19812Y54610
X19812Y57150
T6
X56388Y38862
X56388Y38100
X56388Y39624
X58420Y39624
X58420Y38862
X58420Y38100
X60706Y40386
X60706Y39624
X60706Y38100
X47752Y48768
X47752Y47752
X47752Y46736
X45720Y47498
X34290Y47498
X33274Y46482
X32004Y47752
X31242Y46990
X32512Y45720
X16764Y48260
X14732Y12573
X15748Y15748
X15748Y18288
X17272Y19431
X17780Y17780
X17780Y15240
X17526Y12573
X19812Y12573
X20320Y15240
X20320Y17272
X22352Y17272
X22352Y14732
X25019Y17018
X25400Y15240
X25527Y12954
X27940Y15240
X27940Y12954
X30480Y15240
X33528Y13716
X35179Y13589
X30734Y12700
X13208Y15748
X14478Y14478
X11938Y14478
X13208Y18288
X10668Y15748
X10668Y18288
X35560Y9906
X35560Y8382
X33782Y10160
X40640Y17653
X82550Y10414
X39878Y10414
X36703Y51689
X45339Y49911
X56388Y40386
X58420Y40386
X55118Y40386
X55118Y39624
X55118Y38862
X55118Y38100
X50800Y38862
X60706Y38862
X51435Y35179
X45720Y36957
X41783Y36957
X29210Y36449
X33274Y36449
X35560Y36449
X27178Y36449
X24384Y36449
X23368Y36449
X21590Y36449
X24638Y31496
X26162Y32766
X23241Y31496
X23241Y27940
X23241Y26416
X27178Y31750
X38100Y36449
X51308Y25400
X55626Y25400
X57150Y25908
X60198Y26416
X62738Y26416
X57912Y14986
X55499Y13462
X65278Y28067
X61468Y25400
X61468Y26416
X60198Y25400
X55499Y14986
X39878Y55626
X47117Y51816
X44958Y54102
X73406Y42545
X74168Y42545
X74930Y42545
X75692Y42545
X73914Y46736
X74676Y46736
X75438Y46736
X76200Y46736
X53594Y57023
X54610Y57023
X55626Y57023
X59182Y51054
X59182Y52578
X62738Y57023
X61722Y57023
X60706Y57023
X65405Y62103
X72771Y57277
X43434Y63627
X41910Y62103
X25400Y55880
X56642Y42164
X68326Y45339
X83566Y22860
X78486Y22860
X75692Y22860
X73914Y22860
X80518Y22860
X80518Y26416
X83058Y26416
X66675Y13970
X67945Y12827
X75565Y30607
X76962Y29972
X77978Y30988
X79502Y29972
X80010Y31496
X82550Y31496
X33147Y15240
X40132Y19050
X40386Y37973
X57658Y27559
X23876Y27178
X41402Y19050
X33909Y15748
X40386Y38735
X46736Y35560
X46736Y36322
X43180Y22860
X32385Y22733
X30226Y22860
X11430Y52324
X38608Y17780
X44450Y25527
X29591Y25527
X37719Y17526
X36449Y16764
X36322Y16002
X35179Y16002
X33401Y12319
X30480Y7620
X32258Y7620
X40132Y36830
X38354Y47752
X49276Y26035
X28575Y25908
X49276Y13716
X54102Y26543
X26162Y26543
X44450Y21844
X56896Y21971
X77216Y28194
X31750Y32512
X52578Y31115
X42672Y37338
X72771Y22987
X43053Y38608
X67310Y20447
X71120Y20320
X43688Y37973
X44323Y39116
X65024Y25146
X59690Y20701
X43815Y21082
X55118Y26543
X76200Y27432
X60198Y27559
X52324Y23241
X59690Y23114
X48260Y21209
X81280Y20320
X58928Y21209
X46990Y22606
X57912Y22479
X85598Y33274
X42545Y33401
X57023Y33274
X84963Y32512
X39370Y33020
X55245Y32766
X82296Y28194
X36830Y32766
X54864Y32131
X34290Y32258
X79756Y28194
X54864Y31369
X29210Y31242
X74676Y28448
X51943Y30607
X72136Y28448
X26670Y30734
X51308Y30099
X24638Y30480
X67818Y28956
X49784Y29591
X67056Y28448
X21590Y30226
X49149Y29083
X64262Y28067
X19050Y29464
X48514Y28575
X16510Y28702
X62103Y28067
X47244Y28067
X43561Y53086
X46101Y48514
X37084Y48768
X42799Y55245
X46482Y45466
X40640Y45466
X52070Y57023
X47371Y60960
X66040Y45720
X66294Y52578
X77978Y45974
X65151Y46609
X65278Y54356
X65532Y43561
X77089Y43434
X64008Y47244
X63754Y56642
X64770Y43180
X76581Y42799
X68580Y52070
X76708Y52578
X68961Y52705
X77724Y52832
X69596Y53213
X78486Y53086
X70104Y53848
X78740Y53848
X69596Y54483
X78994Y54610
X70485Y58801
X82169Y59436
X70993Y59436
X82804Y59944
X70612Y60198
X75692Y60071
X71247Y60706
X83566Y60452
X67183Y59055
X64262Y61468
X79502Y55245
X70358Y55118
X69850Y58420
X68326Y62230
X81280Y58293
X68326Y58166
X66040Y63881
X72009Y63754
X69215Y59055
X67056Y62484
X69596Y56388
X81153Y55753
X71882Y61214
X84328Y61214
X78486Y37719
X77978Y42672
X79121Y38227
X78740Y42799
X79756Y38735
X79375Y43180
X80137Y42799
X80391Y39243
X81026Y39751
X80772Y43180
X81661Y40259
X81407Y42799
X82296Y40767
X82169Y42799
X82931Y41275
X82931Y42926
X68326Y64770
X85598Y61722
X25908Y56642
X25908Y54864
X73660Y57023
X74295Y57023
X84455Y57023
X85090Y57023
X23368Y50292
X34290Y50673
X58166Y50800
X35052Y50673
X58166Y50038
X38608Y54610
X53340Y38481
X53340Y39116
X53340Y39751
X53340Y40386
X32766Y48514
X39243Y47752
X40513Y46482
X39878Y47117
X33274Y40386
X33274Y39370
X33274Y38354
X29210Y38354
X29210Y39370
X26416Y38608
X25400Y38608
X24384Y38608
X23368Y38608
X35560Y38354
X35560Y39370
X35560Y40386
X38100Y38354
X38100Y39370
X39370Y49403
X41148Y47625
X42164Y46482
X42164Y44704
X43180Y44704
X43180Y43180
X45720Y44450
X45720Y43180
X46990Y44450
X51308Y44196
X52324Y43180
X50800Y47752
X51816Y48768
X52832Y49784
X56134Y47244
X57150Y47244
X59182Y44450
X60706Y42418
X61722Y42418
X62738Y42418
X63754Y42418
X63881Y46101
X63881Y45466
X55372Y49276
X59182Y49530
X52070Y52578
X51054Y53594
X50038Y54610
X49022Y55626
X47498Y57150
X46482Y58166
X45466Y59182
X44450Y58166
X45466Y57150
X47752Y54356
X48768Y53340
X49784Y52324
X40386Y55118
X43688Y51816
X42672Y51816
X37592Y57404
X36830Y58166
X36830Y56642
X36068Y57404
X36068Y55880
X35306Y56642
X35306Y55118
X34544Y55880
X28702Y56642
X28702Y55372
X28702Y54102
X28702Y58166
X19812Y55880
X22352Y51308
X23114Y49022
X26670Y49022
X28702Y52832
X23114Y62738
X23876Y61976
X24638Y61214
X15494Y63500
X17526Y63500
X16510Y63500
X25146Y64262
X25908Y63500
X26670Y62738
X16510Y66040
X17526Y66040
X15494Y66040
X10160Y52324
X12700Y52324
X17780Y39878
X22606Y44450
X22606Y41910
X26416Y41910
X26416Y44450
X21590Y31496
X19050Y31496
X16510Y31496
X13970Y31496
X11430Y31496
X8890Y31496
X5842Y31496
X21590Y38608
X19050Y30226
X16510Y30226
X13970Y30226
X11430Y30226
X8890Y30226
X5842Y30226
X13970Y28956
X11430Y28956
X8890Y28956
X5842Y28956
X13970Y27686
X11430Y27686
X8890Y27686
X5842Y27686
X13970Y26416
X11430Y26416
X8890Y26416
X5842Y26416
X45720Y40132
X46228Y39624
X48768Y39878
X44450Y27686
X46482Y27686
X46736Y25400
X47498Y25400
X48260Y25400
X57150Y13462
X57912Y12700
X58928Y13970
X61722Y10160
X62738Y12954
X60960Y14478
X58674Y16510
X57150Y16002
X60452Y12700
X60960Y17018
X62738Y15240
X64262Y13716
X64262Y16256
X62738Y17780
X60960Y20701
X62738Y20701
X64262Y20701
X64389Y18415
X66675Y16510
X67945Y15113
X67945Y19304
X38862Y18542
X69215Y19304
X69215Y13843
X70485Y12954
X71120Y19304
X71120Y18288
X71120Y17272
X75692Y19304
X75692Y18288
X75692Y17272
X75692Y16256
X75692Y15240
X73914Y19304
X73914Y18288
X73914Y17272
X73914Y16256
X73914Y15240
X78486Y19304
X78486Y17272
X78486Y15240
X81026Y19304
X81026Y17272
X81026Y15240
X83566Y19304
X83566Y17272
X83566Y15240
X77978Y28702
X80518Y28702
X83058Y28702
X69342Y28702
X70358Y28702
X72136Y29464
X72898Y28702
X74422Y29718
X75438Y28702
X75438Y26416
X77978Y26416
X72898Y26416
X69850Y26416
X65024Y26416
X62738Y25400
X69596Y40640
X68834Y41402
X70358Y39878
X66802Y39878
X67564Y39116
X68326Y38354
X72390Y36830
X73914Y36830
X75438Y36830
X76962Y36830
X79756Y45720
X80772Y45720
X81788Y45720
X84074Y45720
X84074Y46482
X86106Y46990
X86106Y45974
X85344Y44196
X84328Y43180
X74168Y49784
X73660Y49276
X73152Y48768
X82550Y55118
X81534Y54356
X81534Y52578
X83566Y55118
X80518Y54356
X80518Y52578
X85344Y59182
X86106Y48006
X86106Y49022
X79883Y60071
X77851Y60071
X85344Y60198
X85344Y58166
X86614Y61722
X69088Y62484
X70104Y62484
X75311Y61849
X76454Y61849
X83312Y61849
X82296Y61849
X46990Y66294
X46990Y64389
X49022Y64389
X67310Y64389
X64770Y64389
X62738Y64389
X67310Y66294
X62738Y66294
X49022Y66294
X64770Y66294
X35306Y59944
X33782Y59944
X35306Y58166
X28702Y59944
X44831Y49403
X47752Y49784
X49276Y49784
X50800Y49784
X50800Y39624
X50800Y38100
M30