G04 EAGLE Gerber RS-274X export*
G75*
%MOMM*%
%FSLAX34Y34*%
%LPD*%
%IN*%
%IPPOS*%
%AMOC8*
5,1,8,0,0,1.08239X$1,22.5*%
G01*
%ADD10C,0.254000*%


D10*
X0Y0D02*
X1016000Y0D01*
X1016000Y406400D01*
X0Y406400D01*
X0Y0D01*
X952001Y13970D02*
X951006Y14041D01*
X950018Y14183D01*
X949043Y14395D01*
X948085Y14676D01*
X947151Y15025D01*
X946243Y15440D01*
X945367Y15918D01*
X944528Y16457D01*
X943729Y17055D01*
X942975Y17709D01*
X942269Y18415D01*
X941615Y19169D01*
X941017Y19968D01*
X940478Y20807D01*
X940000Y21683D01*
X939585Y22591D01*
X939236Y23525D01*
X938955Y24483D01*
X938743Y25458D01*
X938601Y26446D01*
X938530Y27441D01*
X938530Y28439D01*
X938601Y29434D01*
X938743Y30422D01*
X938955Y31397D01*
X939236Y32355D01*
X939585Y33290D01*
X940000Y34197D01*
X940478Y35073D01*
X941017Y35913D01*
X941615Y36711D01*
X942269Y37465D01*
X942975Y38171D01*
X943729Y38825D01*
X944528Y39423D01*
X945367Y39962D01*
X946243Y40440D01*
X947151Y40855D01*
X948085Y41204D01*
X949043Y41485D01*
X950018Y41697D01*
X951006Y41839D01*
X952001Y41910D01*
X952999Y41910D01*
X953994Y41839D01*
X954982Y41697D01*
X955957Y41485D01*
X956915Y41204D01*
X957850Y40855D01*
X958757Y40440D01*
X959633Y39962D01*
X960473Y39423D01*
X961271Y38825D01*
X962025Y38171D01*
X962731Y37465D01*
X963385Y36711D01*
X963983Y35913D01*
X964522Y35073D01*
X965000Y34197D01*
X965415Y33290D01*
X965764Y32355D01*
X966045Y31397D01*
X966257Y30422D01*
X966399Y29434D01*
X966470Y28439D01*
X966470Y27441D01*
X966399Y26446D01*
X966257Y25458D01*
X966045Y24483D01*
X965764Y23525D01*
X965415Y22591D01*
X965000Y21683D01*
X964522Y20807D01*
X963983Y19968D01*
X963385Y19169D01*
X962731Y18415D01*
X962025Y17709D01*
X961271Y17055D01*
X960473Y16457D01*
X959633Y15918D01*
X958757Y15440D01*
X957850Y15025D01*
X956915Y14676D01*
X955957Y14395D01*
X954982Y14183D01*
X953994Y14041D01*
X952999Y13970D01*
X952001Y13970D01*
X63001Y13970D02*
X62006Y14041D01*
X61018Y14183D01*
X60043Y14395D01*
X59085Y14676D01*
X58151Y15025D01*
X57243Y15440D01*
X56367Y15918D01*
X55528Y16457D01*
X54729Y17055D01*
X53975Y17709D01*
X53269Y18415D01*
X52615Y19169D01*
X52017Y19968D01*
X51478Y20807D01*
X51000Y21683D01*
X50585Y22591D01*
X50236Y23525D01*
X49955Y24483D01*
X49743Y25458D01*
X49601Y26446D01*
X49530Y27441D01*
X49530Y28439D01*
X49601Y29434D01*
X49743Y30422D01*
X49955Y31397D01*
X50236Y32355D01*
X50585Y33290D01*
X51000Y34197D01*
X51478Y35073D01*
X52017Y35913D01*
X52615Y36711D01*
X53269Y37465D01*
X53975Y38171D01*
X54729Y38825D01*
X55528Y39423D01*
X56367Y39962D01*
X57243Y40440D01*
X58151Y40855D01*
X59085Y41204D01*
X60043Y41485D01*
X61018Y41697D01*
X62006Y41839D01*
X63001Y41910D01*
X63999Y41910D01*
X64994Y41839D01*
X65982Y41697D01*
X66957Y41485D01*
X67915Y41204D01*
X68850Y40855D01*
X69757Y40440D01*
X70633Y39962D01*
X71473Y39423D01*
X72271Y38825D01*
X73025Y38171D01*
X73731Y37465D01*
X74385Y36711D01*
X74983Y35913D01*
X75522Y35073D01*
X76000Y34197D01*
X76415Y33290D01*
X76764Y32355D01*
X77045Y31397D01*
X77257Y30422D01*
X77399Y29434D01*
X77470Y28439D01*
X77470Y27441D01*
X77399Y26446D01*
X77257Y25458D01*
X77045Y24483D01*
X76764Y23525D01*
X76415Y22591D01*
X76000Y21683D01*
X75522Y20807D01*
X74983Y19968D01*
X74385Y19169D01*
X73731Y18415D01*
X73025Y17709D01*
X72271Y17055D01*
X71473Y16457D01*
X70633Y15918D01*
X69757Y15440D01*
X68850Y15025D01*
X67915Y14676D01*
X66957Y14395D01*
X65982Y14183D01*
X64994Y14041D01*
X63999Y13970D01*
X63001Y13970D01*
M02*
