G04 EAGLE Gerber RS-274X export*
G75*
%MOMM*%
%FSLAX34Y34*%
%LPD*%
%INSilkscreen Bottom*%
%IPPOS*%
%AMOC8*
5,1,8,0,0,1.08239X$1,22.5*%
G01*
%ADD10C,0.177800*%
%ADD11C,0.254000*%
%ADD12C,0.203200*%


D10*
X910971Y5969D02*
X910971Y16891D01*
X906117Y16891D01*
X906117Y12037D02*
X910971Y12037D01*
X901632Y10823D02*
X901632Y8396D01*
X901632Y10823D02*
X901630Y10921D01*
X901624Y11018D01*
X901614Y11116D01*
X901601Y11212D01*
X901583Y11308D01*
X901561Y11404D01*
X901536Y11498D01*
X901507Y11592D01*
X901474Y11684D01*
X901438Y11774D01*
X901398Y11863D01*
X901354Y11951D01*
X901307Y12037D01*
X901256Y12120D01*
X901202Y12202D01*
X901145Y12281D01*
X901085Y12358D01*
X901022Y12432D01*
X900955Y12504D01*
X900886Y12573D01*
X900814Y12640D01*
X900740Y12703D01*
X900663Y12763D01*
X900584Y12820D01*
X900502Y12874D01*
X900419Y12925D01*
X900333Y12972D01*
X900245Y13016D01*
X900156Y13056D01*
X900066Y13092D01*
X899974Y13125D01*
X899880Y13154D01*
X899786Y13179D01*
X899690Y13201D01*
X899594Y13219D01*
X899498Y13232D01*
X899400Y13242D01*
X899303Y13248D01*
X899205Y13250D01*
X899107Y13248D01*
X899010Y13242D01*
X898912Y13232D01*
X898816Y13219D01*
X898720Y13201D01*
X898624Y13179D01*
X898530Y13154D01*
X898436Y13125D01*
X898344Y13092D01*
X898254Y13056D01*
X898165Y13016D01*
X898077Y12972D01*
X897992Y12925D01*
X897908Y12874D01*
X897826Y12820D01*
X897747Y12763D01*
X897670Y12703D01*
X897596Y12640D01*
X897524Y12573D01*
X897455Y12504D01*
X897388Y12432D01*
X897325Y12358D01*
X897265Y12281D01*
X897208Y12202D01*
X897154Y12120D01*
X897103Y12037D01*
X897056Y11951D01*
X897012Y11863D01*
X896972Y11774D01*
X896936Y11684D01*
X896903Y11592D01*
X896874Y11498D01*
X896849Y11404D01*
X896827Y11308D01*
X896809Y11212D01*
X896796Y11116D01*
X896786Y11018D01*
X896780Y10921D01*
X896778Y10823D01*
X896778Y8396D01*
X896780Y8298D01*
X896786Y8201D01*
X896796Y8103D01*
X896809Y8007D01*
X896827Y7911D01*
X896849Y7815D01*
X896874Y7721D01*
X896903Y7627D01*
X896936Y7535D01*
X896972Y7445D01*
X897012Y7356D01*
X897056Y7268D01*
X897103Y7183D01*
X897154Y7099D01*
X897208Y7017D01*
X897265Y6938D01*
X897325Y6861D01*
X897388Y6787D01*
X897455Y6715D01*
X897524Y6646D01*
X897596Y6579D01*
X897670Y6516D01*
X897747Y6456D01*
X897826Y6399D01*
X897908Y6345D01*
X897992Y6294D01*
X898077Y6247D01*
X898165Y6203D01*
X898254Y6163D01*
X898344Y6127D01*
X898436Y6094D01*
X898530Y6065D01*
X898624Y6040D01*
X898720Y6018D01*
X898816Y6000D01*
X898912Y5987D01*
X899010Y5977D01*
X899107Y5971D01*
X899205Y5969D01*
X899303Y5971D01*
X899400Y5977D01*
X899498Y5987D01*
X899594Y6000D01*
X899690Y6018D01*
X899786Y6040D01*
X899880Y6065D01*
X899974Y6094D01*
X900066Y6127D01*
X900156Y6163D01*
X900245Y6203D01*
X900333Y6247D01*
X900419Y6294D01*
X900502Y6345D01*
X900584Y6399D01*
X900663Y6456D01*
X900740Y6516D01*
X900814Y6579D01*
X900886Y6646D01*
X900955Y6715D01*
X901022Y6787D01*
X901085Y6861D01*
X901145Y6938D01*
X901202Y7017D01*
X901256Y7099D01*
X901307Y7182D01*
X901354Y7268D01*
X901398Y7356D01*
X901438Y7445D01*
X901474Y7535D01*
X901507Y7627D01*
X901536Y7721D01*
X901561Y7815D01*
X901583Y7911D01*
X901601Y8007D01*
X901614Y8103D01*
X901624Y8201D01*
X901630Y8298D01*
X901632Y8396D01*
X891254Y5969D02*
X891254Y13250D01*
X887613Y13250D01*
X887613Y12037D01*
X877167Y16891D02*
X877167Y5969D01*
X874134Y5969D01*
X874050Y5971D01*
X873966Y5977D01*
X873883Y5986D01*
X873800Y6000D01*
X873717Y6017D01*
X873636Y6038D01*
X873556Y6063D01*
X873477Y6092D01*
X873399Y6124D01*
X873323Y6160D01*
X873248Y6199D01*
X873176Y6242D01*
X873105Y6287D01*
X873037Y6337D01*
X872971Y6389D01*
X872908Y6444D01*
X872847Y6502D01*
X872789Y6563D01*
X872734Y6626D01*
X872682Y6692D01*
X872633Y6760D01*
X872587Y6831D01*
X872544Y6903D01*
X872505Y6978D01*
X872469Y7054D01*
X872437Y7131D01*
X872408Y7211D01*
X872383Y7291D01*
X872362Y7372D01*
X872345Y7455D01*
X872331Y7537D01*
X872322Y7621D01*
X872316Y7705D01*
X872314Y7789D01*
X872313Y7789D02*
X872313Y11430D01*
X872314Y11430D02*
X872316Y11514D01*
X872322Y11598D01*
X872331Y11681D01*
X872345Y11764D01*
X872362Y11847D01*
X872383Y11928D01*
X872408Y12008D01*
X872437Y12087D01*
X872469Y12165D01*
X872505Y12241D01*
X872544Y12316D01*
X872587Y12388D01*
X872633Y12459D01*
X872682Y12527D01*
X872734Y12593D01*
X872789Y12656D01*
X872847Y12717D01*
X872908Y12775D01*
X872971Y12830D01*
X873037Y12882D01*
X873105Y12932D01*
X873176Y12977D01*
X873248Y13020D01*
X873323Y13059D01*
X873399Y13095D01*
X873477Y13127D01*
X873556Y13156D01*
X873636Y13181D01*
X873717Y13202D01*
X873800Y13219D01*
X873883Y13233D01*
X873966Y13242D01*
X874050Y13248D01*
X874134Y13250D01*
X877167Y13250D01*
X865522Y5969D02*
X862488Y5969D01*
X865522Y5969D02*
X865606Y5971D01*
X865690Y5977D01*
X865773Y5986D01*
X865856Y6000D01*
X865939Y6017D01*
X866020Y6038D01*
X866100Y6063D01*
X866179Y6092D01*
X866257Y6124D01*
X866333Y6160D01*
X866408Y6199D01*
X866480Y6242D01*
X866551Y6288D01*
X866619Y6337D01*
X866685Y6389D01*
X866748Y6444D01*
X866809Y6502D01*
X866867Y6563D01*
X866922Y6626D01*
X866974Y6692D01*
X867023Y6760D01*
X867069Y6831D01*
X867112Y6903D01*
X867151Y6978D01*
X867187Y7054D01*
X867219Y7132D01*
X867248Y7211D01*
X867273Y7291D01*
X867294Y7372D01*
X867311Y7455D01*
X867325Y7538D01*
X867334Y7621D01*
X867340Y7705D01*
X867342Y7789D01*
X867342Y10823D01*
X867340Y10921D01*
X867334Y11018D01*
X867324Y11116D01*
X867311Y11212D01*
X867293Y11308D01*
X867271Y11404D01*
X867246Y11498D01*
X867217Y11592D01*
X867184Y11684D01*
X867148Y11774D01*
X867108Y11863D01*
X867064Y11951D01*
X867017Y12037D01*
X866966Y12120D01*
X866912Y12202D01*
X866855Y12281D01*
X866795Y12358D01*
X866732Y12432D01*
X866665Y12504D01*
X866596Y12573D01*
X866524Y12640D01*
X866450Y12703D01*
X866373Y12763D01*
X866294Y12820D01*
X866212Y12874D01*
X866129Y12925D01*
X866043Y12972D01*
X865955Y13016D01*
X865866Y13056D01*
X865776Y13092D01*
X865684Y13125D01*
X865590Y13154D01*
X865496Y13179D01*
X865400Y13201D01*
X865304Y13219D01*
X865208Y13232D01*
X865110Y13242D01*
X865013Y13248D01*
X864915Y13250D01*
X864817Y13248D01*
X864720Y13242D01*
X864622Y13232D01*
X864526Y13219D01*
X864430Y13201D01*
X864334Y13179D01*
X864240Y13154D01*
X864146Y13125D01*
X864054Y13092D01*
X863964Y13056D01*
X863875Y13016D01*
X863787Y12972D01*
X863702Y12925D01*
X863618Y12874D01*
X863536Y12820D01*
X863457Y12763D01*
X863380Y12703D01*
X863306Y12640D01*
X863234Y12573D01*
X863165Y12504D01*
X863098Y12432D01*
X863035Y12358D01*
X862975Y12281D01*
X862918Y12202D01*
X862864Y12120D01*
X862813Y12037D01*
X862766Y11951D01*
X862722Y11863D01*
X862682Y11774D01*
X862646Y11684D01*
X862613Y11592D01*
X862584Y11498D01*
X862559Y11404D01*
X862537Y11308D01*
X862519Y11212D01*
X862506Y11116D01*
X862496Y11018D01*
X862490Y10921D01*
X862488Y10823D01*
X862488Y9610D01*
X867342Y9610D01*
X856526Y10216D02*
X853492Y9003D01*
X856526Y10217D02*
X856598Y10247D01*
X856668Y10281D01*
X856736Y10319D01*
X856802Y10360D01*
X856867Y10404D01*
X856928Y10452D01*
X856988Y10502D01*
X857045Y10555D01*
X857099Y10611D01*
X857150Y10670D01*
X857199Y10731D01*
X857244Y10795D01*
X857286Y10860D01*
X857325Y10928D01*
X857361Y10997D01*
X857392Y11068D01*
X857421Y11141D01*
X857446Y11215D01*
X857467Y11290D01*
X857484Y11366D01*
X857497Y11443D01*
X857507Y11520D01*
X857513Y11598D01*
X857515Y11676D01*
X857513Y11754D01*
X857507Y11831D01*
X857498Y11909D01*
X857484Y11985D01*
X857467Y12062D01*
X857446Y12137D01*
X857422Y12211D01*
X857393Y12283D01*
X857362Y12354D01*
X857326Y12424D01*
X857288Y12492D01*
X857246Y12557D01*
X857200Y12621D01*
X857152Y12682D01*
X857101Y12741D01*
X857047Y12797D01*
X856990Y12850D01*
X856931Y12901D01*
X856869Y12948D01*
X856805Y12992D01*
X856738Y13033D01*
X856670Y13071D01*
X856600Y13106D01*
X856529Y13137D01*
X856456Y13164D01*
X856381Y13187D01*
X856306Y13207D01*
X856230Y13223D01*
X856153Y13236D01*
X856075Y13244D01*
X855997Y13249D01*
X855920Y13250D01*
X855920Y13251D02*
X855754Y13247D01*
X855588Y13239D01*
X855423Y13226D01*
X855258Y13210D01*
X855094Y13190D01*
X854930Y13166D01*
X854767Y13137D01*
X854604Y13105D01*
X854442Y13069D01*
X854282Y13030D01*
X854122Y12986D01*
X853963Y12938D01*
X853805Y12887D01*
X853649Y12832D01*
X853494Y12773D01*
X853341Y12711D01*
X853189Y12644D01*
X853493Y9002D02*
X853421Y8972D01*
X853351Y8938D01*
X853283Y8900D01*
X853217Y8859D01*
X853152Y8815D01*
X853091Y8767D01*
X853031Y8717D01*
X852974Y8664D01*
X852920Y8608D01*
X852869Y8549D01*
X852820Y8488D01*
X852775Y8424D01*
X852733Y8359D01*
X852694Y8291D01*
X852658Y8222D01*
X852627Y8151D01*
X852598Y8078D01*
X852573Y8004D01*
X852552Y7929D01*
X852535Y7853D01*
X852522Y7776D01*
X852512Y7699D01*
X852506Y7621D01*
X852504Y7543D01*
X852506Y7465D01*
X852512Y7388D01*
X852521Y7310D01*
X852535Y7234D01*
X852552Y7157D01*
X852573Y7082D01*
X852597Y7008D01*
X852626Y6936D01*
X852657Y6865D01*
X852693Y6795D01*
X852731Y6727D01*
X852773Y6662D01*
X852819Y6598D01*
X852867Y6537D01*
X852918Y6478D01*
X852972Y6422D01*
X853029Y6369D01*
X853088Y6318D01*
X853150Y6271D01*
X853214Y6227D01*
X853281Y6186D01*
X853349Y6148D01*
X853419Y6113D01*
X853490Y6082D01*
X853563Y6055D01*
X853638Y6032D01*
X853713Y6012D01*
X853789Y5996D01*
X853866Y5983D01*
X853944Y5975D01*
X854022Y5970D01*
X854099Y5969D01*
X854342Y5975D01*
X854585Y5988D01*
X854828Y6005D01*
X855070Y6029D01*
X855312Y6058D01*
X855553Y6093D01*
X855793Y6134D01*
X856032Y6180D01*
X856270Y6232D01*
X856506Y6290D01*
X856741Y6353D01*
X856975Y6422D01*
X857206Y6496D01*
X857436Y6576D01*
X848575Y13250D02*
X844934Y13250D01*
X847361Y16891D02*
X847361Y7789D01*
X847359Y7705D01*
X847353Y7621D01*
X847344Y7538D01*
X847330Y7455D01*
X847313Y7372D01*
X847292Y7291D01*
X847267Y7211D01*
X847238Y7132D01*
X847206Y7054D01*
X847170Y6978D01*
X847131Y6903D01*
X847088Y6831D01*
X847042Y6760D01*
X846993Y6692D01*
X846941Y6626D01*
X846886Y6563D01*
X846828Y6502D01*
X846767Y6444D01*
X846704Y6389D01*
X846638Y6337D01*
X846570Y6288D01*
X846499Y6242D01*
X846427Y6199D01*
X846352Y6160D01*
X846276Y6124D01*
X846198Y6092D01*
X846119Y6063D01*
X846039Y6038D01*
X845958Y6017D01*
X845875Y6000D01*
X845792Y5986D01*
X845709Y5977D01*
X845625Y5971D01*
X845541Y5969D01*
X844934Y5969D01*
X833723Y5969D02*
X833723Y13250D01*
X830083Y13250D01*
X830083Y12037D01*
X824374Y5969D02*
X821340Y5969D01*
X824374Y5969D02*
X824458Y5971D01*
X824542Y5977D01*
X824625Y5986D01*
X824708Y6000D01*
X824791Y6017D01*
X824872Y6038D01*
X824952Y6063D01*
X825031Y6092D01*
X825109Y6124D01*
X825185Y6160D01*
X825260Y6199D01*
X825332Y6242D01*
X825403Y6288D01*
X825471Y6337D01*
X825537Y6389D01*
X825600Y6444D01*
X825661Y6502D01*
X825719Y6563D01*
X825774Y6626D01*
X825826Y6692D01*
X825875Y6760D01*
X825921Y6831D01*
X825964Y6903D01*
X826003Y6978D01*
X826039Y7054D01*
X826071Y7132D01*
X826100Y7211D01*
X826125Y7291D01*
X826146Y7372D01*
X826163Y7455D01*
X826177Y7538D01*
X826186Y7621D01*
X826192Y7705D01*
X826194Y7789D01*
X826195Y7789D02*
X826195Y10823D01*
X826194Y10823D02*
X826192Y10921D01*
X826186Y11018D01*
X826176Y11116D01*
X826163Y11212D01*
X826145Y11308D01*
X826123Y11404D01*
X826098Y11498D01*
X826069Y11592D01*
X826036Y11684D01*
X826000Y11774D01*
X825960Y11863D01*
X825916Y11951D01*
X825869Y12037D01*
X825818Y12120D01*
X825764Y12202D01*
X825707Y12281D01*
X825647Y12358D01*
X825584Y12432D01*
X825517Y12504D01*
X825448Y12573D01*
X825376Y12640D01*
X825302Y12703D01*
X825225Y12763D01*
X825146Y12820D01*
X825064Y12874D01*
X824981Y12925D01*
X824895Y12972D01*
X824807Y13016D01*
X824718Y13056D01*
X824628Y13092D01*
X824536Y13125D01*
X824442Y13154D01*
X824348Y13179D01*
X824252Y13201D01*
X824156Y13219D01*
X824060Y13232D01*
X823962Y13242D01*
X823865Y13248D01*
X823767Y13250D01*
X823669Y13248D01*
X823572Y13242D01*
X823474Y13232D01*
X823378Y13219D01*
X823282Y13201D01*
X823186Y13179D01*
X823092Y13154D01*
X822998Y13125D01*
X822906Y13092D01*
X822816Y13056D01*
X822727Y13016D01*
X822639Y12972D01*
X822554Y12925D01*
X822470Y12874D01*
X822388Y12820D01*
X822309Y12763D01*
X822232Y12703D01*
X822158Y12640D01*
X822086Y12573D01*
X822017Y12504D01*
X821950Y12432D01*
X821887Y12358D01*
X821827Y12281D01*
X821770Y12202D01*
X821716Y12120D01*
X821665Y12037D01*
X821618Y11951D01*
X821574Y11863D01*
X821534Y11774D01*
X821498Y11684D01*
X821465Y11592D01*
X821436Y11498D01*
X821411Y11404D01*
X821389Y11308D01*
X821371Y11212D01*
X821358Y11116D01*
X821348Y11018D01*
X821342Y10921D01*
X821340Y10823D01*
X821340Y9610D01*
X826195Y9610D01*
X815378Y10216D02*
X812345Y9003D01*
X815378Y10217D02*
X815450Y10247D01*
X815520Y10281D01*
X815588Y10319D01*
X815654Y10360D01*
X815719Y10404D01*
X815780Y10452D01*
X815840Y10502D01*
X815897Y10555D01*
X815951Y10611D01*
X816002Y10670D01*
X816051Y10731D01*
X816096Y10795D01*
X816138Y10860D01*
X816177Y10928D01*
X816213Y10997D01*
X816244Y11068D01*
X816273Y11141D01*
X816298Y11215D01*
X816319Y11290D01*
X816336Y11366D01*
X816349Y11443D01*
X816359Y11520D01*
X816365Y11598D01*
X816367Y11676D01*
X816365Y11754D01*
X816359Y11831D01*
X816350Y11909D01*
X816336Y11985D01*
X816319Y12062D01*
X816298Y12137D01*
X816274Y12211D01*
X816245Y12283D01*
X816214Y12354D01*
X816178Y12424D01*
X816140Y12492D01*
X816098Y12557D01*
X816052Y12621D01*
X816004Y12682D01*
X815953Y12741D01*
X815899Y12797D01*
X815842Y12850D01*
X815783Y12901D01*
X815721Y12948D01*
X815657Y12992D01*
X815590Y13033D01*
X815522Y13071D01*
X815452Y13106D01*
X815381Y13137D01*
X815308Y13164D01*
X815233Y13187D01*
X815158Y13207D01*
X815082Y13223D01*
X815005Y13236D01*
X814927Y13244D01*
X814849Y13249D01*
X814772Y13250D01*
X814772Y13251D02*
X814606Y13247D01*
X814440Y13239D01*
X814275Y13226D01*
X814110Y13210D01*
X813946Y13190D01*
X813782Y13166D01*
X813619Y13137D01*
X813456Y13105D01*
X813294Y13069D01*
X813134Y13030D01*
X812974Y12986D01*
X812815Y12938D01*
X812657Y12887D01*
X812501Y12832D01*
X812346Y12773D01*
X812193Y12711D01*
X812041Y12644D01*
X812345Y9002D02*
X812273Y8972D01*
X812203Y8938D01*
X812135Y8900D01*
X812069Y8859D01*
X812004Y8815D01*
X811943Y8767D01*
X811883Y8717D01*
X811826Y8664D01*
X811772Y8608D01*
X811721Y8549D01*
X811672Y8488D01*
X811627Y8424D01*
X811585Y8359D01*
X811546Y8291D01*
X811510Y8222D01*
X811479Y8151D01*
X811450Y8078D01*
X811425Y8004D01*
X811404Y7929D01*
X811387Y7853D01*
X811374Y7776D01*
X811364Y7699D01*
X811358Y7621D01*
X811356Y7543D01*
X811358Y7465D01*
X811364Y7388D01*
X811373Y7310D01*
X811387Y7234D01*
X811404Y7157D01*
X811425Y7082D01*
X811449Y7008D01*
X811478Y6936D01*
X811509Y6865D01*
X811545Y6795D01*
X811583Y6727D01*
X811625Y6662D01*
X811671Y6598D01*
X811719Y6537D01*
X811770Y6478D01*
X811824Y6422D01*
X811881Y6369D01*
X811940Y6318D01*
X812002Y6271D01*
X812066Y6227D01*
X812133Y6186D01*
X812201Y6148D01*
X812271Y6113D01*
X812342Y6082D01*
X812415Y6055D01*
X812490Y6032D01*
X812565Y6012D01*
X812641Y5996D01*
X812718Y5983D01*
X812796Y5975D01*
X812874Y5970D01*
X812951Y5969D01*
X813194Y5975D01*
X813437Y5988D01*
X813680Y6005D01*
X813922Y6029D01*
X814164Y6058D01*
X814405Y6093D01*
X814645Y6134D01*
X814884Y6180D01*
X815122Y6232D01*
X815358Y6290D01*
X815593Y6353D01*
X815827Y6422D01*
X816058Y6496D01*
X816288Y6576D01*
X806002Y7789D02*
X806002Y13250D01*
X806001Y7789D02*
X805999Y7705D01*
X805993Y7621D01*
X805984Y7538D01*
X805970Y7455D01*
X805953Y7372D01*
X805932Y7291D01*
X805907Y7211D01*
X805878Y7132D01*
X805846Y7054D01*
X805810Y6978D01*
X805771Y6903D01*
X805728Y6831D01*
X805682Y6760D01*
X805633Y6692D01*
X805581Y6626D01*
X805526Y6563D01*
X805468Y6502D01*
X805407Y6444D01*
X805344Y6389D01*
X805278Y6337D01*
X805210Y6288D01*
X805139Y6242D01*
X805067Y6199D01*
X804992Y6160D01*
X804916Y6124D01*
X804838Y6092D01*
X804759Y6063D01*
X804679Y6038D01*
X804598Y6017D01*
X804515Y6000D01*
X804432Y5986D01*
X804349Y5977D01*
X804265Y5971D01*
X804181Y5969D01*
X801147Y5969D01*
X801147Y13250D01*
X795652Y16891D02*
X795652Y7789D01*
X795650Y7705D01*
X795644Y7621D01*
X795635Y7538D01*
X795621Y7455D01*
X795604Y7372D01*
X795583Y7291D01*
X795558Y7211D01*
X795529Y7132D01*
X795497Y7054D01*
X795461Y6978D01*
X795422Y6903D01*
X795379Y6831D01*
X795333Y6760D01*
X795284Y6692D01*
X795232Y6626D01*
X795177Y6563D01*
X795119Y6502D01*
X795058Y6444D01*
X794995Y6389D01*
X794929Y6337D01*
X794861Y6288D01*
X794790Y6242D01*
X794718Y6199D01*
X794643Y6160D01*
X794567Y6124D01*
X794489Y6092D01*
X794410Y6063D01*
X794330Y6038D01*
X794249Y6017D01*
X794166Y6000D01*
X794083Y5986D01*
X794000Y5977D01*
X793916Y5971D01*
X793832Y5969D01*
X790663Y13250D02*
X787022Y13250D01*
X789449Y16891D02*
X789449Y7789D01*
X789447Y7705D01*
X789441Y7621D01*
X789432Y7538D01*
X789418Y7455D01*
X789401Y7372D01*
X789380Y7291D01*
X789355Y7211D01*
X789326Y7132D01*
X789294Y7054D01*
X789258Y6978D01*
X789219Y6903D01*
X789176Y6831D01*
X789130Y6760D01*
X789081Y6692D01*
X789029Y6626D01*
X788974Y6563D01*
X788916Y6502D01*
X788855Y6444D01*
X788792Y6389D01*
X788726Y6337D01*
X788658Y6288D01*
X788587Y6242D01*
X788515Y6199D01*
X788440Y6160D01*
X788364Y6124D01*
X788286Y6092D01*
X788207Y6063D01*
X788127Y6038D01*
X788046Y6017D01*
X787963Y6000D01*
X787880Y5986D01*
X787797Y5977D01*
X787713Y5971D01*
X787629Y5969D01*
X787022Y5969D01*
X781470Y10216D02*
X778436Y9003D01*
X781469Y10217D02*
X781541Y10247D01*
X781611Y10281D01*
X781679Y10319D01*
X781745Y10360D01*
X781810Y10404D01*
X781871Y10452D01*
X781931Y10502D01*
X781988Y10555D01*
X782042Y10611D01*
X782093Y10670D01*
X782142Y10731D01*
X782187Y10795D01*
X782229Y10860D01*
X782268Y10928D01*
X782304Y10997D01*
X782335Y11068D01*
X782364Y11141D01*
X782389Y11215D01*
X782410Y11290D01*
X782427Y11366D01*
X782440Y11443D01*
X782450Y11520D01*
X782456Y11598D01*
X782458Y11676D01*
X782456Y11754D01*
X782450Y11831D01*
X782441Y11909D01*
X782427Y11985D01*
X782410Y12062D01*
X782389Y12137D01*
X782365Y12211D01*
X782336Y12283D01*
X782305Y12354D01*
X782269Y12424D01*
X782231Y12492D01*
X782189Y12557D01*
X782143Y12621D01*
X782095Y12682D01*
X782044Y12741D01*
X781990Y12797D01*
X781933Y12850D01*
X781874Y12901D01*
X781812Y12948D01*
X781748Y12992D01*
X781681Y13033D01*
X781613Y13071D01*
X781543Y13106D01*
X781472Y13137D01*
X781399Y13164D01*
X781324Y13187D01*
X781249Y13207D01*
X781173Y13223D01*
X781096Y13236D01*
X781018Y13244D01*
X780940Y13249D01*
X780863Y13250D01*
X780863Y13251D02*
X780697Y13247D01*
X780531Y13239D01*
X780366Y13226D01*
X780201Y13210D01*
X780037Y13190D01*
X779873Y13166D01*
X779710Y13137D01*
X779547Y13105D01*
X779385Y13069D01*
X779225Y13030D01*
X779065Y12986D01*
X778906Y12938D01*
X778748Y12887D01*
X778592Y12832D01*
X778437Y12773D01*
X778284Y12711D01*
X778132Y12644D01*
X778436Y9002D02*
X778364Y8972D01*
X778294Y8938D01*
X778226Y8900D01*
X778160Y8859D01*
X778095Y8815D01*
X778034Y8767D01*
X777974Y8717D01*
X777917Y8664D01*
X777863Y8608D01*
X777812Y8549D01*
X777763Y8488D01*
X777718Y8424D01*
X777676Y8359D01*
X777637Y8291D01*
X777601Y8222D01*
X777570Y8151D01*
X777541Y8078D01*
X777516Y8004D01*
X777495Y7929D01*
X777478Y7853D01*
X777465Y7776D01*
X777455Y7699D01*
X777449Y7621D01*
X777447Y7543D01*
X777449Y7465D01*
X777455Y7388D01*
X777464Y7310D01*
X777478Y7234D01*
X777495Y7157D01*
X777516Y7082D01*
X777540Y7008D01*
X777569Y6936D01*
X777600Y6865D01*
X777636Y6795D01*
X777674Y6727D01*
X777716Y6662D01*
X777762Y6598D01*
X777810Y6537D01*
X777861Y6478D01*
X777915Y6422D01*
X777972Y6369D01*
X778031Y6318D01*
X778093Y6271D01*
X778157Y6227D01*
X778224Y6186D01*
X778292Y6148D01*
X778362Y6113D01*
X778433Y6082D01*
X778506Y6055D01*
X778581Y6032D01*
X778656Y6012D01*
X778732Y5996D01*
X778809Y5983D01*
X778887Y5975D01*
X778965Y5970D01*
X779042Y5969D01*
X779285Y5975D01*
X779528Y5988D01*
X779771Y6005D01*
X780013Y6029D01*
X780255Y6058D01*
X780496Y6093D01*
X780736Y6134D01*
X780975Y6180D01*
X781213Y6232D01*
X781449Y6290D01*
X781684Y6353D01*
X781918Y6422D01*
X782149Y6496D01*
X782379Y6576D01*
X773076Y5969D02*
X772470Y5969D01*
X773076Y5969D02*
X773076Y6576D01*
X772470Y6576D01*
X772470Y5969D01*
X773380Y3542D01*
X761425Y7789D02*
X761425Y13250D01*
X761424Y7789D02*
X761422Y7705D01*
X761416Y7621D01*
X761407Y7538D01*
X761393Y7455D01*
X761376Y7372D01*
X761355Y7291D01*
X761330Y7211D01*
X761301Y7132D01*
X761269Y7054D01*
X761233Y6978D01*
X761194Y6903D01*
X761151Y6831D01*
X761105Y6760D01*
X761056Y6692D01*
X761004Y6626D01*
X760949Y6563D01*
X760891Y6502D01*
X760830Y6444D01*
X760767Y6389D01*
X760701Y6337D01*
X760633Y6288D01*
X760562Y6242D01*
X760490Y6199D01*
X760415Y6160D01*
X760339Y6124D01*
X760261Y6092D01*
X760182Y6063D01*
X760102Y6038D01*
X760021Y6017D01*
X759938Y6000D01*
X759855Y5986D01*
X759772Y5977D01*
X759688Y5971D01*
X759604Y5969D01*
X756571Y5969D01*
X756571Y13250D01*
X750228Y10216D02*
X747194Y9003D01*
X750227Y10217D02*
X750299Y10247D01*
X750369Y10281D01*
X750437Y10319D01*
X750503Y10360D01*
X750568Y10404D01*
X750629Y10452D01*
X750689Y10502D01*
X750746Y10555D01*
X750800Y10611D01*
X750851Y10670D01*
X750900Y10731D01*
X750945Y10795D01*
X750987Y10860D01*
X751026Y10928D01*
X751062Y10997D01*
X751093Y11068D01*
X751122Y11141D01*
X751147Y11215D01*
X751168Y11290D01*
X751185Y11366D01*
X751198Y11443D01*
X751208Y11520D01*
X751214Y11598D01*
X751216Y11676D01*
X751214Y11754D01*
X751208Y11831D01*
X751199Y11909D01*
X751185Y11985D01*
X751168Y12062D01*
X751147Y12137D01*
X751123Y12211D01*
X751094Y12283D01*
X751063Y12354D01*
X751027Y12424D01*
X750989Y12492D01*
X750947Y12557D01*
X750901Y12621D01*
X750853Y12682D01*
X750802Y12741D01*
X750748Y12797D01*
X750691Y12850D01*
X750632Y12901D01*
X750570Y12948D01*
X750506Y12992D01*
X750439Y13033D01*
X750371Y13071D01*
X750301Y13106D01*
X750230Y13137D01*
X750157Y13164D01*
X750082Y13187D01*
X750007Y13207D01*
X749931Y13223D01*
X749854Y13236D01*
X749776Y13244D01*
X749698Y13249D01*
X749621Y13250D01*
X749621Y13251D02*
X749455Y13247D01*
X749289Y13239D01*
X749124Y13226D01*
X748959Y13210D01*
X748795Y13190D01*
X748631Y13166D01*
X748468Y13137D01*
X748305Y13105D01*
X748143Y13069D01*
X747983Y13030D01*
X747823Y12986D01*
X747664Y12938D01*
X747506Y12887D01*
X747350Y12832D01*
X747195Y12773D01*
X747042Y12711D01*
X746890Y12644D01*
X747194Y9002D02*
X747122Y8972D01*
X747052Y8938D01*
X746984Y8900D01*
X746918Y8859D01*
X746853Y8815D01*
X746792Y8767D01*
X746732Y8717D01*
X746675Y8664D01*
X746621Y8608D01*
X746570Y8549D01*
X746521Y8488D01*
X746476Y8424D01*
X746434Y8359D01*
X746395Y8291D01*
X746359Y8222D01*
X746328Y8151D01*
X746299Y8078D01*
X746274Y8004D01*
X746253Y7929D01*
X746236Y7853D01*
X746223Y7776D01*
X746213Y7699D01*
X746207Y7621D01*
X746205Y7543D01*
X746207Y7465D01*
X746213Y7388D01*
X746222Y7310D01*
X746236Y7234D01*
X746253Y7157D01*
X746274Y7082D01*
X746298Y7008D01*
X746327Y6936D01*
X746358Y6865D01*
X746394Y6795D01*
X746432Y6727D01*
X746474Y6662D01*
X746520Y6598D01*
X746568Y6537D01*
X746619Y6478D01*
X746673Y6422D01*
X746730Y6369D01*
X746789Y6318D01*
X746851Y6271D01*
X746915Y6227D01*
X746982Y6186D01*
X747050Y6148D01*
X747120Y6113D01*
X747191Y6082D01*
X747264Y6055D01*
X747339Y6032D01*
X747414Y6012D01*
X747490Y5996D01*
X747567Y5983D01*
X747645Y5975D01*
X747723Y5970D01*
X747800Y5969D01*
X747801Y5969D02*
X748044Y5975D01*
X748287Y5988D01*
X748530Y6005D01*
X748772Y6029D01*
X749014Y6058D01*
X749255Y6093D01*
X749495Y6134D01*
X749734Y6180D01*
X749972Y6232D01*
X750208Y6290D01*
X750443Y6353D01*
X750677Y6422D01*
X750908Y6496D01*
X751138Y6576D01*
X739411Y5969D02*
X736378Y5969D01*
X739411Y5969D02*
X739495Y5971D01*
X739579Y5977D01*
X739662Y5986D01*
X739745Y6000D01*
X739828Y6017D01*
X739909Y6038D01*
X739989Y6063D01*
X740068Y6092D01*
X740146Y6124D01*
X740222Y6160D01*
X740297Y6199D01*
X740369Y6242D01*
X740440Y6288D01*
X740508Y6337D01*
X740574Y6389D01*
X740637Y6444D01*
X740698Y6502D01*
X740756Y6563D01*
X740811Y6626D01*
X740863Y6692D01*
X740912Y6760D01*
X740958Y6831D01*
X741001Y6903D01*
X741040Y6978D01*
X741076Y7054D01*
X741108Y7132D01*
X741137Y7211D01*
X741162Y7291D01*
X741183Y7372D01*
X741200Y7455D01*
X741214Y7538D01*
X741223Y7621D01*
X741229Y7705D01*
X741231Y7789D01*
X741232Y7789D02*
X741232Y10823D01*
X741230Y10921D01*
X741224Y11018D01*
X741214Y11116D01*
X741201Y11212D01*
X741183Y11308D01*
X741161Y11404D01*
X741136Y11498D01*
X741107Y11592D01*
X741074Y11684D01*
X741038Y11774D01*
X740998Y11863D01*
X740954Y11951D01*
X740907Y12037D01*
X740856Y12120D01*
X740802Y12202D01*
X740745Y12281D01*
X740685Y12358D01*
X740622Y12432D01*
X740555Y12504D01*
X740486Y12573D01*
X740414Y12640D01*
X740340Y12703D01*
X740263Y12763D01*
X740184Y12820D01*
X740102Y12874D01*
X740019Y12925D01*
X739933Y12972D01*
X739845Y13016D01*
X739756Y13056D01*
X739666Y13092D01*
X739574Y13125D01*
X739480Y13154D01*
X739386Y13179D01*
X739290Y13201D01*
X739194Y13219D01*
X739098Y13232D01*
X739000Y13242D01*
X738903Y13248D01*
X738805Y13250D01*
X738707Y13248D01*
X738610Y13242D01*
X738512Y13232D01*
X738416Y13219D01*
X738320Y13201D01*
X738224Y13179D01*
X738130Y13154D01*
X738036Y13125D01*
X737944Y13092D01*
X737854Y13056D01*
X737765Y13016D01*
X737677Y12972D01*
X737592Y12925D01*
X737508Y12874D01*
X737426Y12820D01*
X737347Y12763D01*
X737270Y12703D01*
X737196Y12640D01*
X737124Y12573D01*
X737055Y12504D01*
X736988Y12432D01*
X736925Y12358D01*
X736865Y12281D01*
X736808Y12202D01*
X736754Y12120D01*
X736703Y12037D01*
X736656Y11951D01*
X736612Y11863D01*
X736572Y11774D01*
X736536Y11684D01*
X736503Y11592D01*
X736474Y11498D01*
X736449Y11404D01*
X736427Y11308D01*
X736409Y11212D01*
X736396Y11116D01*
X736386Y11018D01*
X736380Y10921D01*
X736378Y10823D01*
X736378Y9610D01*
X741232Y9610D01*
X725230Y8396D02*
X725230Y10823D01*
X725228Y10921D01*
X725222Y11018D01*
X725212Y11116D01*
X725199Y11212D01*
X725181Y11308D01*
X725159Y11404D01*
X725134Y11498D01*
X725105Y11592D01*
X725072Y11684D01*
X725036Y11774D01*
X724996Y11863D01*
X724952Y11951D01*
X724905Y12037D01*
X724854Y12120D01*
X724800Y12202D01*
X724743Y12281D01*
X724683Y12358D01*
X724620Y12432D01*
X724553Y12504D01*
X724484Y12573D01*
X724412Y12640D01*
X724338Y12703D01*
X724261Y12763D01*
X724182Y12820D01*
X724100Y12874D01*
X724017Y12925D01*
X723931Y12972D01*
X723843Y13016D01*
X723754Y13056D01*
X723664Y13092D01*
X723572Y13125D01*
X723478Y13154D01*
X723384Y13179D01*
X723288Y13201D01*
X723192Y13219D01*
X723096Y13232D01*
X722998Y13242D01*
X722901Y13248D01*
X722803Y13250D01*
X722705Y13248D01*
X722608Y13242D01*
X722510Y13232D01*
X722414Y13219D01*
X722318Y13201D01*
X722222Y13179D01*
X722128Y13154D01*
X722034Y13125D01*
X721942Y13092D01*
X721852Y13056D01*
X721763Y13016D01*
X721675Y12972D01*
X721590Y12925D01*
X721506Y12874D01*
X721424Y12820D01*
X721345Y12763D01*
X721268Y12703D01*
X721194Y12640D01*
X721122Y12573D01*
X721053Y12504D01*
X720986Y12432D01*
X720923Y12358D01*
X720863Y12281D01*
X720806Y12202D01*
X720752Y12120D01*
X720701Y12037D01*
X720654Y11951D01*
X720610Y11863D01*
X720570Y11774D01*
X720534Y11684D01*
X720501Y11592D01*
X720472Y11498D01*
X720447Y11404D01*
X720425Y11308D01*
X720407Y11212D01*
X720394Y11116D01*
X720384Y11018D01*
X720378Y10921D01*
X720376Y10823D01*
X720376Y8396D01*
X720378Y8298D01*
X720384Y8201D01*
X720394Y8103D01*
X720407Y8007D01*
X720425Y7911D01*
X720447Y7815D01*
X720472Y7721D01*
X720501Y7627D01*
X720534Y7535D01*
X720570Y7445D01*
X720610Y7356D01*
X720654Y7268D01*
X720701Y7183D01*
X720752Y7099D01*
X720806Y7017D01*
X720863Y6938D01*
X720923Y6861D01*
X720986Y6787D01*
X721053Y6715D01*
X721122Y6646D01*
X721194Y6579D01*
X721268Y6516D01*
X721345Y6456D01*
X721424Y6399D01*
X721506Y6345D01*
X721590Y6294D01*
X721675Y6247D01*
X721763Y6203D01*
X721852Y6163D01*
X721942Y6127D01*
X722034Y6094D01*
X722128Y6065D01*
X722222Y6040D01*
X722318Y6018D01*
X722414Y6000D01*
X722510Y5987D01*
X722608Y5977D01*
X722705Y5971D01*
X722803Y5969D01*
X722901Y5971D01*
X722998Y5977D01*
X723096Y5987D01*
X723192Y6000D01*
X723288Y6018D01*
X723384Y6040D01*
X723478Y6065D01*
X723572Y6094D01*
X723664Y6127D01*
X723754Y6163D01*
X723843Y6203D01*
X723931Y6247D01*
X724017Y6294D01*
X724100Y6345D01*
X724182Y6399D01*
X724261Y6456D01*
X724338Y6516D01*
X724412Y6579D01*
X724484Y6646D01*
X724553Y6715D01*
X724620Y6787D01*
X724683Y6861D01*
X724743Y6938D01*
X724800Y7017D01*
X724854Y7099D01*
X724905Y7182D01*
X724952Y7268D01*
X724996Y7356D01*
X725036Y7445D01*
X725072Y7535D01*
X725105Y7627D01*
X725134Y7721D01*
X725159Y7815D01*
X725181Y7911D01*
X725199Y8007D01*
X725212Y8103D01*
X725222Y8201D01*
X725228Y8298D01*
X725230Y8396D01*
X716368Y13250D02*
X712727Y13250D01*
X715155Y16891D02*
X715155Y7789D01*
X715154Y7789D02*
X715152Y7705D01*
X715146Y7621D01*
X715137Y7538D01*
X715123Y7455D01*
X715106Y7372D01*
X715085Y7291D01*
X715060Y7211D01*
X715031Y7132D01*
X714999Y7054D01*
X714963Y6978D01*
X714924Y6903D01*
X714881Y6831D01*
X714835Y6760D01*
X714786Y6692D01*
X714734Y6626D01*
X714679Y6563D01*
X714621Y6502D01*
X714560Y6444D01*
X714497Y6389D01*
X714431Y6337D01*
X714363Y6288D01*
X714292Y6242D01*
X714220Y6199D01*
X714145Y6160D01*
X714069Y6124D01*
X713991Y6092D01*
X713912Y6063D01*
X713832Y6038D01*
X713751Y6017D01*
X713668Y6000D01*
X713585Y5986D01*
X713502Y5977D01*
X713418Y5971D01*
X713334Y5969D01*
X712727Y5969D01*
X707704Y5969D02*
X707704Y16891D01*
X707704Y13250D02*
X704670Y13250D01*
X704586Y13248D01*
X704502Y13242D01*
X704419Y13233D01*
X704336Y13219D01*
X704253Y13202D01*
X704172Y13181D01*
X704092Y13156D01*
X704013Y13127D01*
X703935Y13095D01*
X703859Y13059D01*
X703784Y13020D01*
X703712Y12977D01*
X703641Y12932D01*
X703573Y12882D01*
X703507Y12830D01*
X703444Y12775D01*
X703383Y12717D01*
X703325Y12656D01*
X703270Y12593D01*
X703218Y12527D01*
X703169Y12459D01*
X703123Y12388D01*
X703080Y12316D01*
X703041Y12241D01*
X703005Y12165D01*
X702973Y12088D01*
X702944Y12008D01*
X702919Y11928D01*
X702898Y11847D01*
X702881Y11764D01*
X702867Y11682D01*
X702858Y11598D01*
X702852Y11514D01*
X702850Y11430D01*
X702850Y5969D01*
X695597Y5969D02*
X692563Y5969D01*
X695597Y5969D02*
X695681Y5971D01*
X695765Y5977D01*
X695848Y5986D01*
X695931Y6000D01*
X696014Y6017D01*
X696095Y6038D01*
X696175Y6063D01*
X696254Y6092D01*
X696332Y6124D01*
X696408Y6160D01*
X696483Y6199D01*
X696555Y6242D01*
X696626Y6288D01*
X696694Y6337D01*
X696760Y6389D01*
X696823Y6444D01*
X696884Y6502D01*
X696942Y6563D01*
X696997Y6626D01*
X697049Y6692D01*
X697098Y6760D01*
X697144Y6831D01*
X697187Y6903D01*
X697226Y6978D01*
X697262Y7054D01*
X697294Y7132D01*
X697323Y7211D01*
X697348Y7291D01*
X697369Y7372D01*
X697386Y7455D01*
X697400Y7538D01*
X697409Y7621D01*
X697415Y7705D01*
X697417Y7789D01*
X697417Y10823D01*
X697415Y10921D01*
X697409Y11018D01*
X697399Y11116D01*
X697386Y11212D01*
X697368Y11308D01*
X697346Y11404D01*
X697321Y11498D01*
X697292Y11592D01*
X697259Y11684D01*
X697223Y11774D01*
X697183Y11863D01*
X697139Y11951D01*
X697092Y12037D01*
X697041Y12120D01*
X696987Y12202D01*
X696930Y12281D01*
X696870Y12358D01*
X696807Y12432D01*
X696740Y12504D01*
X696671Y12573D01*
X696599Y12640D01*
X696525Y12703D01*
X696448Y12763D01*
X696369Y12820D01*
X696287Y12874D01*
X696204Y12925D01*
X696118Y12972D01*
X696030Y13016D01*
X695941Y13056D01*
X695851Y13092D01*
X695759Y13125D01*
X695665Y13154D01*
X695571Y13179D01*
X695475Y13201D01*
X695379Y13219D01*
X695283Y13232D01*
X695185Y13242D01*
X695088Y13248D01*
X694990Y13250D01*
X694892Y13248D01*
X694795Y13242D01*
X694697Y13232D01*
X694601Y13219D01*
X694505Y13201D01*
X694409Y13179D01*
X694315Y13154D01*
X694221Y13125D01*
X694129Y13092D01*
X694039Y13056D01*
X693950Y13016D01*
X693862Y12972D01*
X693777Y12925D01*
X693693Y12874D01*
X693611Y12820D01*
X693532Y12763D01*
X693455Y12703D01*
X693381Y12640D01*
X693309Y12573D01*
X693240Y12504D01*
X693173Y12432D01*
X693110Y12358D01*
X693050Y12281D01*
X692993Y12202D01*
X692939Y12120D01*
X692888Y12037D01*
X692841Y11951D01*
X692797Y11863D01*
X692757Y11774D01*
X692721Y11684D01*
X692688Y11592D01*
X692659Y11498D01*
X692634Y11404D01*
X692612Y11308D01*
X692594Y11212D01*
X692581Y11116D01*
X692571Y11018D01*
X692565Y10921D01*
X692563Y10823D01*
X692563Y9610D01*
X697417Y9610D01*
X687039Y13250D02*
X687039Y5969D01*
X687039Y13250D02*
X683398Y13250D01*
X683398Y12037D01*
X672504Y10216D02*
X669470Y9003D01*
X672504Y10217D02*
X672576Y10247D01*
X672646Y10281D01*
X672714Y10319D01*
X672780Y10360D01*
X672845Y10404D01*
X672906Y10452D01*
X672966Y10502D01*
X673023Y10555D01*
X673077Y10611D01*
X673128Y10670D01*
X673177Y10731D01*
X673222Y10795D01*
X673264Y10860D01*
X673303Y10928D01*
X673339Y10997D01*
X673370Y11068D01*
X673399Y11141D01*
X673424Y11215D01*
X673445Y11290D01*
X673462Y11366D01*
X673475Y11443D01*
X673485Y11520D01*
X673491Y11598D01*
X673493Y11676D01*
X673491Y11754D01*
X673485Y11831D01*
X673476Y11909D01*
X673462Y11985D01*
X673445Y12062D01*
X673424Y12137D01*
X673400Y12211D01*
X673371Y12283D01*
X673340Y12354D01*
X673304Y12424D01*
X673266Y12492D01*
X673224Y12557D01*
X673178Y12621D01*
X673130Y12682D01*
X673079Y12741D01*
X673025Y12797D01*
X672968Y12850D01*
X672909Y12901D01*
X672847Y12948D01*
X672783Y12992D01*
X672716Y13033D01*
X672648Y13071D01*
X672578Y13106D01*
X672507Y13137D01*
X672434Y13164D01*
X672359Y13187D01*
X672284Y13207D01*
X672208Y13223D01*
X672131Y13236D01*
X672053Y13244D01*
X671975Y13249D01*
X671898Y13250D01*
X671898Y13251D02*
X671732Y13247D01*
X671566Y13239D01*
X671401Y13226D01*
X671236Y13210D01*
X671072Y13190D01*
X670908Y13166D01*
X670745Y13137D01*
X670582Y13105D01*
X670420Y13069D01*
X670260Y13030D01*
X670100Y12986D01*
X669941Y12938D01*
X669783Y12887D01*
X669627Y12832D01*
X669472Y12773D01*
X669319Y12711D01*
X669167Y12644D01*
X669470Y9002D02*
X669398Y8972D01*
X669328Y8938D01*
X669260Y8900D01*
X669194Y8859D01*
X669129Y8815D01*
X669068Y8767D01*
X669008Y8717D01*
X668951Y8664D01*
X668897Y8608D01*
X668846Y8549D01*
X668797Y8488D01*
X668752Y8424D01*
X668710Y8359D01*
X668671Y8291D01*
X668635Y8222D01*
X668604Y8151D01*
X668575Y8078D01*
X668550Y8004D01*
X668529Y7929D01*
X668512Y7853D01*
X668499Y7776D01*
X668489Y7699D01*
X668483Y7621D01*
X668481Y7543D01*
X668483Y7465D01*
X668489Y7388D01*
X668498Y7310D01*
X668512Y7234D01*
X668529Y7157D01*
X668550Y7082D01*
X668574Y7008D01*
X668603Y6936D01*
X668634Y6865D01*
X668670Y6795D01*
X668708Y6727D01*
X668750Y6662D01*
X668796Y6598D01*
X668844Y6537D01*
X668895Y6478D01*
X668949Y6422D01*
X669006Y6369D01*
X669065Y6318D01*
X669127Y6271D01*
X669191Y6227D01*
X669258Y6186D01*
X669326Y6148D01*
X669396Y6113D01*
X669467Y6082D01*
X669540Y6055D01*
X669615Y6032D01*
X669690Y6012D01*
X669766Y5996D01*
X669843Y5983D01*
X669921Y5975D01*
X669999Y5970D01*
X670076Y5969D01*
X670077Y5969D02*
X670320Y5975D01*
X670563Y5988D01*
X670806Y6005D01*
X671048Y6029D01*
X671290Y6058D01*
X671531Y6093D01*
X671771Y6134D01*
X672010Y6180D01*
X672248Y6232D01*
X672484Y6290D01*
X672719Y6353D01*
X672953Y6422D01*
X673184Y6496D01*
X673414Y6576D01*
X663748Y5969D02*
X663748Y13250D01*
X664051Y16284D02*
X664051Y16891D01*
X663445Y16891D01*
X663445Y16284D01*
X664051Y16284D01*
X654163Y16891D02*
X654163Y5969D01*
X657197Y5969D01*
X657281Y5971D01*
X657365Y5977D01*
X657448Y5986D01*
X657531Y6000D01*
X657614Y6017D01*
X657695Y6038D01*
X657775Y6063D01*
X657854Y6092D01*
X657932Y6124D01*
X658008Y6160D01*
X658083Y6199D01*
X658155Y6242D01*
X658226Y6288D01*
X658294Y6337D01*
X658360Y6389D01*
X658423Y6444D01*
X658484Y6502D01*
X658542Y6563D01*
X658597Y6626D01*
X658649Y6692D01*
X658698Y6760D01*
X658744Y6831D01*
X658787Y6903D01*
X658826Y6978D01*
X658862Y7054D01*
X658894Y7132D01*
X658923Y7211D01*
X658948Y7291D01*
X658969Y7372D01*
X658986Y7455D01*
X659000Y7538D01*
X659009Y7621D01*
X659015Y7705D01*
X659017Y7789D01*
X659017Y11430D01*
X659015Y11514D01*
X659009Y11598D01*
X659000Y11681D01*
X658986Y11764D01*
X658969Y11847D01*
X658948Y11928D01*
X658923Y12008D01*
X658894Y12087D01*
X658862Y12165D01*
X658826Y12241D01*
X658787Y12316D01*
X658744Y12388D01*
X658698Y12459D01*
X658649Y12527D01*
X658597Y12593D01*
X658542Y12656D01*
X658484Y12717D01*
X658423Y12775D01*
X658360Y12830D01*
X658294Y12882D01*
X658226Y12931D01*
X658155Y12977D01*
X658083Y13020D01*
X658008Y13059D01*
X657932Y13095D01*
X657854Y13127D01*
X657775Y13156D01*
X657695Y13181D01*
X657614Y13202D01*
X657531Y13219D01*
X657448Y13233D01*
X657365Y13242D01*
X657281Y13248D01*
X657197Y13250D01*
X654163Y13250D01*
X646829Y5969D02*
X643795Y5969D01*
X646829Y5969D02*
X646913Y5971D01*
X646997Y5977D01*
X647080Y5986D01*
X647163Y6000D01*
X647246Y6017D01*
X647327Y6038D01*
X647407Y6063D01*
X647486Y6092D01*
X647564Y6124D01*
X647640Y6160D01*
X647715Y6199D01*
X647787Y6242D01*
X647858Y6288D01*
X647926Y6337D01*
X647992Y6389D01*
X648055Y6444D01*
X648116Y6502D01*
X648174Y6563D01*
X648229Y6626D01*
X648281Y6692D01*
X648330Y6760D01*
X648376Y6831D01*
X648419Y6903D01*
X648458Y6978D01*
X648494Y7054D01*
X648526Y7132D01*
X648555Y7211D01*
X648580Y7291D01*
X648601Y7372D01*
X648618Y7455D01*
X648632Y7538D01*
X648641Y7621D01*
X648647Y7705D01*
X648649Y7789D01*
X648649Y10823D01*
X648647Y10921D01*
X648641Y11018D01*
X648631Y11116D01*
X648618Y11212D01*
X648600Y11308D01*
X648578Y11404D01*
X648553Y11498D01*
X648524Y11592D01*
X648491Y11684D01*
X648455Y11774D01*
X648415Y11863D01*
X648371Y11951D01*
X648324Y12037D01*
X648273Y12120D01*
X648219Y12202D01*
X648162Y12281D01*
X648102Y12358D01*
X648039Y12432D01*
X647972Y12504D01*
X647903Y12573D01*
X647831Y12640D01*
X647757Y12703D01*
X647680Y12763D01*
X647601Y12820D01*
X647519Y12874D01*
X647436Y12925D01*
X647350Y12972D01*
X647262Y13016D01*
X647173Y13056D01*
X647083Y13092D01*
X646991Y13125D01*
X646897Y13154D01*
X646803Y13179D01*
X646707Y13201D01*
X646611Y13219D01*
X646515Y13232D01*
X646417Y13242D01*
X646320Y13248D01*
X646222Y13250D01*
X646124Y13248D01*
X646027Y13242D01*
X645929Y13232D01*
X645833Y13219D01*
X645737Y13201D01*
X645641Y13179D01*
X645547Y13154D01*
X645453Y13125D01*
X645361Y13092D01*
X645271Y13056D01*
X645182Y13016D01*
X645094Y12972D01*
X645009Y12925D01*
X644925Y12874D01*
X644843Y12820D01*
X644764Y12763D01*
X644687Y12703D01*
X644613Y12640D01*
X644541Y12573D01*
X644472Y12504D01*
X644405Y12432D01*
X644342Y12358D01*
X644282Y12281D01*
X644225Y12202D01*
X644171Y12120D01*
X644120Y12037D01*
X644073Y11951D01*
X644029Y11863D01*
X643989Y11774D01*
X643953Y11684D01*
X643920Y11592D01*
X643891Y11498D01*
X643866Y11404D01*
X643844Y11308D01*
X643826Y11212D01*
X643813Y11116D01*
X643803Y11018D01*
X643797Y10921D01*
X643795Y10823D01*
X643795Y9610D01*
X648649Y9610D01*
D11*
X104140Y20320D02*
X104140Y33020D01*
X104140Y20320D02*
X116840Y7620D01*
X116840Y22860D01*
X104140Y33020D01*
X116840Y22860D02*
X157480Y22860D01*
X144780Y33020D02*
X104140Y33020D01*
X144780Y33020D02*
X157480Y22860D01*
X157480Y7620D01*
X116840Y7620D01*
D12*
X137378Y29210D02*
X137380Y29293D01*
X137386Y29376D01*
X137395Y29458D01*
X137409Y29540D01*
X137426Y29621D01*
X137447Y29702D01*
X137471Y29781D01*
X137499Y29859D01*
X137531Y29935D01*
X137566Y30011D01*
X137605Y30084D01*
X137647Y30155D01*
X137692Y30225D01*
X137741Y30292D01*
X137792Y30357D01*
X137847Y30420D01*
X137904Y30480D01*
X137964Y30537D01*
X138027Y30592D01*
X138092Y30643D01*
X138159Y30692D01*
X138229Y30737D01*
X138300Y30779D01*
X138373Y30818D01*
X138449Y30853D01*
X138525Y30885D01*
X138603Y30913D01*
X138683Y30937D01*
X138763Y30958D01*
X138844Y30975D01*
X138926Y30989D01*
X139008Y30998D01*
X139091Y31004D01*
X139174Y31006D01*
X137378Y29210D02*
X137346Y29110D01*
X137319Y29009D01*
X137295Y28907D01*
X137275Y28804D01*
X137259Y28701D01*
X137246Y28596D01*
X137238Y28492D01*
X137233Y28387D01*
X137232Y28282D01*
X137235Y28178D01*
X137242Y28073D01*
X137253Y27969D01*
X137267Y27865D01*
X137286Y27762D01*
X137308Y27660D01*
X137334Y27558D01*
X137364Y27457D01*
X137397Y27358D01*
X137434Y27260D01*
X137475Y27163D01*
X137519Y27068D01*
X137566Y26975D01*
X137617Y26883D01*
X137672Y26794D01*
X137729Y26706D01*
X137790Y26621D01*
X137854Y26538D01*
X137921Y26457D01*
X137991Y26379D01*
X138064Y26304D01*
X138139Y26231D01*
X138217Y26161D01*
X138298Y26094D01*
X138381Y26030D01*
X138466Y25969D01*
X138554Y25912D01*
X138643Y25857D01*
X138735Y25806D01*
X138828Y25759D01*
X138923Y25715D01*
X139020Y25674D01*
X139118Y25637D01*
X139217Y25604D01*
X139318Y25574D01*
X139419Y25548D01*
X139522Y25526D01*
X139625Y25507D01*
X139729Y25493D01*
X139833Y25482D01*
X139938Y25475D01*
X140042Y25472D01*
X140147Y25473D01*
X140252Y25478D01*
X140356Y25486D01*
X140460Y25499D01*
X140564Y25515D01*
X140667Y25535D01*
X140769Y25559D01*
X140870Y25586D01*
X140970Y25618D01*
X141053Y25620D01*
X141136Y25626D01*
X141218Y25635D01*
X141300Y25649D01*
X141381Y25666D01*
X141461Y25687D01*
X141541Y25711D01*
X141619Y25739D01*
X141695Y25771D01*
X141771Y25806D01*
X141844Y25845D01*
X141915Y25887D01*
X141985Y25932D01*
X142052Y25981D01*
X142117Y26032D01*
X142180Y26087D01*
X142240Y26144D01*
X142297Y26204D01*
X142352Y26267D01*
X142403Y26332D01*
X142452Y26399D01*
X142497Y26469D01*
X142539Y26540D01*
X142578Y26613D01*
X142613Y26689D01*
X142645Y26765D01*
X142673Y26843D01*
X142697Y26923D01*
X142718Y27003D01*
X142735Y27084D01*
X142749Y27166D01*
X142758Y27248D01*
X142764Y27331D01*
X142766Y27414D01*
X142798Y27514D01*
X142825Y27615D01*
X142849Y27717D01*
X142869Y27820D01*
X142885Y27924D01*
X142898Y28028D01*
X142906Y28132D01*
X142911Y28237D01*
X142912Y28342D01*
X142909Y28446D01*
X142902Y28551D01*
X142891Y28655D01*
X142877Y28759D01*
X142858Y28862D01*
X142836Y28964D01*
X142810Y29066D01*
X142780Y29167D01*
X142747Y29266D01*
X142710Y29364D01*
X142669Y29461D01*
X142625Y29556D01*
X142578Y29649D01*
X142527Y29741D01*
X142472Y29830D01*
X142415Y29918D01*
X142354Y30003D01*
X142290Y30086D01*
X142223Y30167D01*
X142153Y30245D01*
X142080Y30320D01*
X142005Y30393D01*
X141927Y30463D01*
X141846Y30530D01*
X141763Y30594D01*
X141678Y30655D01*
X141590Y30712D01*
X141501Y30767D01*
X141409Y30818D01*
X141316Y30865D01*
X141221Y30909D01*
X141124Y30950D01*
X141026Y30987D01*
X140927Y31020D01*
X140826Y31050D01*
X140724Y31076D01*
X140622Y31098D01*
X140519Y31117D01*
X140415Y31131D01*
X140311Y31142D01*
X140206Y31149D01*
X140102Y31152D01*
X139997Y31151D01*
X139892Y31146D01*
X139788Y31138D01*
X139684Y31125D01*
X139580Y31109D01*
X139477Y31089D01*
X139375Y31065D01*
X139274Y31038D01*
X139174Y31006D01*
X129014Y31006D02*
X128931Y31004D01*
X128848Y30998D01*
X128766Y30989D01*
X128684Y30975D01*
X128603Y30958D01*
X128523Y30937D01*
X128443Y30913D01*
X128365Y30885D01*
X128289Y30853D01*
X128213Y30818D01*
X128140Y30779D01*
X128069Y30737D01*
X127999Y30692D01*
X127932Y30643D01*
X127867Y30592D01*
X127804Y30537D01*
X127744Y30480D01*
X127687Y30420D01*
X127632Y30357D01*
X127581Y30292D01*
X127532Y30225D01*
X127487Y30155D01*
X127445Y30084D01*
X127406Y30011D01*
X127371Y29935D01*
X127339Y29859D01*
X127311Y29781D01*
X127287Y29702D01*
X127266Y29621D01*
X127249Y29540D01*
X127235Y29458D01*
X127226Y29376D01*
X127220Y29293D01*
X127218Y29210D01*
X127186Y29110D01*
X127159Y29009D01*
X127135Y28907D01*
X127115Y28804D01*
X127099Y28701D01*
X127086Y28596D01*
X127078Y28492D01*
X127073Y28387D01*
X127072Y28282D01*
X127075Y28178D01*
X127082Y28073D01*
X127093Y27969D01*
X127107Y27865D01*
X127126Y27762D01*
X127148Y27660D01*
X127174Y27558D01*
X127204Y27457D01*
X127237Y27358D01*
X127274Y27260D01*
X127315Y27163D01*
X127359Y27068D01*
X127406Y26975D01*
X127457Y26883D01*
X127512Y26794D01*
X127569Y26706D01*
X127630Y26621D01*
X127694Y26538D01*
X127761Y26457D01*
X127831Y26379D01*
X127904Y26304D01*
X127979Y26231D01*
X128057Y26161D01*
X128138Y26094D01*
X128221Y26030D01*
X128306Y25969D01*
X128394Y25912D01*
X128483Y25857D01*
X128575Y25806D01*
X128668Y25759D01*
X128763Y25715D01*
X128860Y25674D01*
X128958Y25637D01*
X129057Y25604D01*
X129158Y25574D01*
X129259Y25548D01*
X129362Y25526D01*
X129465Y25507D01*
X129569Y25493D01*
X129673Y25482D01*
X129778Y25475D01*
X129882Y25472D01*
X129987Y25473D01*
X130092Y25478D01*
X130196Y25486D01*
X130300Y25499D01*
X130404Y25515D01*
X130507Y25535D01*
X130609Y25559D01*
X130710Y25586D01*
X130810Y25618D01*
X130893Y25620D01*
X130976Y25626D01*
X131058Y25635D01*
X131140Y25649D01*
X131221Y25666D01*
X131301Y25687D01*
X131381Y25711D01*
X131459Y25739D01*
X131535Y25771D01*
X131611Y25806D01*
X131684Y25845D01*
X131755Y25887D01*
X131825Y25932D01*
X131892Y25981D01*
X131957Y26032D01*
X132020Y26087D01*
X132080Y26144D01*
X132137Y26204D01*
X132192Y26267D01*
X132243Y26332D01*
X132292Y26399D01*
X132337Y26469D01*
X132379Y26540D01*
X132418Y26613D01*
X132453Y26689D01*
X132485Y26765D01*
X132513Y26843D01*
X132537Y26923D01*
X132558Y27003D01*
X132575Y27084D01*
X132589Y27166D01*
X132598Y27248D01*
X132604Y27331D01*
X132606Y27414D01*
X132638Y27514D01*
X132665Y27615D01*
X132689Y27717D01*
X132709Y27820D01*
X132725Y27924D01*
X132738Y28028D01*
X132746Y28132D01*
X132751Y28237D01*
X132752Y28342D01*
X132749Y28446D01*
X132742Y28551D01*
X132731Y28655D01*
X132717Y28759D01*
X132698Y28862D01*
X132676Y28964D01*
X132650Y29066D01*
X132620Y29167D01*
X132587Y29266D01*
X132550Y29364D01*
X132509Y29461D01*
X132465Y29556D01*
X132418Y29649D01*
X132367Y29741D01*
X132312Y29830D01*
X132255Y29918D01*
X132194Y30003D01*
X132130Y30086D01*
X132063Y30167D01*
X131993Y30245D01*
X131920Y30320D01*
X131845Y30393D01*
X131767Y30463D01*
X131686Y30530D01*
X131603Y30594D01*
X131518Y30655D01*
X131430Y30712D01*
X131341Y30767D01*
X131249Y30818D01*
X131156Y30865D01*
X131061Y30909D01*
X130964Y30950D01*
X130866Y30987D01*
X130767Y31020D01*
X130666Y31050D01*
X130564Y31076D01*
X130462Y31098D01*
X130359Y31117D01*
X130255Y31131D01*
X130151Y31142D01*
X130046Y31149D01*
X129942Y31152D01*
X129837Y31151D01*
X129732Y31146D01*
X129628Y31138D01*
X129524Y31125D01*
X129420Y31109D01*
X129317Y31089D01*
X129215Y31065D01*
X129114Y31038D01*
X129014Y31006D01*
X118854Y31006D02*
X118771Y31004D01*
X118688Y30998D01*
X118606Y30989D01*
X118524Y30975D01*
X118443Y30958D01*
X118363Y30937D01*
X118283Y30913D01*
X118205Y30885D01*
X118129Y30853D01*
X118053Y30818D01*
X117980Y30779D01*
X117909Y30737D01*
X117839Y30692D01*
X117772Y30643D01*
X117707Y30592D01*
X117644Y30537D01*
X117584Y30480D01*
X117527Y30420D01*
X117472Y30357D01*
X117421Y30292D01*
X117372Y30225D01*
X117327Y30155D01*
X117285Y30084D01*
X117246Y30011D01*
X117211Y29935D01*
X117179Y29859D01*
X117151Y29781D01*
X117127Y29702D01*
X117106Y29621D01*
X117089Y29540D01*
X117075Y29458D01*
X117066Y29376D01*
X117060Y29293D01*
X117058Y29210D01*
X117026Y29110D01*
X116999Y29009D01*
X116975Y28907D01*
X116955Y28804D01*
X116939Y28701D01*
X116926Y28596D01*
X116918Y28492D01*
X116913Y28387D01*
X116912Y28282D01*
X116915Y28178D01*
X116922Y28073D01*
X116933Y27969D01*
X116947Y27865D01*
X116966Y27762D01*
X116988Y27660D01*
X117014Y27558D01*
X117044Y27457D01*
X117077Y27358D01*
X117114Y27260D01*
X117155Y27163D01*
X117199Y27068D01*
X117246Y26975D01*
X117297Y26883D01*
X117352Y26794D01*
X117409Y26706D01*
X117470Y26621D01*
X117534Y26538D01*
X117601Y26457D01*
X117671Y26379D01*
X117744Y26304D01*
X117819Y26231D01*
X117897Y26161D01*
X117978Y26094D01*
X118061Y26030D01*
X118146Y25969D01*
X118234Y25912D01*
X118323Y25857D01*
X118415Y25806D01*
X118508Y25759D01*
X118603Y25715D01*
X118700Y25674D01*
X118798Y25637D01*
X118897Y25604D01*
X118998Y25574D01*
X119099Y25548D01*
X119202Y25526D01*
X119305Y25507D01*
X119409Y25493D01*
X119513Y25482D01*
X119618Y25475D01*
X119722Y25472D01*
X119827Y25473D01*
X119932Y25478D01*
X120036Y25486D01*
X120140Y25499D01*
X120244Y25515D01*
X120347Y25535D01*
X120449Y25559D01*
X120550Y25586D01*
X120650Y25618D01*
X120733Y25620D01*
X120816Y25626D01*
X120898Y25635D01*
X120980Y25649D01*
X121061Y25666D01*
X121141Y25687D01*
X121221Y25711D01*
X121299Y25739D01*
X121375Y25771D01*
X121451Y25806D01*
X121524Y25845D01*
X121595Y25887D01*
X121665Y25932D01*
X121732Y25981D01*
X121797Y26032D01*
X121860Y26087D01*
X121920Y26144D01*
X121977Y26204D01*
X122032Y26267D01*
X122083Y26332D01*
X122132Y26399D01*
X122177Y26469D01*
X122219Y26540D01*
X122258Y26613D01*
X122293Y26689D01*
X122325Y26765D01*
X122353Y26843D01*
X122377Y26923D01*
X122398Y27003D01*
X122415Y27084D01*
X122429Y27166D01*
X122438Y27248D01*
X122444Y27331D01*
X122446Y27414D01*
X122478Y27514D01*
X122505Y27615D01*
X122529Y27717D01*
X122549Y27820D01*
X122565Y27924D01*
X122578Y28028D01*
X122586Y28132D01*
X122591Y28237D01*
X122592Y28342D01*
X122589Y28446D01*
X122582Y28551D01*
X122571Y28655D01*
X122557Y28759D01*
X122538Y28862D01*
X122516Y28964D01*
X122490Y29066D01*
X122460Y29167D01*
X122427Y29266D01*
X122390Y29364D01*
X122349Y29461D01*
X122305Y29556D01*
X122258Y29649D01*
X122207Y29741D01*
X122152Y29830D01*
X122095Y29918D01*
X122034Y30003D01*
X121970Y30086D01*
X121903Y30167D01*
X121833Y30245D01*
X121760Y30320D01*
X121685Y30393D01*
X121607Y30463D01*
X121526Y30530D01*
X121443Y30594D01*
X121358Y30655D01*
X121270Y30712D01*
X121181Y30767D01*
X121089Y30818D01*
X120996Y30865D01*
X120901Y30909D01*
X120804Y30950D01*
X120706Y30987D01*
X120607Y31020D01*
X120506Y31050D01*
X120404Y31076D01*
X120302Y31098D01*
X120199Y31117D01*
X120095Y31131D01*
X119991Y31142D01*
X119886Y31149D01*
X119782Y31152D01*
X119677Y31151D01*
X119572Y31146D01*
X119468Y31138D01*
X119364Y31125D01*
X119260Y31109D01*
X119157Y31089D01*
X119055Y31065D01*
X118954Y31038D01*
X118854Y31006D01*
M02*
