G04 EAGLE Gerber RS-274X export*
G75*
%MOMM*%
%FSLAX34Y34*%
%LPD*%
%INSilkscreen Bottom*%
%IPPOS*%
%AMOC8*
5,1,8,0,0,1.08239X$1,22.5*%
G01*
%ADD10C,0.177800*%
%ADD11C,0.152400*%
%ADD12C,0.076200*%
%ADD13C,0.127000*%
%ADD14C,0.000000*%


D10*
X5969Y5969D02*
X16891Y5969D01*
X16891Y10823D01*
X12037Y10823D02*
X12037Y5969D01*
X10823Y15308D02*
X8396Y15308D01*
X10823Y15308D02*
X10921Y15310D01*
X11018Y15316D01*
X11116Y15326D01*
X11212Y15339D01*
X11308Y15357D01*
X11404Y15379D01*
X11498Y15404D01*
X11592Y15433D01*
X11684Y15466D01*
X11774Y15502D01*
X11863Y15542D01*
X11951Y15586D01*
X12036Y15633D01*
X12120Y15684D01*
X12202Y15738D01*
X12281Y15795D01*
X12358Y15855D01*
X12432Y15918D01*
X12504Y15985D01*
X12573Y16054D01*
X12640Y16126D01*
X12703Y16200D01*
X12763Y16277D01*
X12820Y16356D01*
X12874Y16438D01*
X12925Y16521D01*
X12972Y16607D01*
X13016Y16695D01*
X13056Y16784D01*
X13092Y16874D01*
X13125Y16966D01*
X13154Y17060D01*
X13179Y17154D01*
X13201Y17250D01*
X13219Y17346D01*
X13232Y17442D01*
X13242Y17540D01*
X13248Y17637D01*
X13250Y17735D01*
X13248Y17833D01*
X13242Y17930D01*
X13232Y18028D01*
X13219Y18124D01*
X13201Y18220D01*
X13179Y18316D01*
X13154Y18410D01*
X13125Y18504D01*
X13092Y18596D01*
X13056Y18686D01*
X13016Y18775D01*
X12972Y18863D01*
X12925Y18948D01*
X12874Y19032D01*
X12820Y19114D01*
X12763Y19193D01*
X12703Y19270D01*
X12640Y19344D01*
X12573Y19416D01*
X12504Y19485D01*
X12432Y19552D01*
X12358Y19615D01*
X12281Y19675D01*
X12202Y19732D01*
X12120Y19786D01*
X12037Y19837D01*
X11951Y19884D01*
X11863Y19928D01*
X11774Y19968D01*
X11684Y20004D01*
X11592Y20037D01*
X11498Y20066D01*
X11404Y20091D01*
X11308Y20113D01*
X11212Y20131D01*
X11116Y20144D01*
X11018Y20154D01*
X10921Y20160D01*
X10823Y20162D01*
X8396Y20162D01*
X8298Y20160D01*
X8201Y20154D01*
X8103Y20144D01*
X8007Y20131D01*
X7911Y20113D01*
X7815Y20091D01*
X7721Y20066D01*
X7627Y20037D01*
X7535Y20004D01*
X7445Y19968D01*
X7356Y19928D01*
X7268Y19884D01*
X7183Y19837D01*
X7099Y19786D01*
X7017Y19732D01*
X6938Y19675D01*
X6861Y19615D01*
X6787Y19552D01*
X6715Y19485D01*
X6646Y19416D01*
X6579Y19344D01*
X6516Y19270D01*
X6456Y19193D01*
X6399Y19114D01*
X6345Y19032D01*
X6294Y18949D01*
X6247Y18863D01*
X6203Y18775D01*
X6163Y18686D01*
X6127Y18596D01*
X6094Y18504D01*
X6065Y18410D01*
X6040Y18316D01*
X6018Y18220D01*
X6000Y18124D01*
X5987Y18028D01*
X5977Y17930D01*
X5971Y17833D01*
X5969Y17735D01*
X5971Y17637D01*
X5977Y17540D01*
X5987Y17442D01*
X6000Y17346D01*
X6018Y17250D01*
X6040Y17154D01*
X6065Y17060D01*
X6094Y16966D01*
X6127Y16874D01*
X6163Y16784D01*
X6203Y16695D01*
X6247Y16607D01*
X6294Y16522D01*
X6345Y16438D01*
X6399Y16356D01*
X6456Y16277D01*
X6516Y16200D01*
X6579Y16126D01*
X6646Y16054D01*
X6715Y15985D01*
X6787Y15918D01*
X6861Y15855D01*
X6938Y15795D01*
X7017Y15738D01*
X7099Y15684D01*
X7182Y15633D01*
X7268Y15586D01*
X7356Y15542D01*
X7445Y15502D01*
X7535Y15466D01*
X7627Y15433D01*
X7721Y15404D01*
X7815Y15379D01*
X7911Y15357D01*
X8007Y15339D01*
X8103Y15326D01*
X8201Y15316D01*
X8298Y15310D01*
X8396Y15308D01*
X5969Y25686D02*
X13250Y25686D01*
X13250Y29327D01*
X12037Y29327D01*
X16891Y39773D02*
X5969Y39773D01*
X5969Y42806D01*
X5971Y42890D01*
X5977Y42974D01*
X5986Y43057D01*
X6000Y43140D01*
X6017Y43223D01*
X6038Y43304D01*
X6063Y43384D01*
X6092Y43463D01*
X6124Y43541D01*
X6160Y43617D01*
X6199Y43692D01*
X6242Y43764D01*
X6287Y43835D01*
X6337Y43903D01*
X6389Y43969D01*
X6444Y44032D01*
X6502Y44093D01*
X6563Y44151D01*
X6626Y44206D01*
X6692Y44258D01*
X6760Y44307D01*
X6831Y44353D01*
X6903Y44396D01*
X6978Y44435D01*
X7054Y44471D01*
X7132Y44503D01*
X7211Y44532D01*
X7291Y44557D01*
X7372Y44578D01*
X7455Y44595D01*
X7538Y44609D01*
X7621Y44618D01*
X7705Y44624D01*
X7789Y44626D01*
X7789Y44627D02*
X11430Y44627D01*
X11430Y44626D02*
X11514Y44624D01*
X11598Y44618D01*
X11681Y44609D01*
X11764Y44595D01*
X11847Y44578D01*
X11928Y44557D01*
X12008Y44532D01*
X12087Y44503D01*
X12165Y44471D01*
X12241Y44435D01*
X12316Y44396D01*
X12388Y44353D01*
X12459Y44307D01*
X12527Y44258D01*
X12593Y44206D01*
X12656Y44151D01*
X12717Y44093D01*
X12775Y44032D01*
X12830Y43969D01*
X12882Y43903D01*
X12931Y43835D01*
X12977Y43764D01*
X13020Y43692D01*
X13059Y43617D01*
X13095Y43541D01*
X13127Y43463D01*
X13156Y43384D01*
X13181Y43304D01*
X13202Y43223D01*
X13219Y43140D01*
X13233Y43057D01*
X13242Y42974D01*
X13248Y42890D01*
X13250Y42806D01*
X13250Y39773D01*
X5969Y51418D02*
X5969Y54452D01*
X5969Y51418D02*
X5971Y51334D01*
X5977Y51250D01*
X5986Y51167D01*
X6000Y51084D01*
X6017Y51001D01*
X6038Y50920D01*
X6063Y50840D01*
X6092Y50761D01*
X6124Y50683D01*
X6160Y50607D01*
X6199Y50532D01*
X6242Y50460D01*
X6288Y50389D01*
X6337Y50321D01*
X6389Y50255D01*
X6444Y50192D01*
X6502Y50131D01*
X6563Y50073D01*
X6626Y50018D01*
X6692Y49966D01*
X6760Y49917D01*
X6831Y49871D01*
X6903Y49828D01*
X6978Y49789D01*
X7054Y49753D01*
X7132Y49721D01*
X7211Y49692D01*
X7291Y49667D01*
X7372Y49646D01*
X7455Y49629D01*
X7538Y49615D01*
X7621Y49606D01*
X7705Y49600D01*
X7789Y49598D01*
X10823Y49598D01*
X10921Y49600D01*
X11018Y49606D01*
X11116Y49616D01*
X11212Y49629D01*
X11308Y49647D01*
X11404Y49669D01*
X11498Y49694D01*
X11592Y49723D01*
X11684Y49756D01*
X11774Y49792D01*
X11863Y49832D01*
X11951Y49876D01*
X12036Y49923D01*
X12120Y49974D01*
X12202Y50028D01*
X12281Y50085D01*
X12358Y50145D01*
X12432Y50208D01*
X12504Y50275D01*
X12573Y50344D01*
X12640Y50416D01*
X12703Y50490D01*
X12763Y50567D01*
X12820Y50646D01*
X12874Y50728D01*
X12925Y50811D01*
X12972Y50897D01*
X13016Y50985D01*
X13056Y51074D01*
X13092Y51164D01*
X13125Y51256D01*
X13154Y51350D01*
X13179Y51444D01*
X13201Y51540D01*
X13219Y51636D01*
X13232Y51732D01*
X13242Y51830D01*
X13248Y51927D01*
X13250Y52025D01*
X13248Y52123D01*
X13242Y52220D01*
X13232Y52318D01*
X13219Y52414D01*
X13201Y52510D01*
X13179Y52606D01*
X13154Y52700D01*
X13125Y52794D01*
X13092Y52886D01*
X13056Y52976D01*
X13016Y53065D01*
X12972Y53153D01*
X12925Y53238D01*
X12874Y53322D01*
X12820Y53404D01*
X12763Y53483D01*
X12703Y53560D01*
X12640Y53634D01*
X12573Y53706D01*
X12504Y53775D01*
X12432Y53842D01*
X12358Y53905D01*
X12281Y53965D01*
X12202Y54022D01*
X12120Y54076D01*
X12037Y54127D01*
X11951Y54174D01*
X11863Y54218D01*
X11774Y54258D01*
X11684Y54294D01*
X11592Y54327D01*
X11498Y54356D01*
X11404Y54381D01*
X11308Y54403D01*
X11212Y54421D01*
X11116Y54434D01*
X11018Y54444D01*
X10921Y54450D01*
X10823Y54452D01*
X9610Y54452D01*
X9610Y49598D01*
X10216Y60414D02*
X9003Y63448D01*
X10217Y60414D02*
X10247Y60342D01*
X10281Y60272D01*
X10319Y60204D01*
X10360Y60138D01*
X10404Y60073D01*
X10452Y60012D01*
X10502Y59952D01*
X10555Y59895D01*
X10611Y59841D01*
X10670Y59790D01*
X10731Y59741D01*
X10795Y59696D01*
X10860Y59654D01*
X10928Y59615D01*
X10997Y59579D01*
X11068Y59548D01*
X11141Y59519D01*
X11215Y59494D01*
X11290Y59473D01*
X11366Y59456D01*
X11443Y59443D01*
X11520Y59433D01*
X11598Y59427D01*
X11676Y59425D01*
X11754Y59427D01*
X11831Y59433D01*
X11909Y59442D01*
X11985Y59456D01*
X12062Y59473D01*
X12137Y59494D01*
X12211Y59518D01*
X12283Y59547D01*
X12354Y59578D01*
X12424Y59614D01*
X12492Y59652D01*
X12557Y59694D01*
X12621Y59740D01*
X12682Y59788D01*
X12741Y59839D01*
X12797Y59893D01*
X12850Y59950D01*
X12901Y60009D01*
X12948Y60071D01*
X12992Y60135D01*
X13033Y60202D01*
X13071Y60270D01*
X13106Y60340D01*
X13137Y60411D01*
X13164Y60484D01*
X13187Y60559D01*
X13207Y60634D01*
X13223Y60710D01*
X13236Y60787D01*
X13244Y60865D01*
X13249Y60943D01*
X13250Y61020D01*
X13251Y61020D02*
X13247Y61186D01*
X13239Y61352D01*
X13226Y61517D01*
X13210Y61682D01*
X13190Y61846D01*
X13166Y62010D01*
X13137Y62173D01*
X13105Y62336D01*
X13069Y62498D01*
X13030Y62658D01*
X12986Y62818D01*
X12938Y62977D01*
X12887Y63135D01*
X12832Y63291D01*
X12773Y63446D01*
X12711Y63599D01*
X12644Y63751D01*
X9002Y63447D02*
X8972Y63519D01*
X8938Y63589D01*
X8900Y63657D01*
X8859Y63723D01*
X8815Y63788D01*
X8767Y63849D01*
X8717Y63909D01*
X8664Y63966D01*
X8608Y64020D01*
X8549Y64071D01*
X8488Y64120D01*
X8424Y64165D01*
X8359Y64207D01*
X8291Y64246D01*
X8222Y64282D01*
X8151Y64313D01*
X8078Y64342D01*
X8004Y64367D01*
X7929Y64388D01*
X7853Y64405D01*
X7776Y64418D01*
X7699Y64428D01*
X7621Y64434D01*
X7543Y64436D01*
X7465Y64434D01*
X7388Y64428D01*
X7310Y64419D01*
X7234Y64405D01*
X7157Y64388D01*
X7082Y64367D01*
X7008Y64343D01*
X6936Y64314D01*
X6865Y64283D01*
X6795Y64247D01*
X6727Y64209D01*
X6662Y64167D01*
X6598Y64121D01*
X6537Y64073D01*
X6478Y64022D01*
X6422Y63968D01*
X6369Y63911D01*
X6318Y63852D01*
X6271Y63790D01*
X6227Y63726D01*
X6186Y63659D01*
X6148Y63591D01*
X6113Y63521D01*
X6082Y63450D01*
X6055Y63377D01*
X6032Y63302D01*
X6012Y63227D01*
X5996Y63151D01*
X5983Y63074D01*
X5975Y62996D01*
X5970Y62918D01*
X5969Y62841D01*
X5975Y62598D01*
X5988Y62355D01*
X6005Y62112D01*
X6029Y61870D01*
X6058Y61628D01*
X6093Y61387D01*
X6134Y61147D01*
X6180Y60908D01*
X6232Y60670D01*
X6290Y60434D01*
X6353Y60199D01*
X6422Y59965D01*
X6496Y59734D01*
X6576Y59504D01*
X13250Y68365D02*
X13250Y72006D01*
X16891Y69579D02*
X7789Y69579D01*
X7705Y69581D01*
X7621Y69587D01*
X7538Y69596D01*
X7455Y69610D01*
X7372Y69627D01*
X7291Y69648D01*
X7211Y69673D01*
X7132Y69702D01*
X7054Y69734D01*
X6978Y69770D01*
X6903Y69809D01*
X6831Y69852D01*
X6760Y69898D01*
X6692Y69947D01*
X6626Y69999D01*
X6563Y70054D01*
X6502Y70112D01*
X6444Y70173D01*
X6389Y70236D01*
X6337Y70302D01*
X6287Y70370D01*
X6242Y70441D01*
X6199Y70513D01*
X6160Y70588D01*
X6124Y70664D01*
X6092Y70742D01*
X6063Y70821D01*
X6038Y70901D01*
X6017Y70982D01*
X6000Y71065D01*
X5986Y71148D01*
X5977Y71231D01*
X5971Y71315D01*
X5969Y71399D01*
X5969Y72006D01*
X5969Y83217D02*
X13250Y83217D01*
X13250Y86857D01*
X12037Y86857D01*
X5969Y92566D02*
X5969Y95600D01*
X5969Y92566D02*
X5971Y92482D01*
X5977Y92398D01*
X5986Y92315D01*
X6000Y92232D01*
X6017Y92149D01*
X6038Y92068D01*
X6063Y91988D01*
X6092Y91909D01*
X6124Y91831D01*
X6160Y91755D01*
X6199Y91680D01*
X6242Y91608D01*
X6288Y91537D01*
X6337Y91469D01*
X6389Y91403D01*
X6444Y91340D01*
X6502Y91279D01*
X6563Y91221D01*
X6626Y91166D01*
X6692Y91114D01*
X6760Y91065D01*
X6831Y91019D01*
X6903Y90976D01*
X6978Y90937D01*
X7054Y90901D01*
X7132Y90869D01*
X7211Y90840D01*
X7291Y90815D01*
X7372Y90794D01*
X7455Y90777D01*
X7538Y90763D01*
X7621Y90754D01*
X7705Y90748D01*
X7789Y90746D01*
X7789Y90745D02*
X10823Y90745D01*
X10823Y90746D02*
X10921Y90748D01*
X11018Y90754D01*
X11116Y90764D01*
X11212Y90777D01*
X11308Y90795D01*
X11404Y90817D01*
X11498Y90842D01*
X11592Y90871D01*
X11684Y90904D01*
X11774Y90940D01*
X11863Y90980D01*
X11951Y91024D01*
X12036Y91071D01*
X12120Y91122D01*
X12202Y91176D01*
X12281Y91233D01*
X12358Y91293D01*
X12432Y91356D01*
X12504Y91423D01*
X12573Y91492D01*
X12640Y91564D01*
X12703Y91638D01*
X12763Y91715D01*
X12820Y91794D01*
X12874Y91876D01*
X12925Y91959D01*
X12972Y92045D01*
X13016Y92133D01*
X13056Y92222D01*
X13092Y92312D01*
X13125Y92404D01*
X13154Y92498D01*
X13179Y92592D01*
X13201Y92688D01*
X13219Y92784D01*
X13232Y92880D01*
X13242Y92978D01*
X13248Y93075D01*
X13250Y93173D01*
X13248Y93271D01*
X13242Y93368D01*
X13232Y93466D01*
X13219Y93562D01*
X13201Y93658D01*
X13179Y93754D01*
X13154Y93848D01*
X13125Y93942D01*
X13092Y94034D01*
X13056Y94124D01*
X13016Y94213D01*
X12972Y94301D01*
X12925Y94386D01*
X12874Y94470D01*
X12820Y94552D01*
X12763Y94631D01*
X12703Y94708D01*
X12640Y94782D01*
X12573Y94854D01*
X12504Y94923D01*
X12432Y94990D01*
X12358Y95053D01*
X12281Y95113D01*
X12202Y95170D01*
X12120Y95224D01*
X12037Y95275D01*
X11951Y95322D01*
X11863Y95366D01*
X11774Y95406D01*
X11684Y95442D01*
X11592Y95475D01*
X11498Y95504D01*
X11404Y95529D01*
X11308Y95551D01*
X11212Y95569D01*
X11116Y95582D01*
X11018Y95592D01*
X10921Y95598D01*
X10823Y95600D01*
X9610Y95600D01*
X9610Y90745D01*
X10216Y101562D02*
X9003Y104595D01*
X10217Y101562D02*
X10247Y101490D01*
X10281Y101420D01*
X10319Y101352D01*
X10360Y101286D01*
X10404Y101221D01*
X10452Y101160D01*
X10502Y101100D01*
X10555Y101043D01*
X10611Y100989D01*
X10670Y100938D01*
X10731Y100889D01*
X10795Y100844D01*
X10860Y100802D01*
X10928Y100763D01*
X10997Y100727D01*
X11068Y100696D01*
X11141Y100667D01*
X11215Y100642D01*
X11290Y100621D01*
X11366Y100604D01*
X11443Y100591D01*
X11520Y100581D01*
X11598Y100575D01*
X11676Y100573D01*
X11754Y100575D01*
X11831Y100581D01*
X11909Y100590D01*
X11985Y100604D01*
X12062Y100621D01*
X12137Y100642D01*
X12211Y100666D01*
X12283Y100695D01*
X12354Y100726D01*
X12424Y100762D01*
X12492Y100800D01*
X12557Y100842D01*
X12621Y100888D01*
X12682Y100936D01*
X12741Y100987D01*
X12797Y101041D01*
X12850Y101098D01*
X12901Y101157D01*
X12948Y101219D01*
X12992Y101283D01*
X13033Y101350D01*
X13071Y101418D01*
X13106Y101488D01*
X13137Y101559D01*
X13164Y101632D01*
X13187Y101707D01*
X13207Y101782D01*
X13223Y101858D01*
X13236Y101935D01*
X13244Y102013D01*
X13249Y102091D01*
X13250Y102168D01*
X13251Y102168D02*
X13247Y102334D01*
X13239Y102500D01*
X13226Y102665D01*
X13210Y102830D01*
X13190Y102994D01*
X13166Y103158D01*
X13137Y103321D01*
X13105Y103484D01*
X13069Y103646D01*
X13030Y103806D01*
X12986Y103966D01*
X12938Y104125D01*
X12887Y104283D01*
X12832Y104439D01*
X12773Y104594D01*
X12711Y104747D01*
X12644Y104899D01*
X9002Y104595D02*
X8972Y104667D01*
X8938Y104737D01*
X8900Y104805D01*
X8859Y104871D01*
X8815Y104936D01*
X8767Y104997D01*
X8717Y105057D01*
X8664Y105114D01*
X8608Y105168D01*
X8549Y105219D01*
X8488Y105268D01*
X8424Y105313D01*
X8359Y105355D01*
X8291Y105394D01*
X8222Y105430D01*
X8151Y105461D01*
X8078Y105490D01*
X8004Y105515D01*
X7929Y105536D01*
X7853Y105553D01*
X7776Y105566D01*
X7699Y105576D01*
X7621Y105582D01*
X7543Y105584D01*
X7465Y105582D01*
X7388Y105576D01*
X7310Y105567D01*
X7234Y105553D01*
X7157Y105536D01*
X7082Y105515D01*
X7008Y105491D01*
X6936Y105462D01*
X6865Y105431D01*
X6795Y105395D01*
X6727Y105357D01*
X6662Y105315D01*
X6598Y105269D01*
X6537Y105221D01*
X6478Y105170D01*
X6422Y105116D01*
X6369Y105059D01*
X6318Y105000D01*
X6271Y104938D01*
X6227Y104874D01*
X6186Y104807D01*
X6148Y104739D01*
X6113Y104669D01*
X6082Y104598D01*
X6055Y104525D01*
X6032Y104450D01*
X6012Y104375D01*
X5996Y104299D01*
X5983Y104222D01*
X5975Y104144D01*
X5970Y104066D01*
X5969Y103989D01*
X5975Y103746D01*
X5988Y103503D01*
X6005Y103260D01*
X6029Y103018D01*
X6058Y102776D01*
X6093Y102535D01*
X6134Y102295D01*
X6180Y102056D01*
X6232Y101818D01*
X6290Y101582D01*
X6353Y101347D01*
X6422Y101113D01*
X6496Y100882D01*
X6576Y100652D01*
X7789Y110938D02*
X13250Y110938D01*
X7789Y110939D02*
X7705Y110941D01*
X7621Y110947D01*
X7538Y110956D01*
X7455Y110970D01*
X7372Y110987D01*
X7291Y111008D01*
X7211Y111033D01*
X7132Y111062D01*
X7054Y111094D01*
X6978Y111130D01*
X6903Y111169D01*
X6831Y111212D01*
X6760Y111258D01*
X6692Y111307D01*
X6626Y111359D01*
X6563Y111414D01*
X6502Y111472D01*
X6444Y111533D01*
X6389Y111596D01*
X6337Y111662D01*
X6288Y111730D01*
X6242Y111801D01*
X6199Y111873D01*
X6160Y111948D01*
X6124Y112024D01*
X6092Y112102D01*
X6063Y112181D01*
X6038Y112261D01*
X6017Y112342D01*
X6000Y112425D01*
X5986Y112508D01*
X5977Y112591D01*
X5971Y112675D01*
X5969Y112759D01*
X5969Y115793D01*
X13250Y115793D01*
X16891Y121288D02*
X7789Y121288D01*
X7789Y121289D02*
X7705Y121291D01*
X7621Y121297D01*
X7538Y121306D01*
X7455Y121320D01*
X7372Y121337D01*
X7291Y121358D01*
X7211Y121383D01*
X7132Y121412D01*
X7054Y121444D01*
X6978Y121480D01*
X6903Y121519D01*
X6831Y121562D01*
X6760Y121608D01*
X6692Y121657D01*
X6626Y121709D01*
X6563Y121764D01*
X6502Y121822D01*
X6444Y121883D01*
X6389Y121946D01*
X6337Y122012D01*
X6288Y122080D01*
X6242Y122151D01*
X6199Y122223D01*
X6160Y122298D01*
X6124Y122374D01*
X6092Y122452D01*
X6063Y122531D01*
X6038Y122611D01*
X6017Y122692D01*
X6000Y122775D01*
X5986Y122858D01*
X5977Y122941D01*
X5971Y123025D01*
X5969Y123109D01*
X13250Y126277D02*
X13250Y129918D01*
X16891Y127491D02*
X7789Y127491D01*
X7705Y127493D01*
X7621Y127499D01*
X7538Y127508D01*
X7455Y127522D01*
X7372Y127539D01*
X7291Y127560D01*
X7211Y127585D01*
X7132Y127614D01*
X7054Y127646D01*
X6978Y127682D01*
X6903Y127721D01*
X6831Y127764D01*
X6760Y127810D01*
X6692Y127859D01*
X6626Y127911D01*
X6563Y127966D01*
X6502Y128024D01*
X6444Y128085D01*
X6389Y128148D01*
X6337Y128214D01*
X6287Y128282D01*
X6242Y128353D01*
X6199Y128425D01*
X6160Y128500D01*
X6124Y128576D01*
X6092Y128654D01*
X6063Y128733D01*
X6038Y128813D01*
X6017Y128894D01*
X6000Y128977D01*
X5986Y129060D01*
X5977Y129143D01*
X5971Y129227D01*
X5969Y129311D01*
X5969Y129918D01*
X10216Y135470D02*
X9003Y138504D01*
X10217Y135471D02*
X10247Y135399D01*
X10281Y135329D01*
X10319Y135261D01*
X10360Y135195D01*
X10404Y135130D01*
X10452Y135069D01*
X10502Y135009D01*
X10555Y134952D01*
X10611Y134898D01*
X10670Y134847D01*
X10731Y134798D01*
X10795Y134753D01*
X10860Y134711D01*
X10928Y134672D01*
X10997Y134636D01*
X11068Y134605D01*
X11141Y134576D01*
X11215Y134551D01*
X11290Y134530D01*
X11366Y134513D01*
X11443Y134500D01*
X11520Y134490D01*
X11598Y134484D01*
X11676Y134482D01*
X11754Y134484D01*
X11831Y134490D01*
X11909Y134499D01*
X11985Y134513D01*
X12062Y134530D01*
X12137Y134551D01*
X12211Y134575D01*
X12283Y134604D01*
X12354Y134635D01*
X12424Y134671D01*
X12492Y134709D01*
X12557Y134751D01*
X12621Y134797D01*
X12682Y134845D01*
X12741Y134896D01*
X12797Y134950D01*
X12850Y135007D01*
X12901Y135066D01*
X12948Y135128D01*
X12992Y135192D01*
X13033Y135259D01*
X13071Y135327D01*
X13106Y135397D01*
X13137Y135468D01*
X13164Y135541D01*
X13187Y135616D01*
X13207Y135691D01*
X13223Y135767D01*
X13236Y135844D01*
X13244Y135922D01*
X13249Y136000D01*
X13250Y136077D01*
X13251Y136077D02*
X13247Y136243D01*
X13239Y136409D01*
X13226Y136574D01*
X13210Y136739D01*
X13190Y136903D01*
X13166Y137067D01*
X13137Y137230D01*
X13105Y137393D01*
X13069Y137555D01*
X13030Y137715D01*
X12986Y137875D01*
X12938Y138034D01*
X12887Y138192D01*
X12832Y138348D01*
X12773Y138503D01*
X12711Y138656D01*
X12644Y138808D01*
X9002Y138504D02*
X8972Y138576D01*
X8938Y138646D01*
X8900Y138714D01*
X8859Y138780D01*
X8815Y138845D01*
X8767Y138906D01*
X8717Y138966D01*
X8664Y139023D01*
X8608Y139077D01*
X8549Y139128D01*
X8488Y139177D01*
X8424Y139222D01*
X8359Y139264D01*
X8291Y139303D01*
X8222Y139339D01*
X8151Y139370D01*
X8078Y139399D01*
X8004Y139424D01*
X7929Y139445D01*
X7853Y139462D01*
X7776Y139475D01*
X7699Y139485D01*
X7621Y139491D01*
X7543Y139493D01*
X7465Y139491D01*
X7388Y139485D01*
X7310Y139476D01*
X7234Y139462D01*
X7157Y139445D01*
X7082Y139424D01*
X7008Y139400D01*
X6936Y139371D01*
X6865Y139340D01*
X6795Y139304D01*
X6727Y139266D01*
X6662Y139224D01*
X6598Y139178D01*
X6537Y139130D01*
X6478Y139079D01*
X6422Y139025D01*
X6369Y138968D01*
X6318Y138909D01*
X6271Y138847D01*
X6227Y138783D01*
X6186Y138716D01*
X6148Y138648D01*
X6113Y138578D01*
X6082Y138507D01*
X6055Y138434D01*
X6032Y138359D01*
X6012Y138284D01*
X5996Y138208D01*
X5983Y138131D01*
X5975Y138053D01*
X5970Y137975D01*
X5969Y137898D01*
X5975Y137655D01*
X5988Y137412D01*
X6005Y137169D01*
X6029Y136927D01*
X6058Y136685D01*
X6093Y136444D01*
X6134Y136204D01*
X6180Y135965D01*
X6232Y135727D01*
X6290Y135491D01*
X6353Y135256D01*
X6422Y135022D01*
X6496Y134791D01*
X6576Y134561D01*
X5969Y143864D02*
X5969Y144470D01*
X5969Y143864D02*
X6576Y143864D01*
X6576Y144470D01*
X5969Y144470D01*
X3542Y143560D01*
X7789Y155515D02*
X13250Y155515D01*
X7789Y155516D02*
X7705Y155518D01*
X7621Y155524D01*
X7538Y155533D01*
X7455Y155547D01*
X7372Y155564D01*
X7291Y155585D01*
X7211Y155610D01*
X7132Y155639D01*
X7054Y155671D01*
X6978Y155707D01*
X6903Y155746D01*
X6831Y155789D01*
X6760Y155835D01*
X6692Y155884D01*
X6626Y155936D01*
X6563Y155991D01*
X6502Y156049D01*
X6444Y156110D01*
X6389Y156173D01*
X6337Y156239D01*
X6288Y156307D01*
X6242Y156378D01*
X6199Y156450D01*
X6160Y156525D01*
X6124Y156601D01*
X6092Y156679D01*
X6063Y156758D01*
X6038Y156838D01*
X6017Y156919D01*
X6000Y157002D01*
X5986Y157085D01*
X5977Y157168D01*
X5971Y157252D01*
X5969Y157336D01*
X5969Y160369D01*
X13250Y160369D01*
X10216Y166712D02*
X9003Y169746D01*
X10217Y166713D02*
X10247Y166641D01*
X10281Y166571D01*
X10319Y166503D01*
X10360Y166437D01*
X10404Y166372D01*
X10452Y166311D01*
X10502Y166251D01*
X10555Y166194D01*
X10611Y166140D01*
X10670Y166089D01*
X10731Y166040D01*
X10795Y165995D01*
X10860Y165953D01*
X10928Y165914D01*
X10997Y165878D01*
X11068Y165847D01*
X11141Y165818D01*
X11215Y165793D01*
X11290Y165772D01*
X11366Y165755D01*
X11443Y165742D01*
X11520Y165732D01*
X11598Y165726D01*
X11676Y165724D01*
X11754Y165726D01*
X11831Y165732D01*
X11909Y165741D01*
X11985Y165755D01*
X12062Y165772D01*
X12137Y165793D01*
X12211Y165817D01*
X12283Y165846D01*
X12354Y165877D01*
X12424Y165913D01*
X12492Y165951D01*
X12557Y165993D01*
X12621Y166039D01*
X12682Y166087D01*
X12741Y166138D01*
X12797Y166192D01*
X12850Y166249D01*
X12901Y166308D01*
X12948Y166370D01*
X12992Y166434D01*
X13033Y166501D01*
X13071Y166569D01*
X13106Y166639D01*
X13137Y166710D01*
X13164Y166783D01*
X13187Y166858D01*
X13207Y166933D01*
X13223Y167009D01*
X13236Y167086D01*
X13244Y167164D01*
X13249Y167242D01*
X13250Y167319D01*
X13251Y167319D02*
X13247Y167485D01*
X13239Y167651D01*
X13226Y167816D01*
X13210Y167981D01*
X13190Y168145D01*
X13166Y168309D01*
X13137Y168472D01*
X13105Y168635D01*
X13069Y168797D01*
X13030Y168957D01*
X12986Y169117D01*
X12938Y169276D01*
X12887Y169434D01*
X12832Y169590D01*
X12773Y169745D01*
X12711Y169898D01*
X12644Y170050D01*
X9002Y169746D02*
X8972Y169818D01*
X8938Y169888D01*
X8900Y169956D01*
X8859Y170022D01*
X8815Y170087D01*
X8767Y170148D01*
X8717Y170208D01*
X8664Y170265D01*
X8608Y170319D01*
X8549Y170370D01*
X8488Y170419D01*
X8424Y170464D01*
X8359Y170506D01*
X8291Y170545D01*
X8222Y170581D01*
X8151Y170612D01*
X8078Y170641D01*
X8004Y170666D01*
X7929Y170687D01*
X7853Y170704D01*
X7776Y170717D01*
X7699Y170727D01*
X7621Y170733D01*
X7543Y170735D01*
X7465Y170733D01*
X7388Y170727D01*
X7310Y170718D01*
X7234Y170704D01*
X7157Y170687D01*
X7082Y170666D01*
X7008Y170642D01*
X6936Y170613D01*
X6865Y170582D01*
X6795Y170546D01*
X6727Y170508D01*
X6662Y170466D01*
X6598Y170420D01*
X6537Y170372D01*
X6478Y170321D01*
X6422Y170267D01*
X6369Y170210D01*
X6318Y170151D01*
X6271Y170089D01*
X6227Y170025D01*
X6186Y169958D01*
X6148Y169890D01*
X6113Y169820D01*
X6082Y169749D01*
X6055Y169676D01*
X6032Y169601D01*
X6012Y169526D01*
X5996Y169450D01*
X5983Y169373D01*
X5975Y169295D01*
X5970Y169217D01*
X5969Y169140D01*
X5969Y169139D02*
X5975Y168896D01*
X5988Y168653D01*
X6005Y168410D01*
X6029Y168168D01*
X6058Y167926D01*
X6093Y167685D01*
X6134Y167445D01*
X6180Y167206D01*
X6232Y166968D01*
X6290Y166732D01*
X6353Y166497D01*
X6422Y166263D01*
X6496Y166032D01*
X6576Y165802D01*
X5969Y177529D02*
X5969Y180562D01*
X5969Y177529D02*
X5971Y177445D01*
X5977Y177361D01*
X5986Y177278D01*
X6000Y177195D01*
X6017Y177112D01*
X6038Y177031D01*
X6063Y176951D01*
X6092Y176872D01*
X6124Y176794D01*
X6160Y176718D01*
X6199Y176643D01*
X6242Y176571D01*
X6288Y176500D01*
X6337Y176432D01*
X6389Y176366D01*
X6444Y176303D01*
X6502Y176242D01*
X6563Y176184D01*
X6626Y176129D01*
X6692Y176077D01*
X6760Y176028D01*
X6831Y175982D01*
X6903Y175939D01*
X6978Y175900D01*
X7054Y175864D01*
X7132Y175832D01*
X7211Y175803D01*
X7291Y175778D01*
X7372Y175757D01*
X7455Y175740D01*
X7538Y175726D01*
X7621Y175717D01*
X7705Y175711D01*
X7789Y175709D01*
X7789Y175708D02*
X10823Y175708D01*
X10921Y175710D01*
X11018Y175716D01*
X11116Y175726D01*
X11212Y175739D01*
X11308Y175757D01*
X11404Y175779D01*
X11498Y175804D01*
X11592Y175833D01*
X11684Y175866D01*
X11774Y175902D01*
X11863Y175942D01*
X11951Y175986D01*
X12036Y176033D01*
X12120Y176084D01*
X12202Y176138D01*
X12281Y176195D01*
X12358Y176255D01*
X12432Y176318D01*
X12504Y176385D01*
X12573Y176454D01*
X12640Y176526D01*
X12703Y176600D01*
X12763Y176677D01*
X12820Y176756D01*
X12874Y176838D01*
X12925Y176922D01*
X12972Y177007D01*
X13016Y177095D01*
X13056Y177184D01*
X13092Y177274D01*
X13125Y177366D01*
X13154Y177460D01*
X13179Y177554D01*
X13201Y177650D01*
X13219Y177746D01*
X13232Y177842D01*
X13242Y177940D01*
X13248Y178037D01*
X13250Y178135D01*
X13248Y178233D01*
X13242Y178330D01*
X13232Y178428D01*
X13219Y178524D01*
X13201Y178620D01*
X13179Y178716D01*
X13154Y178810D01*
X13125Y178904D01*
X13092Y178996D01*
X13056Y179086D01*
X13016Y179175D01*
X12972Y179263D01*
X12925Y179348D01*
X12874Y179432D01*
X12820Y179514D01*
X12763Y179593D01*
X12703Y179670D01*
X12640Y179744D01*
X12573Y179816D01*
X12504Y179885D01*
X12432Y179952D01*
X12358Y180015D01*
X12281Y180075D01*
X12202Y180132D01*
X12120Y180186D01*
X12037Y180237D01*
X11951Y180284D01*
X11863Y180328D01*
X11774Y180368D01*
X11684Y180404D01*
X11592Y180437D01*
X11498Y180466D01*
X11404Y180491D01*
X11308Y180513D01*
X11212Y180531D01*
X11116Y180544D01*
X11018Y180554D01*
X10921Y180560D01*
X10823Y180562D01*
X9610Y180562D01*
X9610Y175708D01*
X8396Y191710D02*
X10823Y191710D01*
X10921Y191712D01*
X11018Y191718D01*
X11116Y191728D01*
X11212Y191741D01*
X11308Y191759D01*
X11404Y191781D01*
X11498Y191806D01*
X11592Y191835D01*
X11684Y191868D01*
X11774Y191904D01*
X11863Y191944D01*
X11951Y191988D01*
X12036Y192035D01*
X12120Y192086D01*
X12202Y192140D01*
X12281Y192197D01*
X12358Y192257D01*
X12432Y192320D01*
X12504Y192387D01*
X12573Y192456D01*
X12640Y192528D01*
X12703Y192602D01*
X12763Y192679D01*
X12820Y192758D01*
X12874Y192840D01*
X12925Y192924D01*
X12972Y193009D01*
X13016Y193097D01*
X13056Y193186D01*
X13092Y193276D01*
X13125Y193368D01*
X13154Y193462D01*
X13179Y193556D01*
X13201Y193652D01*
X13219Y193748D01*
X13232Y193844D01*
X13242Y193942D01*
X13248Y194039D01*
X13250Y194137D01*
X13248Y194235D01*
X13242Y194332D01*
X13232Y194430D01*
X13219Y194526D01*
X13201Y194622D01*
X13179Y194718D01*
X13154Y194812D01*
X13125Y194906D01*
X13092Y194998D01*
X13056Y195088D01*
X13016Y195177D01*
X12972Y195265D01*
X12925Y195350D01*
X12874Y195434D01*
X12820Y195516D01*
X12763Y195595D01*
X12703Y195672D01*
X12640Y195746D01*
X12573Y195818D01*
X12504Y195887D01*
X12432Y195954D01*
X12358Y196017D01*
X12281Y196077D01*
X12202Y196134D01*
X12120Y196188D01*
X12037Y196239D01*
X11951Y196286D01*
X11863Y196330D01*
X11774Y196370D01*
X11684Y196406D01*
X11592Y196439D01*
X11498Y196468D01*
X11404Y196493D01*
X11308Y196515D01*
X11212Y196533D01*
X11116Y196546D01*
X11018Y196556D01*
X10921Y196562D01*
X10823Y196564D01*
X8396Y196564D01*
X8298Y196562D01*
X8201Y196556D01*
X8103Y196546D01*
X8007Y196533D01*
X7911Y196515D01*
X7815Y196493D01*
X7721Y196468D01*
X7627Y196439D01*
X7535Y196406D01*
X7445Y196370D01*
X7356Y196330D01*
X7268Y196286D01*
X7183Y196239D01*
X7099Y196188D01*
X7017Y196134D01*
X6938Y196077D01*
X6861Y196017D01*
X6787Y195954D01*
X6715Y195887D01*
X6646Y195818D01*
X6579Y195746D01*
X6516Y195672D01*
X6456Y195595D01*
X6399Y195516D01*
X6345Y195434D01*
X6294Y195351D01*
X6247Y195265D01*
X6203Y195177D01*
X6163Y195088D01*
X6127Y194998D01*
X6094Y194906D01*
X6065Y194812D01*
X6040Y194718D01*
X6018Y194622D01*
X6000Y194526D01*
X5987Y194430D01*
X5977Y194332D01*
X5971Y194235D01*
X5969Y194137D01*
X5971Y194039D01*
X5977Y193942D01*
X5987Y193844D01*
X6000Y193748D01*
X6018Y193652D01*
X6040Y193556D01*
X6065Y193462D01*
X6094Y193368D01*
X6127Y193276D01*
X6163Y193186D01*
X6203Y193097D01*
X6247Y193009D01*
X6294Y192924D01*
X6345Y192840D01*
X6399Y192758D01*
X6456Y192679D01*
X6516Y192602D01*
X6579Y192528D01*
X6646Y192456D01*
X6715Y192387D01*
X6787Y192320D01*
X6861Y192257D01*
X6938Y192197D01*
X7017Y192140D01*
X7099Y192086D01*
X7182Y192035D01*
X7268Y191988D01*
X7356Y191944D01*
X7445Y191904D01*
X7535Y191868D01*
X7627Y191835D01*
X7721Y191806D01*
X7815Y191781D01*
X7911Y191759D01*
X8007Y191741D01*
X8103Y191728D01*
X8201Y191718D01*
X8298Y191712D01*
X8396Y191710D01*
X13250Y200572D02*
X13250Y204213D01*
X16891Y201785D02*
X7789Y201785D01*
X7789Y201786D02*
X7705Y201788D01*
X7621Y201794D01*
X7538Y201803D01*
X7455Y201817D01*
X7372Y201834D01*
X7291Y201855D01*
X7211Y201880D01*
X7132Y201909D01*
X7054Y201941D01*
X6978Y201977D01*
X6903Y202016D01*
X6831Y202059D01*
X6760Y202105D01*
X6692Y202154D01*
X6626Y202206D01*
X6563Y202261D01*
X6502Y202319D01*
X6444Y202380D01*
X6389Y202443D01*
X6337Y202509D01*
X6287Y202577D01*
X6242Y202648D01*
X6199Y202720D01*
X6160Y202795D01*
X6124Y202871D01*
X6092Y202949D01*
X6063Y203028D01*
X6038Y203108D01*
X6017Y203189D01*
X6000Y203272D01*
X5986Y203355D01*
X5977Y203438D01*
X5971Y203522D01*
X5969Y203606D01*
X5969Y204213D01*
X5969Y209236D02*
X16891Y209236D01*
X13250Y209236D02*
X13250Y212270D01*
X13248Y212354D01*
X13242Y212438D01*
X13233Y212521D01*
X13219Y212604D01*
X13202Y212687D01*
X13181Y212768D01*
X13156Y212848D01*
X13127Y212927D01*
X13095Y213005D01*
X13059Y213081D01*
X13020Y213156D01*
X12977Y213228D01*
X12931Y213299D01*
X12882Y213367D01*
X12830Y213433D01*
X12775Y213496D01*
X12717Y213557D01*
X12656Y213615D01*
X12593Y213670D01*
X12527Y213722D01*
X12459Y213771D01*
X12388Y213817D01*
X12316Y213860D01*
X12241Y213899D01*
X12165Y213935D01*
X12087Y213967D01*
X12008Y213996D01*
X11928Y214021D01*
X11847Y214042D01*
X11764Y214059D01*
X11681Y214073D01*
X11598Y214082D01*
X11514Y214088D01*
X11430Y214090D01*
X5969Y214090D01*
X5969Y221343D02*
X5969Y224377D01*
X5969Y221343D02*
X5971Y221259D01*
X5977Y221175D01*
X5986Y221092D01*
X6000Y221009D01*
X6017Y220926D01*
X6038Y220845D01*
X6063Y220765D01*
X6092Y220686D01*
X6124Y220608D01*
X6160Y220532D01*
X6199Y220457D01*
X6242Y220385D01*
X6288Y220314D01*
X6337Y220246D01*
X6389Y220180D01*
X6444Y220117D01*
X6502Y220056D01*
X6563Y219998D01*
X6626Y219943D01*
X6692Y219891D01*
X6760Y219842D01*
X6831Y219796D01*
X6903Y219753D01*
X6978Y219714D01*
X7054Y219678D01*
X7132Y219646D01*
X7211Y219617D01*
X7291Y219592D01*
X7372Y219571D01*
X7455Y219554D01*
X7538Y219540D01*
X7621Y219531D01*
X7705Y219525D01*
X7789Y219523D01*
X10823Y219523D01*
X10921Y219525D01*
X11018Y219531D01*
X11116Y219541D01*
X11212Y219554D01*
X11308Y219572D01*
X11404Y219594D01*
X11498Y219619D01*
X11592Y219648D01*
X11684Y219681D01*
X11774Y219717D01*
X11863Y219757D01*
X11951Y219801D01*
X12036Y219848D01*
X12120Y219899D01*
X12202Y219953D01*
X12281Y220010D01*
X12358Y220070D01*
X12432Y220133D01*
X12504Y220200D01*
X12573Y220269D01*
X12640Y220341D01*
X12703Y220415D01*
X12763Y220492D01*
X12820Y220571D01*
X12874Y220653D01*
X12925Y220737D01*
X12972Y220822D01*
X13016Y220910D01*
X13056Y220999D01*
X13092Y221089D01*
X13125Y221181D01*
X13154Y221275D01*
X13179Y221369D01*
X13201Y221465D01*
X13219Y221561D01*
X13232Y221657D01*
X13242Y221755D01*
X13248Y221852D01*
X13250Y221950D01*
X13248Y222048D01*
X13242Y222145D01*
X13232Y222243D01*
X13219Y222339D01*
X13201Y222435D01*
X13179Y222531D01*
X13154Y222625D01*
X13125Y222719D01*
X13092Y222811D01*
X13056Y222901D01*
X13016Y222990D01*
X12972Y223078D01*
X12925Y223163D01*
X12874Y223247D01*
X12820Y223329D01*
X12763Y223408D01*
X12703Y223485D01*
X12640Y223559D01*
X12573Y223631D01*
X12504Y223700D01*
X12432Y223767D01*
X12358Y223830D01*
X12281Y223890D01*
X12202Y223947D01*
X12120Y224001D01*
X12037Y224052D01*
X11951Y224099D01*
X11863Y224143D01*
X11774Y224183D01*
X11684Y224219D01*
X11592Y224252D01*
X11498Y224281D01*
X11404Y224306D01*
X11308Y224328D01*
X11212Y224346D01*
X11116Y224359D01*
X11018Y224369D01*
X10921Y224375D01*
X10823Y224377D01*
X9610Y224377D01*
X9610Y219523D01*
X13250Y229901D02*
X5969Y229901D01*
X13250Y229901D02*
X13250Y233542D01*
X12037Y233542D01*
X10216Y244436D02*
X9003Y247470D01*
X10217Y244436D02*
X10247Y244364D01*
X10281Y244294D01*
X10319Y244226D01*
X10360Y244160D01*
X10404Y244095D01*
X10452Y244034D01*
X10502Y243974D01*
X10555Y243917D01*
X10611Y243863D01*
X10670Y243812D01*
X10731Y243763D01*
X10795Y243718D01*
X10860Y243676D01*
X10928Y243637D01*
X10997Y243601D01*
X11068Y243570D01*
X11141Y243541D01*
X11215Y243516D01*
X11290Y243495D01*
X11366Y243478D01*
X11443Y243465D01*
X11520Y243455D01*
X11598Y243449D01*
X11676Y243447D01*
X11754Y243449D01*
X11831Y243455D01*
X11909Y243464D01*
X11985Y243478D01*
X12062Y243495D01*
X12137Y243516D01*
X12211Y243540D01*
X12283Y243569D01*
X12354Y243600D01*
X12424Y243636D01*
X12492Y243674D01*
X12557Y243716D01*
X12621Y243762D01*
X12682Y243810D01*
X12741Y243861D01*
X12797Y243915D01*
X12850Y243972D01*
X12901Y244031D01*
X12948Y244093D01*
X12992Y244157D01*
X13033Y244224D01*
X13071Y244292D01*
X13106Y244362D01*
X13137Y244433D01*
X13164Y244506D01*
X13187Y244581D01*
X13207Y244656D01*
X13223Y244732D01*
X13236Y244809D01*
X13244Y244887D01*
X13249Y244965D01*
X13250Y245042D01*
X13251Y245043D02*
X13247Y245209D01*
X13239Y245375D01*
X13226Y245540D01*
X13210Y245705D01*
X13190Y245869D01*
X13166Y246033D01*
X13137Y246196D01*
X13105Y246359D01*
X13069Y246521D01*
X13030Y246681D01*
X12986Y246841D01*
X12938Y247000D01*
X12887Y247158D01*
X12832Y247314D01*
X12773Y247469D01*
X12711Y247622D01*
X12644Y247774D01*
X9002Y247470D02*
X8972Y247542D01*
X8938Y247612D01*
X8900Y247680D01*
X8859Y247746D01*
X8815Y247811D01*
X8767Y247872D01*
X8717Y247932D01*
X8664Y247989D01*
X8608Y248043D01*
X8549Y248094D01*
X8488Y248143D01*
X8424Y248188D01*
X8359Y248230D01*
X8291Y248269D01*
X8222Y248305D01*
X8151Y248336D01*
X8078Y248365D01*
X8004Y248390D01*
X7929Y248411D01*
X7853Y248428D01*
X7776Y248441D01*
X7699Y248451D01*
X7621Y248457D01*
X7543Y248459D01*
X7465Y248457D01*
X7388Y248451D01*
X7310Y248442D01*
X7234Y248428D01*
X7157Y248411D01*
X7082Y248390D01*
X7008Y248366D01*
X6936Y248337D01*
X6865Y248306D01*
X6795Y248270D01*
X6727Y248232D01*
X6662Y248190D01*
X6598Y248144D01*
X6537Y248096D01*
X6478Y248045D01*
X6422Y247991D01*
X6369Y247934D01*
X6318Y247875D01*
X6271Y247813D01*
X6227Y247749D01*
X6186Y247682D01*
X6148Y247614D01*
X6113Y247544D01*
X6082Y247473D01*
X6055Y247400D01*
X6032Y247325D01*
X6012Y247250D01*
X5996Y247174D01*
X5983Y247097D01*
X5975Y247019D01*
X5970Y246941D01*
X5969Y246864D01*
X5969Y246863D02*
X5975Y246620D01*
X5988Y246377D01*
X6005Y246134D01*
X6029Y245892D01*
X6058Y245650D01*
X6093Y245409D01*
X6134Y245169D01*
X6180Y244930D01*
X6232Y244692D01*
X6290Y244456D01*
X6353Y244221D01*
X6422Y243987D01*
X6496Y243756D01*
X6576Y243526D01*
X5969Y253192D02*
X13250Y253192D01*
X16284Y252889D02*
X16891Y252889D01*
X16891Y253495D01*
X16284Y253495D01*
X16284Y252889D01*
X16891Y262777D02*
X5969Y262777D01*
X5969Y259743D01*
X5971Y259659D01*
X5977Y259575D01*
X5986Y259492D01*
X6000Y259409D01*
X6017Y259326D01*
X6038Y259245D01*
X6063Y259165D01*
X6092Y259086D01*
X6124Y259008D01*
X6160Y258932D01*
X6199Y258857D01*
X6242Y258785D01*
X6288Y258714D01*
X6337Y258646D01*
X6389Y258580D01*
X6444Y258517D01*
X6502Y258456D01*
X6563Y258398D01*
X6626Y258343D01*
X6692Y258291D01*
X6760Y258242D01*
X6831Y258196D01*
X6903Y258153D01*
X6978Y258114D01*
X7054Y258078D01*
X7132Y258046D01*
X7211Y258017D01*
X7291Y257992D01*
X7372Y257971D01*
X7455Y257954D01*
X7538Y257940D01*
X7621Y257931D01*
X7705Y257925D01*
X7789Y257923D01*
X11430Y257923D01*
X11514Y257925D01*
X11598Y257931D01*
X11681Y257940D01*
X11764Y257954D01*
X11847Y257971D01*
X11928Y257992D01*
X12008Y258017D01*
X12087Y258046D01*
X12165Y258078D01*
X12241Y258114D01*
X12316Y258153D01*
X12388Y258196D01*
X12459Y258242D01*
X12527Y258291D01*
X12593Y258343D01*
X12656Y258398D01*
X12717Y258456D01*
X12775Y258517D01*
X12830Y258580D01*
X12882Y258646D01*
X12931Y258714D01*
X12977Y258785D01*
X13020Y258857D01*
X13059Y258932D01*
X13095Y259008D01*
X13127Y259086D01*
X13156Y259165D01*
X13181Y259245D01*
X13202Y259326D01*
X13219Y259409D01*
X13233Y259492D01*
X13242Y259575D01*
X13248Y259659D01*
X13250Y259743D01*
X13250Y262777D01*
X5969Y270111D02*
X5969Y273145D01*
X5969Y270111D02*
X5971Y270027D01*
X5977Y269943D01*
X5986Y269860D01*
X6000Y269777D01*
X6017Y269694D01*
X6038Y269613D01*
X6063Y269533D01*
X6092Y269454D01*
X6124Y269376D01*
X6160Y269300D01*
X6199Y269225D01*
X6242Y269153D01*
X6288Y269082D01*
X6337Y269014D01*
X6389Y268948D01*
X6444Y268885D01*
X6502Y268824D01*
X6563Y268766D01*
X6626Y268711D01*
X6692Y268659D01*
X6760Y268610D01*
X6831Y268564D01*
X6903Y268521D01*
X6978Y268482D01*
X7054Y268446D01*
X7132Y268414D01*
X7211Y268385D01*
X7291Y268360D01*
X7372Y268339D01*
X7455Y268322D01*
X7538Y268308D01*
X7621Y268299D01*
X7705Y268293D01*
X7789Y268291D01*
X10823Y268291D01*
X10921Y268293D01*
X11018Y268299D01*
X11116Y268309D01*
X11212Y268322D01*
X11308Y268340D01*
X11404Y268362D01*
X11498Y268387D01*
X11592Y268416D01*
X11684Y268449D01*
X11774Y268485D01*
X11863Y268525D01*
X11951Y268569D01*
X12036Y268616D01*
X12120Y268667D01*
X12202Y268721D01*
X12281Y268778D01*
X12358Y268838D01*
X12432Y268901D01*
X12504Y268968D01*
X12573Y269037D01*
X12640Y269109D01*
X12703Y269183D01*
X12763Y269260D01*
X12820Y269339D01*
X12874Y269421D01*
X12925Y269505D01*
X12972Y269590D01*
X13016Y269678D01*
X13056Y269767D01*
X13092Y269857D01*
X13125Y269949D01*
X13154Y270043D01*
X13179Y270137D01*
X13201Y270233D01*
X13219Y270329D01*
X13232Y270425D01*
X13242Y270523D01*
X13248Y270620D01*
X13250Y270718D01*
X13248Y270816D01*
X13242Y270913D01*
X13232Y271011D01*
X13219Y271107D01*
X13201Y271203D01*
X13179Y271299D01*
X13154Y271393D01*
X13125Y271487D01*
X13092Y271579D01*
X13056Y271669D01*
X13016Y271758D01*
X12972Y271846D01*
X12925Y271932D01*
X12874Y272015D01*
X12820Y272097D01*
X12763Y272176D01*
X12703Y272253D01*
X12640Y272327D01*
X12573Y272399D01*
X12504Y272468D01*
X12432Y272535D01*
X12358Y272598D01*
X12281Y272658D01*
X12202Y272715D01*
X12120Y272769D01*
X12037Y272820D01*
X11951Y272867D01*
X11863Y272911D01*
X11774Y272951D01*
X11684Y272987D01*
X11592Y273020D01*
X11498Y273049D01*
X11404Y273074D01*
X11308Y273096D01*
X11212Y273114D01*
X11116Y273127D01*
X11018Y273137D01*
X10921Y273143D01*
X10823Y273145D01*
X9610Y273145D01*
X9610Y268291D01*
D11*
X222758Y579826D02*
X218242Y583438D01*
X218242Y567182D01*
X213727Y567182D02*
X222758Y567182D01*
X221403Y548160D02*
X221540Y547871D01*
X221670Y547579D01*
X221793Y547283D01*
X221908Y546985D01*
X222017Y546684D01*
X222118Y546381D01*
X222212Y546075D01*
X222299Y545768D01*
X222378Y545458D01*
X222450Y545146D01*
X222514Y544833D01*
X222571Y544518D01*
X222621Y544202D01*
X222663Y543885D01*
X222697Y543567D01*
X222724Y543249D01*
X222743Y542929D01*
X222754Y542610D01*
X222758Y542290D01*
X221403Y548161D02*
X221364Y548269D01*
X221321Y548376D01*
X221275Y548481D01*
X221224Y548585D01*
X221171Y548687D01*
X221114Y548787D01*
X221053Y548885D01*
X220989Y548980D01*
X220922Y549074D01*
X220851Y549165D01*
X220778Y549254D01*
X220701Y549340D01*
X220622Y549423D01*
X220540Y549504D01*
X220455Y549582D01*
X220367Y549656D01*
X220277Y549728D01*
X220185Y549796D01*
X220090Y549862D01*
X219993Y549924D01*
X219894Y549982D01*
X219792Y550038D01*
X219690Y550089D01*
X219585Y550137D01*
X219479Y550182D01*
X219371Y550223D01*
X219262Y550260D01*
X219152Y550293D01*
X219040Y550322D01*
X218928Y550348D01*
X218815Y550370D01*
X218701Y550387D01*
X218587Y550401D01*
X218472Y550411D01*
X218357Y550417D01*
X218242Y550419D01*
X218242Y550418D02*
X218127Y550416D01*
X218012Y550410D01*
X217897Y550400D01*
X217783Y550386D01*
X217669Y550369D01*
X217556Y550347D01*
X217444Y550321D01*
X217332Y550292D01*
X217222Y550259D01*
X217113Y550222D01*
X217005Y550181D01*
X216899Y550136D01*
X216795Y550088D01*
X216692Y550037D01*
X216591Y549981D01*
X216491Y549923D01*
X216394Y549861D01*
X216300Y549796D01*
X216207Y549727D01*
X216117Y549655D01*
X216029Y549581D01*
X215944Y549503D01*
X215862Y549422D01*
X215783Y549339D01*
X215706Y549253D01*
X215633Y549164D01*
X215562Y549073D01*
X215495Y548979D01*
X215431Y548884D01*
X215370Y548786D01*
X215313Y548686D01*
X215260Y548584D01*
X215209Y548480D01*
X215163Y548375D01*
X215120Y548268D01*
X215081Y548160D01*
X215082Y548160D02*
X214945Y547871D01*
X214815Y547579D01*
X214692Y547283D01*
X214577Y546985D01*
X214468Y546684D01*
X214367Y546381D01*
X214273Y546075D01*
X214186Y545768D01*
X214107Y545458D01*
X214035Y545146D01*
X213971Y544833D01*
X213914Y544518D01*
X213864Y544202D01*
X213822Y543885D01*
X213788Y543567D01*
X213761Y543249D01*
X213742Y542929D01*
X213731Y542610D01*
X213727Y542290D01*
X222758Y542290D02*
X222754Y541970D01*
X222743Y541651D01*
X222724Y541331D01*
X222697Y541013D01*
X222663Y540695D01*
X222621Y540378D01*
X222571Y540062D01*
X222514Y539747D01*
X222450Y539434D01*
X222378Y539122D01*
X222299Y538812D01*
X222212Y538505D01*
X222118Y538199D01*
X222017Y537896D01*
X221908Y537595D01*
X221793Y537297D01*
X221670Y537001D01*
X221540Y536709D01*
X221403Y536420D01*
X221364Y536312D01*
X221321Y536205D01*
X221275Y536100D01*
X221224Y535996D01*
X221171Y535894D01*
X221114Y535794D01*
X221053Y535696D01*
X220989Y535601D01*
X220922Y535507D01*
X220851Y535416D01*
X220778Y535327D01*
X220701Y535241D01*
X220622Y535158D01*
X220540Y535077D01*
X220455Y534999D01*
X220367Y534925D01*
X220277Y534853D01*
X220184Y534784D01*
X220090Y534719D01*
X219993Y534657D01*
X219893Y534599D01*
X219792Y534543D01*
X219690Y534492D01*
X219585Y534444D01*
X219479Y534399D01*
X219371Y534358D01*
X219262Y534321D01*
X219152Y534288D01*
X219040Y534259D01*
X218928Y534233D01*
X218815Y534211D01*
X218701Y534194D01*
X218587Y534180D01*
X218472Y534170D01*
X218357Y534164D01*
X218242Y534162D01*
X215082Y536420D02*
X214945Y536709D01*
X214815Y537001D01*
X214692Y537297D01*
X214577Y537595D01*
X214468Y537896D01*
X214367Y538199D01*
X214273Y538505D01*
X214186Y538812D01*
X214107Y539122D01*
X214035Y539434D01*
X213971Y539747D01*
X213914Y540062D01*
X213864Y540378D01*
X213822Y540695D01*
X213788Y541013D01*
X213761Y541331D01*
X213742Y541651D01*
X213731Y541970D01*
X213727Y542290D01*
X215081Y536420D02*
X215120Y536312D01*
X215163Y536205D01*
X215209Y536100D01*
X215260Y535996D01*
X215313Y535894D01*
X215371Y535794D01*
X215431Y535696D01*
X215495Y535601D01*
X215562Y535507D01*
X215633Y535416D01*
X215706Y535327D01*
X215783Y535241D01*
X215862Y535158D01*
X215944Y535077D01*
X216029Y534999D01*
X216117Y534925D01*
X216207Y534853D01*
X216300Y534784D01*
X216394Y534719D01*
X216491Y534657D01*
X216591Y534599D01*
X216692Y534543D01*
X216795Y534492D01*
X216899Y534444D01*
X217005Y534399D01*
X217113Y534358D01*
X217222Y534321D01*
X217332Y534288D01*
X217444Y534259D01*
X217556Y534233D01*
X217669Y534211D01*
X217783Y534194D01*
X217897Y534180D01*
X218012Y534170D01*
X218127Y534164D01*
X218242Y534162D01*
X221855Y537774D02*
X214630Y546806D01*
D12*
X100417Y493141D02*
X100328Y493143D01*
X100240Y493149D01*
X100152Y493158D01*
X100064Y493171D01*
X99977Y493188D01*
X99891Y493208D01*
X99806Y493233D01*
X99721Y493260D01*
X99638Y493292D01*
X99557Y493326D01*
X99477Y493365D01*
X99399Y493406D01*
X99322Y493451D01*
X99248Y493499D01*
X99175Y493550D01*
X99105Y493604D01*
X99038Y493662D01*
X98972Y493722D01*
X98910Y493784D01*
X98850Y493850D01*
X98792Y493917D01*
X98738Y493987D01*
X98687Y494060D01*
X98639Y494134D01*
X98594Y494211D01*
X98553Y494289D01*
X98514Y494369D01*
X98480Y494450D01*
X98448Y494533D01*
X98421Y494618D01*
X98396Y494703D01*
X98376Y494789D01*
X98359Y494876D01*
X98346Y494964D01*
X98337Y495052D01*
X98331Y495140D01*
X98329Y495229D01*
X100417Y493141D02*
X100546Y493143D01*
X100675Y493149D01*
X100804Y493158D01*
X100932Y493171D01*
X101060Y493188D01*
X101187Y493209D01*
X101314Y493233D01*
X101440Y493261D01*
X101565Y493293D01*
X101689Y493328D01*
X101812Y493367D01*
X101934Y493410D01*
X102054Y493456D01*
X102173Y493506D01*
X102291Y493559D01*
X102407Y493615D01*
X102521Y493675D01*
X102634Y493738D01*
X102744Y493805D01*
X102853Y493874D01*
X102959Y493947D01*
X103064Y494023D01*
X103166Y494102D01*
X103266Y494184D01*
X103363Y494268D01*
X103458Y494356D01*
X103550Y494446D01*
X103289Y500451D02*
X103287Y500540D01*
X103281Y500628D01*
X103272Y500716D01*
X103259Y500804D01*
X103242Y500891D01*
X103222Y500977D01*
X103197Y501062D01*
X103170Y501147D01*
X103138Y501230D01*
X103104Y501311D01*
X103065Y501391D01*
X103024Y501469D01*
X102979Y501546D01*
X102931Y501620D01*
X102880Y501693D01*
X102826Y501763D01*
X102768Y501830D01*
X102708Y501896D01*
X102646Y501958D01*
X102580Y502018D01*
X102513Y502076D01*
X102443Y502130D01*
X102370Y502181D01*
X102296Y502229D01*
X102219Y502274D01*
X102141Y502315D01*
X102061Y502354D01*
X101980Y502388D01*
X101897Y502420D01*
X101812Y502447D01*
X101727Y502472D01*
X101641Y502492D01*
X101554Y502509D01*
X101466Y502522D01*
X101378Y502531D01*
X101290Y502537D01*
X101201Y502539D01*
X101081Y502537D01*
X100961Y502532D01*
X100842Y502522D01*
X100722Y502510D01*
X100603Y502493D01*
X100485Y502473D01*
X100367Y502449D01*
X100251Y502422D01*
X100135Y502391D01*
X100020Y502357D01*
X99906Y502319D01*
X99793Y502277D01*
X99682Y502232D01*
X99572Y502184D01*
X99464Y502133D01*
X99357Y502078D01*
X99252Y502020D01*
X99149Y501958D01*
X99048Y501894D01*
X98948Y501826D01*
X98851Y501756D01*
X102245Y498624D02*
X102323Y498672D01*
X102399Y498724D01*
X102472Y498778D01*
X102543Y498836D01*
X102612Y498897D01*
X102678Y498961D01*
X102741Y499028D01*
X102801Y499097D01*
X102858Y499169D01*
X102912Y499243D01*
X102962Y499320D01*
X103010Y499399D01*
X103053Y499479D01*
X103094Y499562D01*
X103130Y499646D01*
X103163Y499731D01*
X103192Y499818D01*
X103218Y499907D01*
X103240Y499996D01*
X103257Y500086D01*
X103271Y500176D01*
X103281Y500268D01*
X103287Y500359D01*
X103289Y500451D01*
X99373Y497056D02*
X99295Y497008D01*
X99219Y496956D01*
X99146Y496902D01*
X99075Y496844D01*
X99006Y496783D01*
X98940Y496719D01*
X98877Y496652D01*
X98817Y496583D01*
X98760Y496511D01*
X98706Y496437D01*
X98656Y496360D01*
X98608Y496281D01*
X98565Y496201D01*
X98524Y496118D01*
X98488Y496034D01*
X98455Y495949D01*
X98426Y495862D01*
X98400Y495773D01*
X98378Y495684D01*
X98361Y495594D01*
X98347Y495504D01*
X98337Y495412D01*
X98331Y495321D01*
X98329Y495229D01*
X99373Y497057D02*
X102245Y498623D01*
X94711Y500451D02*
X92100Y502539D01*
X92100Y493141D01*
X89490Y493141D02*
X94711Y493141D01*
X98348Y485994D02*
X98427Y485827D01*
X98502Y485658D01*
X98573Y485487D01*
X98640Y485315D01*
X98702Y485141D01*
X98761Y484965D01*
X98815Y484789D01*
X98865Y484611D01*
X98911Y484431D01*
X98953Y484251D01*
X98990Y484070D01*
X99023Y483888D01*
X99052Y483706D01*
X99076Y483522D01*
X99096Y483338D01*
X99111Y483154D01*
X99122Y482970D01*
X99129Y482785D01*
X99131Y482600D01*
X98348Y485994D02*
X98318Y486074D01*
X98285Y486153D01*
X98248Y486230D01*
X98208Y486306D01*
X98165Y486380D01*
X98119Y486452D01*
X98069Y486521D01*
X98017Y486589D01*
X97961Y486654D01*
X97903Y486717D01*
X97841Y486776D01*
X97778Y486834D01*
X97711Y486888D01*
X97643Y486939D01*
X97572Y486987D01*
X97499Y487032D01*
X97425Y487074D01*
X97348Y487112D01*
X97270Y487147D01*
X97191Y487179D01*
X97110Y487207D01*
X97028Y487231D01*
X96944Y487252D01*
X96861Y487269D01*
X96776Y487282D01*
X96691Y487291D01*
X96606Y487297D01*
X96520Y487299D01*
X96434Y487297D01*
X96349Y487291D01*
X96264Y487282D01*
X96179Y487269D01*
X96096Y487252D01*
X96012Y487231D01*
X95930Y487207D01*
X95850Y487179D01*
X95770Y487147D01*
X95692Y487112D01*
X95615Y487074D01*
X95541Y487032D01*
X95468Y486987D01*
X95397Y486939D01*
X95329Y486888D01*
X95262Y486834D01*
X95199Y486776D01*
X95138Y486717D01*
X95079Y486654D01*
X95024Y486589D01*
X94971Y486521D01*
X94921Y486452D01*
X94875Y486380D01*
X94832Y486306D01*
X94792Y486230D01*
X94755Y486153D01*
X94722Y486074D01*
X94692Y485994D01*
X94613Y485827D01*
X94538Y485658D01*
X94467Y485487D01*
X94400Y485315D01*
X94338Y485141D01*
X94279Y484965D01*
X94225Y484789D01*
X94175Y484611D01*
X94129Y484431D01*
X94087Y484251D01*
X94050Y484070D01*
X94017Y483888D01*
X93988Y483706D01*
X93964Y483522D01*
X93944Y483338D01*
X93929Y483154D01*
X93918Y482970D01*
X93911Y482785D01*
X93909Y482600D01*
X99131Y482600D02*
X99129Y482415D01*
X99122Y482230D01*
X99111Y482046D01*
X99096Y481862D01*
X99076Y481678D01*
X99052Y481494D01*
X99023Y481312D01*
X98990Y481130D01*
X98953Y480949D01*
X98911Y480769D01*
X98865Y480589D01*
X98815Y480411D01*
X98761Y480235D01*
X98702Y480059D01*
X98640Y479885D01*
X98573Y479713D01*
X98502Y479542D01*
X98427Y479373D01*
X98348Y479206D01*
X98318Y479126D01*
X98285Y479047D01*
X98248Y478970D01*
X98208Y478894D01*
X98165Y478820D01*
X98119Y478748D01*
X98069Y478679D01*
X98016Y478611D01*
X97961Y478546D01*
X97902Y478483D01*
X97841Y478424D01*
X97778Y478366D01*
X97711Y478312D01*
X97643Y478261D01*
X97572Y478213D01*
X97499Y478168D01*
X97425Y478126D01*
X97348Y478088D01*
X97270Y478053D01*
X97191Y478021D01*
X97110Y477993D01*
X97028Y477969D01*
X96944Y477948D01*
X96861Y477931D01*
X96776Y477918D01*
X96691Y477909D01*
X96606Y477903D01*
X96520Y477901D01*
X94692Y479206D02*
X94613Y479373D01*
X94538Y479542D01*
X94467Y479713D01*
X94400Y479885D01*
X94338Y480059D01*
X94279Y480235D01*
X94225Y480411D01*
X94175Y480589D01*
X94129Y480769D01*
X94087Y480949D01*
X94050Y481130D01*
X94017Y481312D01*
X93988Y481494D01*
X93964Y481678D01*
X93944Y481862D01*
X93929Y482046D01*
X93918Y482230D01*
X93911Y482415D01*
X93909Y482600D01*
X94692Y479206D02*
X94722Y479126D01*
X94755Y479047D01*
X94792Y478970D01*
X94832Y478894D01*
X94875Y478820D01*
X94921Y478748D01*
X94971Y478679D01*
X95024Y478611D01*
X95079Y478546D01*
X95138Y478483D01*
X95199Y478424D01*
X95262Y478366D01*
X95329Y478312D01*
X95397Y478261D01*
X95468Y478213D01*
X95541Y478168D01*
X95615Y478126D01*
X95692Y478088D01*
X95770Y478053D01*
X95850Y478021D01*
X95930Y477993D01*
X96012Y477969D01*
X96096Y477948D01*
X96179Y477931D01*
X96264Y477918D01*
X96349Y477909D01*
X96434Y477903D01*
X96520Y477901D01*
X98608Y479989D02*
X94432Y485211D01*
X98348Y470754D02*
X98427Y470587D01*
X98502Y470418D01*
X98573Y470247D01*
X98640Y470075D01*
X98702Y469901D01*
X98761Y469725D01*
X98815Y469549D01*
X98865Y469371D01*
X98911Y469191D01*
X98953Y469011D01*
X98990Y468830D01*
X99023Y468648D01*
X99052Y468466D01*
X99076Y468282D01*
X99096Y468098D01*
X99111Y467914D01*
X99122Y467730D01*
X99129Y467545D01*
X99131Y467360D01*
X98348Y470754D02*
X98318Y470834D01*
X98285Y470913D01*
X98248Y470990D01*
X98208Y471066D01*
X98165Y471140D01*
X98119Y471212D01*
X98069Y471281D01*
X98017Y471349D01*
X97961Y471414D01*
X97903Y471477D01*
X97841Y471536D01*
X97778Y471594D01*
X97711Y471648D01*
X97643Y471699D01*
X97572Y471747D01*
X97499Y471792D01*
X97425Y471834D01*
X97348Y471872D01*
X97270Y471907D01*
X97191Y471939D01*
X97110Y471967D01*
X97028Y471991D01*
X96944Y472012D01*
X96861Y472029D01*
X96776Y472042D01*
X96691Y472051D01*
X96606Y472057D01*
X96520Y472059D01*
X96434Y472057D01*
X96349Y472051D01*
X96264Y472042D01*
X96179Y472029D01*
X96096Y472012D01*
X96012Y471991D01*
X95930Y471967D01*
X95850Y471939D01*
X95770Y471907D01*
X95692Y471872D01*
X95615Y471834D01*
X95541Y471792D01*
X95468Y471747D01*
X95397Y471699D01*
X95329Y471648D01*
X95262Y471594D01*
X95199Y471536D01*
X95138Y471477D01*
X95079Y471414D01*
X95024Y471349D01*
X94971Y471281D01*
X94921Y471212D01*
X94875Y471140D01*
X94832Y471066D01*
X94792Y470990D01*
X94755Y470913D01*
X94722Y470834D01*
X94692Y470754D01*
X94613Y470587D01*
X94538Y470418D01*
X94467Y470247D01*
X94400Y470075D01*
X94338Y469901D01*
X94279Y469725D01*
X94225Y469549D01*
X94175Y469371D01*
X94129Y469191D01*
X94087Y469011D01*
X94050Y468830D01*
X94017Y468648D01*
X93988Y468466D01*
X93964Y468282D01*
X93944Y468098D01*
X93929Y467914D01*
X93918Y467730D01*
X93911Y467545D01*
X93909Y467360D01*
X99131Y467360D02*
X99129Y467175D01*
X99122Y466990D01*
X99111Y466806D01*
X99096Y466622D01*
X99076Y466438D01*
X99052Y466254D01*
X99023Y466072D01*
X98990Y465890D01*
X98953Y465709D01*
X98911Y465529D01*
X98865Y465349D01*
X98815Y465171D01*
X98761Y464995D01*
X98702Y464819D01*
X98640Y464645D01*
X98573Y464473D01*
X98502Y464302D01*
X98427Y464133D01*
X98348Y463966D01*
X98318Y463886D01*
X98285Y463807D01*
X98248Y463730D01*
X98208Y463654D01*
X98165Y463580D01*
X98119Y463508D01*
X98069Y463439D01*
X98016Y463371D01*
X97961Y463306D01*
X97902Y463243D01*
X97841Y463184D01*
X97778Y463126D01*
X97711Y463072D01*
X97643Y463021D01*
X97572Y462973D01*
X97499Y462928D01*
X97425Y462886D01*
X97348Y462848D01*
X97270Y462813D01*
X97191Y462781D01*
X97110Y462753D01*
X97028Y462729D01*
X96944Y462708D01*
X96861Y462691D01*
X96776Y462678D01*
X96691Y462669D01*
X96606Y462663D01*
X96520Y462661D01*
X94692Y463966D02*
X94613Y464133D01*
X94538Y464302D01*
X94467Y464473D01*
X94400Y464645D01*
X94338Y464819D01*
X94279Y464995D01*
X94225Y465171D01*
X94175Y465349D01*
X94129Y465529D01*
X94087Y465709D01*
X94050Y465890D01*
X94017Y466072D01*
X93988Y466254D01*
X93964Y466438D01*
X93944Y466622D01*
X93929Y466806D01*
X93918Y466990D01*
X93911Y467175D01*
X93909Y467360D01*
X94692Y463966D02*
X94722Y463886D01*
X94755Y463807D01*
X94792Y463730D01*
X94832Y463654D01*
X94875Y463580D01*
X94921Y463508D01*
X94971Y463439D01*
X95024Y463371D01*
X95079Y463306D01*
X95138Y463243D01*
X95199Y463184D01*
X95262Y463126D01*
X95329Y463072D01*
X95397Y463021D01*
X95468Y462973D01*
X95541Y462928D01*
X95615Y462886D01*
X95692Y462848D01*
X95770Y462813D01*
X95850Y462781D01*
X95930Y462753D01*
X96012Y462729D01*
X96096Y462708D01*
X96179Y462691D01*
X96264Y462678D01*
X96349Y462669D01*
X96434Y462663D01*
X96520Y462661D01*
X98608Y464749D02*
X94432Y469971D01*
X98348Y455514D02*
X98427Y455347D01*
X98502Y455178D01*
X98573Y455007D01*
X98640Y454835D01*
X98702Y454661D01*
X98761Y454485D01*
X98815Y454309D01*
X98865Y454131D01*
X98911Y453951D01*
X98953Y453771D01*
X98990Y453590D01*
X99023Y453408D01*
X99052Y453226D01*
X99076Y453042D01*
X99096Y452858D01*
X99111Y452674D01*
X99122Y452490D01*
X99129Y452305D01*
X99131Y452120D01*
X98348Y455514D02*
X98318Y455594D01*
X98285Y455673D01*
X98248Y455750D01*
X98208Y455826D01*
X98165Y455900D01*
X98119Y455972D01*
X98069Y456041D01*
X98017Y456109D01*
X97961Y456174D01*
X97903Y456237D01*
X97841Y456296D01*
X97778Y456354D01*
X97711Y456408D01*
X97643Y456459D01*
X97572Y456507D01*
X97499Y456552D01*
X97425Y456594D01*
X97348Y456632D01*
X97270Y456667D01*
X97191Y456699D01*
X97110Y456727D01*
X97028Y456751D01*
X96944Y456772D01*
X96861Y456789D01*
X96776Y456802D01*
X96691Y456811D01*
X96606Y456817D01*
X96520Y456819D01*
X96434Y456817D01*
X96349Y456811D01*
X96264Y456802D01*
X96179Y456789D01*
X96096Y456772D01*
X96012Y456751D01*
X95930Y456727D01*
X95850Y456699D01*
X95770Y456667D01*
X95692Y456632D01*
X95615Y456594D01*
X95541Y456552D01*
X95468Y456507D01*
X95397Y456459D01*
X95329Y456408D01*
X95262Y456354D01*
X95199Y456296D01*
X95138Y456237D01*
X95079Y456174D01*
X95024Y456109D01*
X94971Y456041D01*
X94921Y455972D01*
X94875Y455900D01*
X94832Y455826D01*
X94792Y455750D01*
X94755Y455673D01*
X94722Y455594D01*
X94692Y455514D01*
X94613Y455347D01*
X94538Y455178D01*
X94467Y455007D01*
X94400Y454835D01*
X94338Y454661D01*
X94279Y454485D01*
X94225Y454309D01*
X94175Y454131D01*
X94129Y453951D01*
X94087Y453771D01*
X94050Y453590D01*
X94017Y453408D01*
X93988Y453226D01*
X93964Y453042D01*
X93944Y452858D01*
X93929Y452674D01*
X93918Y452490D01*
X93911Y452305D01*
X93909Y452120D01*
X99131Y452120D02*
X99129Y451935D01*
X99122Y451750D01*
X99111Y451566D01*
X99096Y451382D01*
X99076Y451198D01*
X99052Y451014D01*
X99023Y450832D01*
X98990Y450650D01*
X98953Y450469D01*
X98911Y450289D01*
X98865Y450109D01*
X98815Y449931D01*
X98761Y449755D01*
X98702Y449579D01*
X98640Y449405D01*
X98573Y449233D01*
X98502Y449062D01*
X98427Y448893D01*
X98348Y448726D01*
X98318Y448646D01*
X98285Y448567D01*
X98248Y448490D01*
X98208Y448414D01*
X98165Y448340D01*
X98119Y448268D01*
X98069Y448199D01*
X98016Y448131D01*
X97961Y448066D01*
X97902Y448003D01*
X97841Y447944D01*
X97778Y447886D01*
X97711Y447832D01*
X97643Y447781D01*
X97572Y447733D01*
X97499Y447688D01*
X97425Y447646D01*
X97348Y447608D01*
X97270Y447573D01*
X97191Y447541D01*
X97110Y447513D01*
X97028Y447489D01*
X96944Y447468D01*
X96861Y447451D01*
X96776Y447438D01*
X96691Y447429D01*
X96606Y447423D01*
X96520Y447421D01*
X94692Y448726D02*
X94613Y448893D01*
X94538Y449062D01*
X94467Y449233D01*
X94400Y449405D01*
X94338Y449579D01*
X94279Y449755D01*
X94225Y449931D01*
X94175Y450109D01*
X94129Y450289D01*
X94087Y450469D01*
X94050Y450650D01*
X94017Y450832D01*
X93988Y451014D01*
X93964Y451198D01*
X93944Y451382D01*
X93929Y451566D01*
X93918Y451750D01*
X93911Y451935D01*
X93909Y452120D01*
X94692Y448726D02*
X94722Y448646D01*
X94755Y448567D01*
X94792Y448490D01*
X94832Y448414D01*
X94875Y448340D01*
X94921Y448268D01*
X94971Y448199D01*
X95024Y448131D01*
X95079Y448066D01*
X95138Y448003D01*
X95199Y447944D01*
X95262Y447886D01*
X95329Y447832D01*
X95397Y447781D01*
X95468Y447733D01*
X95541Y447688D01*
X95615Y447646D01*
X95692Y447608D01*
X95770Y447573D01*
X95850Y447541D01*
X95930Y447513D01*
X96012Y447489D01*
X96096Y447468D01*
X96179Y447451D01*
X96264Y447438D01*
X96349Y447429D01*
X96434Y447423D01*
X96520Y447421D01*
X98608Y449509D02*
X94432Y454731D01*
X93909Y441579D02*
X99131Y441579D01*
X93909Y441579D02*
X99131Y432181D01*
X93909Y432181D01*
X93909Y426339D02*
X99131Y426339D01*
X93909Y426339D02*
X99131Y416941D01*
X93909Y416941D01*
X93909Y411099D02*
X99131Y411099D01*
X93909Y411099D02*
X99131Y401701D01*
X93909Y401701D01*
X96520Y395859D02*
X99131Y393771D01*
X96520Y395859D02*
X96520Y386461D01*
X99131Y386461D02*
X93909Y386461D01*
X96520Y380619D02*
X99131Y378531D01*
X96520Y380619D02*
X96520Y371221D01*
X99131Y371221D02*
X93909Y371221D01*
X96520Y365379D02*
X99131Y363291D01*
X96520Y365379D02*
X96520Y355981D01*
X99131Y355981D02*
X93909Y355981D01*
X80097Y493141D02*
X80008Y493143D01*
X79920Y493149D01*
X79832Y493158D01*
X79744Y493171D01*
X79657Y493188D01*
X79571Y493208D01*
X79486Y493233D01*
X79401Y493260D01*
X79318Y493292D01*
X79237Y493326D01*
X79157Y493365D01*
X79079Y493406D01*
X79002Y493451D01*
X78928Y493499D01*
X78855Y493550D01*
X78785Y493604D01*
X78718Y493662D01*
X78652Y493722D01*
X78590Y493784D01*
X78530Y493850D01*
X78472Y493917D01*
X78418Y493987D01*
X78367Y494060D01*
X78319Y494134D01*
X78274Y494211D01*
X78233Y494289D01*
X78194Y494369D01*
X78160Y494450D01*
X78128Y494533D01*
X78101Y494618D01*
X78076Y494703D01*
X78056Y494789D01*
X78039Y494876D01*
X78026Y494964D01*
X78017Y495052D01*
X78011Y495140D01*
X78009Y495229D01*
X80097Y493141D02*
X80226Y493143D01*
X80355Y493149D01*
X80484Y493158D01*
X80612Y493171D01*
X80740Y493188D01*
X80867Y493209D01*
X80994Y493233D01*
X81120Y493261D01*
X81245Y493293D01*
X81369Y493328D01*
X81492Y493367D01*
X81614Y493410D01*
X81734Y493456D01*
X81853Y493506D01*
X81971Y493559D01*
X82087Y493615D01*
X82201Y493675D01*
X82314Y493738D01*
X82424Y493805D01*
X82533Y493874D01*
X82639Y493947D01*
X82744Y494023D01*
X82846Y494102D01*
X82946Y494184D01*
X83043Y494268D01*
X83138Y494356D01*
X83230Y494446D01*
X82969Y500451D02*
X82967Y500540D01*
X82961Y500628D01*
X82952Y500716D01*
X82939Y500804D01*
X82922Y500891D01*
X82902Y500977D01*
X82877Y501062D01*
X82850Y501147D01*
X82818Y501230D01*
X82784Y501311D01*
X82745Y501391D01*
X82704Y501469D01*
X82659Y501546D01*
X82611Y501620D01*
X82560Y501693D01*
X82506Y501763D01*
X82448Y501830D01*
X82388Y501896D01*
X82326Y501958D01*
X82260Y502018D01*
X82193Y502076D01*
X82123Y502130D01*
X82050Y502181D01*
X81976Y502229D01*
X81899Y502274D01*
X81821Y502315D01*
X81741Y502354D01*
X81660Y502388D01*
X81577Y502420D01*
X81492Y502447D01*
X81407Y502472D01*
X81321Y502492D01*
X81234Y502509D01*
X81146Y502522D01*
X81058Y502531D01*
X80970Y502537D01*
X80881Y502539D01*
X80761Y502537D01*
X80641Y502532D01*
X80522Y502522D01*
X80402Y502510D01*
X80283Y502493D01*
X80165Y502473D01*
X80047Y502449D01*
X79931Y502422D01*
X79815Y502391D01*
X79700Y502357D01*
X79586Y502319D01*
X79473Y502277D01*
X79362Y502232D01*
X79252Y502184D01*
X79144Y502133D01*
X79037Y502078D01*
X78932Y502020D01*
X78829Y501958D01*
X78728Y501894D01*
X78628Y501826D01*
X78531Y501756D01*
X81925Y498624D02*
X82003Y498672D01*
X82079Y498724D01*
X82152Y498778D01*
X82223Y498836D01*
X82292Y498897D01*
X82358Y498961D01*
X82421Y499028D01*
X82481Y499097D01*
X82538Y499169D01*
X82592Y499243D01*
X82642Y499320D01*
X82690Y499399D01*
X82733Y499479D01*
X82774Y499562D01*
X82810Y499646D01*
X82843Y499731D01*
X82872Y499818D01*
X82898Y499907D01*
X82920Y499996D01*
X82937Y500086D01*
X82951Y500176D01*
X82961Y500268D01*
X82967Y500359D01*
X82969Y500451D01*
X79053Y497056D02*
X78975Y497008D01*
X78899Y496956D01*
X78826Y496902D01*
X78755Y496844D01*
X78686Y496783D01*
X78620Y496719D01*
X78557Y496652D01*
X78497Y496583D01*
X78440Y496511D01*
X78386Y496437D01*
X78336Y496360D01*
X78288Y496281D01*
X78245Y496201D01*
X78204Y496118D01*
X78168Y496034D01*
X78135Y495949D01*
X78106Y495862D01*
X78080Y495773D01*
X78058Y495684D01*
X78041Y495594D01*
X78027Y495504D01*
X78017Y495412D01*
X78011Y495321D01*
X78009Y495229D01*
X79053Y497057D02*
X81925Y498623D01*
X74391Y497840D02*
X74389Y498025D01*
X74382Y498210D01*
X74371Y498394D01*
X74356Y498578D01*
X74336Y498762D01*
X74312Y498946D01*
X74283Y499128D01*
X74250Y499310D01*
X74213Y499491D01*
X74171Y499671D01*
X74125Y499851D01*
X74075Y500029D01*
X74021Y500205D01*
X73962Y500381D01*
X73900Y500555D01*
X73833Y500727D01*
X73762Y500898D01*
X73687Y501067D01*
X73608Y501234D01*
X73578Y501314D01*
X73545Y501393D01*
X73508Y501470D01*
X73468Y501546D01*
X73425Y501620D01*
X73379Y501692D01*
X73329Y501761D01*
X73277Y501829D01*
X73221Y501894D01*
X73163Y501957D01*
X73101Y502016D01*
X73038Y502074D01*
X72971Y502128D01*
X72903Y502179D01*
X72832Y502227D01*
X72759Y502272D01*
X72685Y502314D01*
X72608Y502352D01*
X72530Y502387D01*
X72451Y502419D01*
X72370Y502447D01*
X72288Y502471D01*
X72204Y502492D01*
X72121Y502509D01*
X72036Y502522D01*
X71951Y502531D01*
X71866Y502537D01*
X71780Y502539D01*
X71694Y502537D01*
X71609Y502531D01*
X71524Y502522D01*
X71439Y502509D01*
X71356Y502492D01*
X71272Y502471D01*
X71190Y502447D01*
X71110Y502419D01*
X71030Y502387D01*
X70952Y502352D01*
X70875Y502314D01*
X70801Y502272D01*
X70728Y502227D01*
X70657Y502179D01*
X70589Y502128D01*
X70522Y502074D01*
X70459Y502016D01*
X70398Y501957D01*
X70339Y501894D01*
X70284Y501829D01*
X70231Y501761D01*
X70181Y501692D01*
X70135Y501620D01*
X70092Y501546D01*
X70052Y501470D01*
X70015Y501393D01*
X69982Y501314D01*
X69952Y501234D01*
X69953Y501234D02*
X69874Y501067D01*
X69799Y500898D01*
X69728Y500727D01*
X69661Y500555D01*
X69599Y500381D01*
X69540Y500205D01*
X69486Y500029D01*
X69436Y499851D01*
X69390Y499671D01*
X69348Y499491D01*
X69311Y499310D01*
X69278Y499128D01*
X69249Y498946D01*
X69225Y498762D01*
X69205Y498578D01*
X69190Y498394D01*
X69179Y498210D01*
X69172Y498025D01*
X69170Y497840D01*
X74391Y497840D02*
X74389Y497655D01*
X74382Y497470D01*
X74371Y497286D01*
X74356Y497102D01*
X74336Y496918D01*
X74312Y496734D01*
X74283Y496552D01*
X74250Y496370D01*
X74213Y496189D01*
X74171Y496009D01*
X74125Y495829D01*
X74075Y495651D01*
X74021Y495475D01*
X73962Y495299D01*
X73900Y495125D01*
X73833Y494953D01*
X73762Y494782D01*
X73687Y494613D01*
X73608Y494446D01*
X73578Y494366D01*
X73545Y494287D01*
X73508Y494210D01*
X73468Y494134D01*
X73425Y494060D01*
X73379Y493988D01*
X73329Y493919D01*
X73276Y493851D01*
X73221Y493786D01*
X73162Y493723D01*
X73101Y493664D01*
X73038Y493606D01*
X72971Y493552D01*
X72903Y493501D01*
X72832Y493453D01*
X72759Y493408D01*
X72685Y493366D01*
X72608Y493328D01*
X72530Y493293D01*
X72451Y493261D01*
X72370Y493233D01*
X72288Y493209D01*
X72204Y493188D01*
X72121Y493171D01*
X72036Y493158D01*
X71951Y493149D01*
X71866Y493143D01*
X71780Y493141D01*
X69953Y494446D02*
X69874Y494613D01*
X69799Y494782D01*
X69728Y494953D01*
X69661Y495125D01*
X69599Y495299D01*
X69540Y495475D01*
X69486Y495651D01*
X69436Y495829D01*
X69390Y496009D01*
X69348Y496189D01*
X69311Y496370D01*
X69278Y496552D01*
X69249Y496734D01*
X69225Y496918D01*
X69205Y497102D01*
X69190Y497286D01*
X69179Y497470D01*
X69172Y497655D01*
X69170Y497840D01*
X69952Y494446D02*
X69982Y494366D01*
X70015Y494287D01*
X70052Y494210D01*
X70092Y494134D01*
X70135Y494060D01*
X70181Y493988D01*
X70231Y493919D01*
X70284Y493851D01*
X70339Y493786D01*
X70398Y493723D01*
X70459Y493664D01*
X70522Y493606D01*
X70589Y493552D01*
X70657Y493501D01*
X70728Y493453D01*
X70801Y493408D01*
X70875Y493366D01*
X70952Y493328D01*
X71030Y493293D01*
X71110Y493261D01*
X71190Y493233D01*
X71272Y493209D01*
X71356Y493188D01*
X71439Y493171D01*
X71524Y493158D01*
X71609Y493149D01*
X71694Y493143D01*
X71780Y493141D01*
X73869Y495229D02*
X69692Y500451D01*
X78028Y485994D02*
X78107Y485827D01*
X78182Y485658D01*
X78253Y485487D01*
X78320Y485315D01*
X78382Y485141D01*
X78441Y484965D01*
X78495Y484789D01*
X78545Y484611D01*
X78591Y484431D01*
X78633Y484251D01*
X78670Y484070D01*
X78703Y483888D01*
X78732Y483706D01*
X78756Y483522D01*
X78776Y483338D01*
X78791Y483154D01*
X78802Y482970D01*
X78809Y482785D01*
X78811Y482600D01*
X78028Y485994D02*
X77998Y486074D01*
X77965Y486153D01*
X77928Y486230D01*
X77888Y486306D01*
X77845Y486380D01*
X77799Y486452D01*
X77749Y486521D01*
X77697Y486589D01*
X77641Y486654D01*
X77583Y486717D01*
X77521Y486776D01*
X77458Y486834D01*
X77391Y486888D01*
X77323Y486939D01*
X77252Y486987D01*
X77179Y487032D01*
X77105Y487074D01*
X77028Y487112D01*
X76950Y487147D01*
X76871Y487179D01*
X76790Y487207D01*
X76708Y487231D01*
X76624Y487252D01*
X76541Y487269D01*
X76456Y487282D01*
X76371Y487291D01*
X76286Y487297D01*
X76200Y487299D01*
X76114Y487297D01*
X76029Y487291D01*
X75944Y487282D01*
X75859Y487269D01*
X75776Y487252D01*
X75692Y487231D01*
X75610Y487207D01*
X75530Y487179D01*
X75450Y487147D01*
X75372Y487112D01*
X75295Y487074D01*
X75221Y487032D01*
X75148Y486987D01*
X75077Y486939D01*
X75009Y486888D01*
X74942Y486834D01*
X74879Y486776D01*
X74818Y486717D01*
X74759Y486654D01*
X74704Y486589D01*
X74651Y486521D01*
X74601Y486452D01*
X74555Y486380D01*
X74512Y486306D01*
X74472Y486230D01*
X74435Y486153D01*
X74402Y486074D01*
X74372Y485994D01*
X74293Y485827D01*
X74218Y485658D01*
X74147Y485487D01*
X74080Y485315D01*
X74018Y485141D01*
X73959Y484965D01*
X73905Y484789D01*
X73855Y484611D01*
X73809Y484431D01*
X73767Y484251D01*
X73730Y484070D01*
X73697Y483888D01*
X73668Y483706D01*
X73644Y483522D01*
X73624Y483338D01*
X73609Y483154D01*
X73598Y482970D01*
X73591Y482785D01*
X73589Y482600D01*
X78811Y482600D02*
X78809Y482415D01*
X78802Y482230D01*
X78791Y482046D01*
X78776Y481862D01*
X78756Y481678D01*
X78732Y481494D01*
X78703Y481312D01*
X78670Y481130D01*
X78633Y480949D01*
X78591Y480769D01*
X78545Y480589D01*
X78495Y480411D01*
X78441Y480235D01*
X78382Y480059D01*
X78320Y479885D01*
X78253Y479713D01*
X78182Y479542D01*
X78107Y479373D01*
X78028Y479206D01*
X77998Y479126D01*
X77965Y479047D01*
X77928Y478970D01*
X77888Y478894D01*
X77845Y478820D01*
X77799Y478748D01*
X77749Y478679D01*
X77696Y478611D01*
X77641Y478546D01*
X77582Y478483D01*
X77521Y478424D01*
X77458Y478366D01*
X77391Y478312D01*
X77323Y478261D01*
X77252Y478213D01*
X77179Y478168D01*
X77105Y478126D01*
X77028Y478088D01*
X76950Y478053D01*
X76871Y478021D01*
X76790Y477993D01*
X76708Y477969D01*
X76624Y477948D01*
X76541Y477931D01*
X76456Y477918D01*
X76371Y477909D01*
X76286Y477903D01*
X76200Y477901D01*
X74372Y479206D02*
X74293Y479373D01*
X74218Y479542D01*
X74147Y479713D01*
X74080Y479885D01*
X74018Y480059D01*
X73959Y480235D01*
X73905Y480411D01*
X73855Y480589D01*
X73809Y480769D01*
X73767Y480949D01*
X73730Y481130D01*
X73697Y481312D01*
X73668Y481494D01*
X73644Y481678D01*
X73624Y481862D01*
X73609Y482046D01*
X73598Y482230D01*
X73591Y482415D01*
X73589Y482600D01*
X74372Y479206D02*
X74402Y479126D01*
X74435Y479047D01*
X74472Y478970D01*
X74512Y478894D01*
X74555Y478820D01*
X74601Y478748D01*
X74651Y478679D01*
X74704Y478611D01*
X74759Y478546D01*
X74818Y478483D01*
X74879Y478424D01*
X74942Y478366D01*
X75009Y478312D01*
X75077Y478261D01*
X75148Y478213D01*
X75221Y478168D01*
X75295Y478126D01*
X75372Y478088D01*
X75450Y478053D01*
X75530Y478021D01*
X75610Y477993D01*
X75692Y477969D01*
X75776Y477948D01*
X75859Y477931D01*
X75944Y477918D01*
X76029Y477909D01*
X76114Y477903D01*
X76200Y477901D01*
X78288Y479989D02*
X74112Y485211D01*
X73589Y472059D02*
X78811Y472059D01*
X73589Y472059D02*
X78811Y462661D01*
X73589Y462661D01*
X76200Y456819D02*
X78811Y454731D01*
X76200Y456819D02*
X76200Y447421D01*
X78811Y447421D02*
X73589Y447421D01*
X78028Y440274D02*
X78107Y440107D01*
X78182Y439938D01*
X78253Y439767D01*
X78320Y439595D01*
X78382Y439421D01*
X78441Y439245D01*
X78495Y439069D01*
X78545Y438891D01*
X78591Y438711D01*
X78633Y438531D01*
X78670Y438350D01*
X78703Y438168D01*
X78732Y437986D01*
X78756Y437802D01*
X78776Y437618D01*
X78791Y437434D01*
X78802Y437250D01*
X78809Y437065D01*
X78811Y436880D01*
X78028Y440274D02*
X77998Y440354D01*
X77965Y440433D01*
X77928Y440510D01*
X77888Y440586D01*
X77845Y440660D01*
X77799Y440732D01*
X77749Y440801D01*
X77697Y440869D01*
X77641Y440934D01*
X77583Y440997D01*
X77521Y441056D01*
X77458Y441114D01*
X77391Y441168D01*
X77323Y441219D01*
X77252Y441267D01*
X77179Y441312D01*
X77105Y441354D01*
X77028Y441392D01*
X76950Y441427D01*
X76871Y441459D01*
X76790Y441487D01*
X76708Y441511D01*
X76624Y441532D01*
X76541Y441549D01*
X76456Y441562D01*
X76371Y441571D01*
X76286Y441577D01*
X76200Y441579D01*
X76114Y441577D01*
X76029Y441571D01*
X75944Y441562D01*
X75859Y441549D01*
X75776Y441532D01*
X75692Y441511D01*
X75610Y441487D01*
X75530Y441459D01*
X75450Y441427D01*
X75372Y441392D01*
X75295Y441354D01*
X75221Y441312D01*
X75148Y441267D01*
X75077Y441219D01*
X75009Y441168D01*
X74942Y441114D01*
X74879Y441056D01*
X74818Y440997D01*
X74759Y440934D01*
X74704Y440869D01*
X74651Y440801D01*
X74601Y440732D01*
X74555Y440660D01*
X74512Y440586D01*
X74472Y440510D01*
X74435Y440433D01*
X74402Y440354D01*
X74372Y440274D01*
X74293Y440107D01*
X74218Y439938D01*
X74147Y439767D01*
X74080Y439595D01*
X74018Y439421D01*
X73959Y439245D01*
X73905Y439069D01*
X73855Y438891D01*
X73809Y438711D01*
X73767Y438531D01*
X73730Y438350D01*
X73697Y438168D01*
X73668Y437986D01*
X73644Y437802D01*
X73624Y437618D01*
X73609Y437434D01*
X73598Y437250D01*
X73591Y437065D01*
X73589Y436880D01*
X78811Y436880D02*
X78809Y436695D01*
X78802Y436510D01*
X78791Y436326D01*
X78776Y436142D01*
X78756Y435958D01*
X78732Y435774D01*
X78703Y435592D01*
X78670Y435410D01*
X78633Y435229D01*
X78591Y435049D01*
X78545Y434869D01*
X78495Y434691D01*
X78441Y434515D01*
X78382Y434339D01*
X78320Y434165D01*
X78253Y433993D01*
X78182Y433822D01*
X78107Y433653D01*
X78028Y433486D01*
X77998Y433406D01*
X77965Y433327D01*
X77928Y433250D01*
X77888Y433174D01*
X77845Y433100D01*
X77799Y433028D01*
X77749Y432959D01*
X77696Y432891D01*
X77641Y432826D01*
X77582Y432763D01*
X77521Y432704D01*
X77458Y432646D01*
X77391Y432592D01*
X77323Y432541D01*
X77252Y432493D01*
X77179Y432448D01*
X77105Y432406D01*
X77028Y432368D01*
X76950Y432333D01*
X76871Y432301D01*
X76790Y432273D01*
X76708Y432249D01*
X76624Y432228D01*
X76541Y432211D01*
X76456Y432198D01*
X76371Y432189D01*
X76286Y432183D01*
X76200Y432181D01*
X74372Y433486D02*
X74293Y433653D01*
X74218Y433822D01*
X74147Y433993D01*
X74080Y434165D01*
X74018Y434339D01*
X73959Y434515D01*
X73905Y434691D01*
X73855Y434869D01*
X73809Y435049D01*
X73767Y435229D01*
X73730Y435410D01*
X73697Y435592D01*
X73668Y435774D01*
X73644Y435958D01*
X73624Y436142D01*
X73609Y436326D01*
X73598Y436510D01*
X73591Y436695D01*
X73589Y436880D01*
X74372Y433486D02*
X74402Y433406D01*
X74435Y433327D01*
X74472Y433250D01*
X74512Y433174D01*
X74555Y433100D01*
X74601Y433028D01*
X74651Y432959D01*
X74704Y432891D01*
X74759Y432826D01*
X74818Y432763D01*
X74879Y432704D01*
X74942Y432646D01*
X75009Y432592D01*
X75077Y432541D01*
X75148Y432493D01*
X75221Y432448D01*
X75295Y432406D01*
X75372Y432368D01*
X75450Y432333D01*
X75530Y432301D01*
X75610Y432273D01*
X75692Y432249D01*
X75776Y432228D01*
X75859Y432211D01*
X75944Y432198D01*
X76029Y432189D01*
X76114Y432183D01*
X76200Y432181D01*
X78288Y434269D02*
X74112Y439491D01*
X73589Y426339D02*
X78811Y426339D01*
X73589Y426339D02*
X78811Y416941D01*
X73589Y416941D01*
X76200Y411099D02*
X78811Y409011D01*
X76200Y411099D02*
X76200Y401701D01*
X78811Y401701D02*
X73589Y401701D01*
X78028Y394554D02*
X78107Y394387D01*
X78182Y394218D01*
X78253Y394047D01*
X78320Y393875D01*
X78382Y393701D01*
X78441Y393525D01*
X78495Y393349D01*
X78545Y393171D01*
X78591Y392991D01*
X78633Y392811D01*
X78670Y392630D01*
X78703Y392448D01*
X78732Y392266D01*
X78756Y392082D01*
X78776Y391898D01*
X78791Y391714D01*
X78802Y391530D01*
X78809Y391345D01*
X78811Y391160D01*
X78028Y394554D02*
X77998Y394634D01*
X77965Y394713D01*
X77928Y394790D01*
X77888Y394866D01*
X77845Y394940D01*
X77799Y395012D01*
X77749Y395081D01*
X77697Y395149D01*
X77641Y395214D01*
X77583Y395277D01*
X77521Y395336D01*
X77458Y395394D01*
X77391Y395448D01*
X77323Y395499D01*
X77252Y395547D01*
X77179Y395592D01*
X77105Y395634D01*
X77028Y395672D01*
X76950Y395707D01*
X76871Y395739D01*
X76790Y395767D01*
X76708Y395791D01*
X76624Y395812D01*
X76541Y395829D01*
X76456Y395842D01*
X76371Y395851D01*
X76286Y395857D01*
X76200Y395859D01*
X76114Y395857D01*
X76029Y395851D01*
X75944Y395842D01*
X75859Y395829D01*
X75776Y395812D01*
X75692Y395791D01*
X75610Y395767D01*
X75530Y395739D01*
X75450Y395707D01*
X75372Y395672D01*
X75295Y395634D01*
X75221Y395592D01*
X75148Y395547D01*
X75077Y395499D01*
X75009Y395448D01*
X74942Y395394D01*
X74879Y395336D01*
X74818Y395277D01*
X74759Y395214D01*
X74704Y395149D01*
X74651Y395081D01*
X74601Y395012D01*
X74555Y394940D01*
X74512Y394866D01*
X74472Y394790D01*
X74435Y394713D01*
X74402Y394634D01*
X74372Y394554D01*
X74293Y394387D01*
X74218Y394218D01*
X74147Y394047D01*
X74080Y393875D01*
X74018Y393701D01*
X73959Y393525D01*
X73905Y393349D01*
X73855Y393171D01*
X73809Y392991D01*
X73767Y392811D01*
X73730Y392630D01*
X73697Y392448D01*
X73668Y392266D01*
X73644Y392082D01*
X73624Y391898D01*
X73609Y391714D01*
X73598Y391530D01*
X73591Y391345D01*
X73589Y391160D01*
X78811Y391160D02*
X78809Y390975D01*
X78802Y390790D01*
X78791Y390606D01*
X78776Y390422D01*
X78756Y390238D01*
X78732Y390054D01*
X78703Y389872D01*
X78670Y389690D01*
X78633Y389509D01*
X78591Y389329D01*
X78545Y389149D01*
X78495Y388971D01*
X78441Y388795D01*
X78382Y388619D01*
X78320Y388445D01*
X78253Y388273D01*
X78182Y388102D01*
X78107Y387933D01*
X78028Y387766D01*
X77998Y387686D01*
X77965Y387607D01*
X77928Y387530D01*
X77888Y387454D01*
X77845Y387380D01*
X77799Y387308D01*
X77749Y387239D01*
X77696Y387171D01*
X77641Y387106D01*
X77582Y387043D01*
X77521Y386984D01*
X77458Y386926D01*
X77391Y386872D01*
X77323Y386821D01*
X77252Y386773D01*
X77179Y386728D01*
X77105Y386686D01*
X77028Y386648D01*
X76950Y386613D01*
X76871Y386581D01*
X76790Y386553D01*
X76708Y386529D01*
X76624Y386508D01*
X76541Y386491D01*
X76456Y386478D01*
X76371Y386469D01*
X76286Y386463D01*
X76200Y386461D01*
X74372Y387766D02*
X74293Y387933D01*
X74218Y388102D01*
X74147Y388273D01*
X74080Y388445D01*
X74018Y388619D01*
X73959Y388795D01*
X73905Y388971D01*
X73855Y389149D01*
X73809Y389329D01*
X73767Y389509D01*
X73730Y389690D01*
X73697Y389872D01*
X73668Y390054D01*
X73644Y390238D01*
X73624Y390422D01*
X73609Y390606D01*
X73598Y390790D01*
X73591Y390975D01*
X73589Y391160D01*
X74372Y387766D02*
X74402Y387686D01*
X74435Y387607D01*
X74472Y387530D01*
X74512Y387454D01*
X74555Y387380D01*
X74601Y387308D01*
X74651Y387239D01*
X74704Y387171D01*
X74759Y387106D01*
X74818Y387043D01*
X74879Y386984D01*
X74942Y386926D01*
X75009Y386872D01*
X75077Y386821D01*
X75148Y386773D01*
X75221Y386728D01*
X75295Y386686D01*
X75372Y386648D01*
X75450Y386613D01*
X75530Y386581D01*
X75610Y386553D01*
X75692Y386529D01*
X75776Y386508D01*
X75859Y386491D01*
X75944Y386478D01*
X76029Y386469D01*
X76114Y386463D01*
X76200Y386461D01*
X78288Y388549D02*
X74112Y393771D01*
X73589Y380619D02*
X78811Y380619D01*
X73589Y380619D02*
X78811Y371221D01*
X73589Y371221D01*
X76200Y365379D02*
X78811Y363291D01*
X76200Y365379D02*
X76200Y355981D01*
X78811Y355981D02*
X73589Y355981D01*
X59610Y493141D02*
X57521Y493141D01*
X59610Y493141D02*
X59699Y493143D01*
X59787Y493149D01*
X59875Y493158D01*
X59963Y493171D01*
X60050Y493188D01*
X60136Y493208D01*
X60221Y493233D01*
X60306Y493260D01*
X60389Y493292D01*
X60470Y493326D01*
X60550Y493365D01*
X60628Y493406D01*
X60705Y493451D01*
X60779Y493499D01*
X60852Y493550D01*
X60922Y493604D01*
X60989Y493662D01*
X61055Y493722D01*
X61117Y493784D01*
X61177Y493850D01*
X61235Y493917D01*
X61289Y493987D01*
X61340Y494060D01*
X61388Y494134D01*
X61433Y494211D01*
X61474Y494289D01*
X61513Y494369D01*
X61547Y494450D01*
X61579Y494533D01*
X61606Y494618D01*
X61631Y494703D01*
X61651Y494789D01*
X61668Y494876D01*
X61681Y494964D01*
X61690Y495052D01*
X61696Y495140D01*
X61698Y495229D01*
X61698Y500451D01*
X61696Y500540D01*
X61690Y500628D01*
X61681Y500716D01*
X61668Y500804D01*
X61651Y500891D01*
X61631Y500977D01*
X61606Y501062D01*
X61579Y501147D01*
X61547Y501230D01*
X61513Y501311D01*
X61474Y501391D01*
X61433Y501469D01*
X61388Y501546D01*
X61340Y501620D01*
X61289Y501693D01*
X61235Y501763D01*
X61177Y501830D01*
X61117Y501896D01*
X61055Y501958D01*
X60989Y502018D01*
X60922Y502076D01*
X60852Y502130D01*
X60779Y502181D01*
X60705Y502229D01*
X60628Y502274D01*
X60550Y502315D01*
X60470Y502354D01*
X60389Y502388D01*
X60306Y502420D01*
X60221Y502447D01*
X60136Y502472D01*
X60050Y502492D01*
X59963Y502509D01*
X59875Y502522D01*
X59787Y502531D01*
X59699Y502537D01*
X59610Y502539D01*
X57521Y502539D01*
X54015Y502539D02*
X54015Y494707D01*
X54014Y494707D02*
X54012Y494630D01*
X54006Y494554D01*
X53997Y494477D01*
X53984Y494401D01*
X53967Y494326D01*
X53947Y494252D01*
X53922Y494179D01*
X53895Y494108D01*
X53864Y494037D01*
X53829Y493969D01*
X53791Y493902D01*
X53750Y493837D01*
X53706Y493774D01*
X53659Y493714D01*
X53608Y493655D01*
X53555Y493600D01*
X53500Y493547D01*
X53441Y493496D01*
X53381Y493449D01*
X53318Y493405D01*
X53253Y493364D01*
X53186Y493326D01*
X53118Y493291D01*
X53047Y493260D01*
X52976Y493233D01*
X52903Y493208D01*
X52829Y493188D01*
X52754Y493171D01*
X52678Y493158D01*
X52601Y493149D01*
X52525Y493143D01*
X52448Y493141D01*
X49263Y495229D02*
X49263Y497318D01*
X49261Y497408D01*
X49255Y497497D01*
X49246Y497587D01*
X49232Y497676D01*
X49215Y497764D01*
X49194Y497851D01*
X49169Y497938D01*
X49140Y498023D01*
X49108Y498107D01*
X49073Y498189D01*
X49033Y498270D01*
X48991Y498349D01*
X48945Y498426D01*
X48895Y498501D01*
X48843Y498574D01*
X48787Y498645D01*
X48729Y498713D01*
X48667Y498778D01*
X48603Y498841D01*
X48536Y498901D01*
X48467Y498958D01*
X48395Y499012D01*
X48321Y499063D01*
X48245Y499111D01*
X48167Y499155D01*
X48087Y499196D01*
X48005Y499234D01*
X47922Y499268D01*
X47837Y499298D01*
X47751Y499325D01*
X47665Y499348D01*
X47577Y499367D01*
X47488Y499382D01*
X47399Y499394D01*
X47310Y499402D01*
X47220Y499406D01*
X47130Y499406D01*
X47040Y499402D01*
X46951Y499394D01*
X46862Y499382D01*
X46773Y499367D01*
X46685Y499348D01*
X46599Y499325D01*
X46513Y499298D01*
X46428Y499268D01*
X46345Y499234D01*
X46263Y499196D01*
X46183Y499155D01*
X46105Y499111D01*
X46029Y499063D01*
X45955Y499012D01*
X45883Y498958D01*
X45814Y498901D01*
X45747Y498841D01*
X45683Y498778D01*
X45621Y498713D01*
X45563Y498645D01*
X45507Y498574D01*
X45455Y498501D01*
X45405Y498426D01*
X45359Y498349D01*
X45317Y498270D01*
X45277Y498189D01*
X45242Y498107D01*
X45210Y498023D01*
X45181Y497938D01*
X45156Y497851D01*
X45135Y497764D01*
X45118Y497676D01*
X45104Y497587D01*
X45095Y497497D01*
X45089Y497408D01*
X45087Y497318D01*
X45087Y495229D01*
X45089Y495139D01*
X45095Y495050D01*
X45104Y494960D01*
X45118Y494871D01*
X45135Y494783D01*
X45156Y494696D01*
X45181Y494609D01*
X45210Y494524D01*
X45242Y494440D01*
X45277Y494358D01*
X45317Y494277D01*
X45359Y494198D01*
X45405Y494121D01*
X45455Y494046D01*
X45507Y493973D01*
X45563Y493902D01*
X45621Y493834D01*
X45683Y493769D01*
X45747Y493706D01*
X45814Y493646D01*
X45883Y493589D01*
X45955Y493535D01*
X46029Y493484D01*
X46105Y493436D01*
X46183Y493392D01*
X46263Y493351D01*
X46345Y493313D01*
X46428Y493279D01*
X46513Y493249D01*
X46599Y493222D01*
X46685Y493199D01*
X46773Y493180D01*
X46862Y493165D01*
X46951Y493153D01*
X47040Y493145D01*
X47130Y493141D01*
X47220Y493141D01*
X47310Y493145D01*
X47399Y493153D01*
X47488Y493165D01*
X47577Y493180D01*
X47665Y493199D01*
X47751Y493222D01*
X47837Y493249D01*
X47922Y493279D01*
X48005Y493313D01*
X48087Y493351D01*
X48167Y493392D01*
X48245Y493436D01*
X48321Y493484D01*
X48395Y493535D01*
X48467Y493589D01*
X48536Y493646D01*
X48603Y493706D01*
X48667Y493769D01*
X48729Y493834D01*
X48787Y493902D01*
X48843Y493973D01*
X48895Y494046D01*
X48945Y494121D01*
X48991Y494198D01*
X49033Y494277D01*
X49073Y494358D01*
X49108Y494440D01*
X49140Y494524D01*
X49169Y494609D01*
X49194Y494696D01*
X49215Y494783D01*
X49232Y494871D01*
X49246Y494960D01*
X49255Y495050D01*
X49261Y495139D01*
X49263Y495229D01*
X39762Y493141D02*
X37674Y493141D01*
X39762Y493141D02*
X39839Y493143D01*
X39915Y493149D01*
X39992Y493158D01*
X40068Y493171D01*
X40143Y493188D01*
X40217Y493208D01*
X40290Y493233D01*
X40361Y493260D01*
X40432Y493291D01*
X40500Y493326D01*
X40567Y493364D01*
X40632Y493405D01*
X40695Y493449D01*
X40755Y493496D01*
X40814Y493547D01*
X40869Y493600D01*
X40922Y493655D01*
X40973Y493714D01*
X41020Y493774D01*
X41064Y493837D01*
X41105Y493902D01*
X41143Y493969D01*
X41178Y494037D01*
X41209Y494108D01*
X41236Y494179D01*
X41261Y494252D01*
X41281Y494326D01*
X41298Y494401D01*
X41311Y494477D01*
X41320Y494554D01*
X41326Y494630D01*
X41328Y494707D01*
X41328Y497840D01*
X41326Y497917D01*
X41320Y497993D01*
X41311Y498070D01*
X41298Y498146D01*
X41281Y498221D01*
X41261Y498295D01*
X41236Y498368D01*
X41209Y498439D01*
X41178Y498510D01*
X41143Y498578D01*
X41105Y498645D01*
X41064Y498710D01*
X41020Y498773D01*
X40973Y498833D01*
X40922Y498892D01*
X40869Y498947D01*
X40814Y499000D01*
X40755Y499051D01*
X40695Y499098D01*
X40632Y499142D01*
X40567Y499183D01*
X40500Y499221D01*
X40432Y499256D01*
X40361Y499287D01*
X40290Y499314D01*
X40217Y499339D01*
X40143Y499359D01*
X40068Y499376D01*
X39992Y499389D01*
X39915Y499398D01*
X39839Y499404D01*
X39762Y499406D01*
X37674Y499406D01*
X33919Y502539D02*
X33919Y493141D01*
X33919Y496274D02*
X29742Y499406D01*
X32091Y497579D02*
X29742Y493141D01*
X50096Y487299D02*
X52184Y479989D01*
X46963Y479989D01*
X48530Y477901D02*
X48530Y482078D01*
X43433Y477901D02*
X39256Y484166D01*
X43433Y484166D02*
X39256Y477901D01*
X55452Y462661D02*
X58585Y462661D01*
X55452Y462661D02*
X55363Y462663D01*
X55275Y462669D01*
X55187Y462678D01*
X55099Y462691D01*
X55012Y462708D01*
X54926Y462728D01*
X54841Y462753D01*
X54756Y462780D01*
X54673Y462812D01*
X54592Y462846D01*
X54512Y462885D01*
X54434Y462926D01*
X54357Y462971D01*
X54283Y463019D01*
X54210Y463070D01*
X54140Y463124D01*
X54073Y463182D01*
X54007Y463242D01*
X53945Y463304D01*
X53885Y463370D01*
X53827Y463437D01*
X53773Y463507D01*
X53722Y463580D01*
X53674Y463654D01*
X53629Y463731D01*
X53588Y463809D01*
X53549Y463889D01*
X53515Y463970D01*
X53483Y464053D01*
X53456Y464138D01*
X53431Y464223D01*
X53411Y464309D01*
X53394Y464396D01*
X53381Y464484D01*
X53372Y464572D01*
X53366Y464660D01*
X53364Y464749D01*
X53364Y465794D01*
X53366Y465883D01*
X53372Y465971D01*
X53381Y466059D01*
X53394Y466147D01*
X53411Y466234D01*
X53431Y466320D01*
X53456Y466405D01*
X53483Y466490D01*
X53515Y466573D01*
X53549Y466654D01*
X53588Y466734D01*
X53629Y466812D01*
X53674Y466889D01*
X53722Y466963D01*
X53773Y467036D01*
X53827Y467106D01*
X53885Y467173D01*
X53945Y467239D01*
X54007Y467301D01*
X54073Y467361D01*
X54140Y467419D01*
X54210Y467473D01*
X54283Y467524D01*
X54357Y467572D01*
X54434Y467617D01*
X54512Y467658D01*
X54592Y467697D01*
X54673Y467731D01*
X54756Y467763D01*
X54841Y467790D01*
X54926Y467815D01*
X55012Y467835D01*
X55099Y467852D01*
X55187Y467865D01*
X55275Y467874D01*
X55363Y467880D01*
X55452Y467882D01*
X58585Y467882D01*
X58585Y472059D01*
X53364Y472059D01*
X49835Y463183D02*
X49835Y462661D01*
X49835Y463183D02*
X49313Y463183D01*
X49313Y462661D01*
X49835Y462661D01*
X45783Y462661D02*
X43173Y462661D01*
X43072Y462663D01*
X42971Y462669D01*
X42870Y462679D01*
X42770Y462692D01*
X42670Y462710D01*
X42571Y462731D01*
X42473Y462757D01*
X42376Y462786D01*
X42280Y462818D01*
X42186Y462855D01*
X42093Y462895D01*
X42001Y462939D01*
X41912Y462986D01*
X41824Y463037D01*
X41738Y463091D01*
X41655Y463148D01*
X41573Y463208D01*
X41495Y463272D01*
X41418Y463338D01*
X41345Y463408D01*
X41274Y463480D01*
X41206Y463555D01*
X41141Y463633D01*
X41079Y463713D01*
X41020Y463795D01*
X40964Y463880D01*
X40912Y463967D01*
X40863Y464055D01*
X40817Y464146D01*
X40776Y464238D01*
X40737Y464332D01*
X40703Y464427D01*
X40672Y464523D01*
X40645Y464621D01*
X40621Y464719D01*
X40602Y464819D01*
X40586Y464919D01*
X40574Y465019D01*
X40566Y465120D01*
X40562Y465221D01*
X40562Y465323D01*
X40566Y465424D01*
X40574Y465525D01*
X40586Y465625D01*
X40602Y465725D01*
X40621Y465825D01*
X40645Y465923D01*
X40672Y466021D01*
X40703Y466117D01*
X40737Y466212D01*
X40776Y466306D01*
X40817Y466398D01*
X40863Y466489D01*
X40912Y466578D01*
X40964Y466664D01*
X41020Y466749D01*
X41079Y466831D01*
X41141Y466911D01*
X41206Y466989D01*
X41274Y467064D01*
X41345Y467136D01*
X41418Y467206D01*
X41495Y467272D01*
X41573Y467336D01*
X41655Y467396D01*
X41738Y467453D01*
X41824Y467507D01*
X41912Y467558D01*
X42001Y467605D01*
X42093Y467649D01*
X42186Y467689D01*
X42280Y467726D01*
X42376Y467758D01*
X42473Y467787D01*
X42571Y467813D01*
X42670Y467834D01*
X42770Y467852D01*
X42870Y467865D01*
X42971Y467875D01*
X43072Y467881D01*
X43173Y467883D01*
X42651Y472059D02*
X45783Y472059D01*
X42651Y472059D02*
X42561Y472057D01*
X42472Y472051D01*
X42382Y472042D01*
X42293Y472028D01*
X42205Y472011D01*
X42118Y471990D01*
X42031Y471965D01*
X41946Y471936D01*
X41862Y471904D01*
X41780Y471869D01*
X41699Y471829D01*
X41620Y471787D01*
X41543Y471741D01*
X41468Y471691D01*
X41395Y471639D01*
X41324Y471583D01*
X41256Y471525D01*
X41191Y471463D01*
X41128Y471399D01*
X41068Y471332D01*
X41011Y471263D01*
X40957Y471191D01*
X40906Y471117D01*
X40858Y471041D01*
X40814Y470963D01*
X40773Y470883D01*
X40735Y470801D01*
X40701Y470718D01*
X40671Y470633D01*
X40644Y470547D01*
X40621Y470461D01*
X40602Y470373D01*
X40587Y470284D01*
X40575Y470195D01*
X40567Y470106D01*
X40563Y470016D01*
X40563Y469926D01*
X40567Y469836D01*
X40575Y469747D01*
X40587Y469658D01*
X40602Y469569D01*
X40621Y469481D01*
X40644Y469395D01*
X40671Y469309D01*
X40701Y469224D01*
X40735Y469141D01*
X40773Y469059D01*
X40814Y468979D01*
X40858Y468901D01*
X40906Y468825D01*
X40957Y468751D01*
X41011Y468679D01*
X41068Y468610D01*
X41128Y468543D01*
X41191Y468479D01*
X41256Y468417D01*
X41324Y468359D01*
X41395Y468303D01*
X41468Y468251D01*
X41543Y468201D01*
X41620Y468155D01*
X41699Y468113D01*
X41780Y468073D01*
X41862Y468038D01*
X41946Y468006D01*
X42031Y467977D01*
X42118Y467952D01*
X42205Y467931D01*
X42293Y467914D01*
X42382Y467900D01*
X42472Y467891D01*
X42561Y467885D01*
X42651Y467883D01*
X42651Y467882D02*
X44739Y467882D01*
X37032Y462661D02*
X32855Y468926D01*
X37032Y468926D02*
X32855Y462661D01*
X49052Y447421D02*
X52184Y447421D01*
X49052Y447421D02*
X48963Y447423D01*
X48875Y447429D01*
X48787Y447438D01*
X48699Y447451D01*
X48612Y447468D01*
X48526Y447488D01*
X48441Y447513D01*
X48356Y447540D01*
X48273Y447572D01*
X48192Y447606D01*
X48112Y447645D01*
X48034Y447686D01*
X47957Y447731D01*
X47883Y447779D01*
X47810Y447830D01*
X47740Y447884D01*
X47673Y447942D01*
X47607Y448002D01*
X47545Y448064D01*
X47485Y448130D01*
X47427Y448197D01*
X47373Y448267D01*
X47322Y448340D01*
X47274Y448414D01*
X47229Y448491D01*
X47188Y448569D01*
X47149Y448649D01*
X47115Y448730D01*
X47083Y448813D01*
X47056Y448898D01*
X47031Y448983D01*
X47011Y449069D01*
X46994Y449156D01*
X46981Y449244D01*
X46972Y449332D01*
X46966Y449420D01*
X46964Y449509D01*
X46963Y449509D02*
X46963Y450554D01*
X46964Y450554D02*
X46966Y450643D01*
X46972Y450731D01*
X46981Y450819D01*
X46994Y450907D01*
X47011Y450994D01*
X47031Y451080D01*
X47056Y451165D01*
X47083Y451250D01*
X47115Y451333D01*
X47149Y451414D01*
X47188Y451494D01*
X47229Y451572D01*
X47274Y451649D01*
X47322Y451723D01*
X47373Y451796D01*
X47427Y451866D01*
X47485Y451933D01*
X47545Y451999D01*
X47607Y452061D01*
X47673Y452121D01*
X47740Y452179D01*
X47810Y452233D01*
X47883Y452284D01*
X47957Y452332D01*
X48034Y452377D01*
X48112Y452418D01*
X48192Y452457D01*
X48273Y452491D01*
X48356Y452523D01*
X48441Y452550D01*
X48526Y452575D01*
X48612Y452595D01*
X48699Y452612D01*
X48787Y452625D01*
X48875Y452634D01*
X48963Y452640D01*
X49052Y452642D01*
X52184Y452642D01*
X52184Y456819D01*
X46963Y456819D01*
X39256Y453686D02*
X43433Y447421D01*
X39256Y447421D02*
X43433Y453686D01*
X55713Y441580D02*
X55618Y441578D01*
X55524Y441572D01*
X55430Y441563D01*
X55336Y441550D01*
X55243Y441533D01*
X55151Y441512D01*
X55059Y441487D01*
X54969Y441459D01*
X54880Y441427D01*
X54792Y441392D01*
X54706Y441353D01*
X54621Y441311D01*
X54538Y441265D01*
X54457Y441216D01*
X54378Y441164D01*
X54301Y441109D01*
X54227Y441050D01*
X54155Y440989D01*
X54085Y440925D01*
X54018Y440858D01*
X53954Y440788D01*
X53893Y440716D01*
X53834Y440642D01*
X53779Y440565D01*
X53727Y440486D01*
X53678Y440405D01*
X53632Y440322D01*
X53590Y440237D01*
X53551Y440151D01*
X53516Y440063D01*
X53484Y439974D01*
X53456Y439884D01*
X53431Y439792D01*
X53410Y439700D01*
X53393Y439607D01*
X53380Y439513D01*
X53371Y439419D01*
X53365Y439325D01*
X53363Y439230D01*
X55713Y441579D02*
X55821Y441577D01*
X55930Y441571D01*
X56038Y441561D01*
X56145Y441548D01*
X56252Y441530D01*
X56359Y441509D01*
X56464Y441484D01*
X56569Y441455D01*
X56672Y441423D01*
X56774Y441386D01*
X56875Y441346D01*
X56974Y441303D01*
X57072Y441256D01*
X57168Y441205D01*
X57262Y441151D01*
X57354Y441094D01*
X57444Y441033D01*
X57532Y440969D01*
X57617Y440903D01*
X57700Y440833D01*
X57780Y440760D01*
X57858Y440684D01*
X57933Y440606D01*
X58005Y440525D01*
X58074Y440441D01*
X58140Y440355D01*
X58203Y440267D01*
X58262Y440176D01*
X58319Y440084D01*
X58372Y439989D01*
X58421Y439892D01*
X58467Y439794D01*
X58510Y439695D01*
X58549Y439593D01*
X58584Y439491D01*
X54147Y437402D02*
X54078Y437471D01*
X54012Y437542D01*
X53948Y437615D01*
X53887Y437691D01*
X53829Y437770D01*
X53775Y437850D01*
X53723Y437933D01*
X53675Y438017D01*
X53629Y438103D01*
X53588Y438191D01*
X53549Y438281D01*
X53514Y438372D01*
X53483Y438464D01*
X53455Y438557D01*
X53431Y438651D01*
X53411Y438746D01*
X53394Y438842D01*
X53381Y438939D01*
X53372Y439036D01*
X53366Y439133D01*
X53364Y439230D01*
X54147Y437402D02*
X58585Y432181D01*
X53364Y432181D01*
X49835Y432181D02*
X49835Y432703D01*
X49313Y432703D01*
X49313Y432181D01*
X49835Y432181D01*
X45783Y432181D02*
X42651Y432181D01*
X42562Y432183D01*
X42474Y432189D01*
X42386Y432198D01*
X42298Y432211D01*
X42211Y432228D01*
X42125Y432248D01*
X42040Y432273D01*
X41955Y432300D01*
X41872Y432332D01*
X41791Y432366D01*
X41711Y432405D01*
X41633Y432446D01*
X41556Y432491D01*
X41482Y432539D01*
X41409Y432590D01*
X41339Y432644D01*
X41272Y432702D01*
X41206Y432762D01*
X41144Y432824D01*
X41084Y432890D01*
X41026Y432957D01*
X40972Y433027D01*
X40921Y433100D01*
X40873Y433174D01*
X40828Y433251D01*
X40787Y433329D01*
X40748Y433409D01*
X40714Y433490D01*
X40682Y433573D01*
X40655Y433658D01*
X40630Y433743D01*
X40610Y433829D01*
X40593Y433916D01*
X40580Y434004D01*
X40571Y434092D01*
X40565Y434180D01*
X40563Y434269D01*
X40562Y434269D02*
X40562Y435314D01*
X40563Y435314D02*
X40565Y435403D01*
X40571Y435491D01*
X40580Y435579D01*
X40593Y435667D01*
X40610Y435754D01*
X40630Y435840D01*
X40655Y435925D01*
X40682Y436010D01*
X40714Y436093D01*
X40748Y436174D01*
X40787Y436254D01*
X40828Y436332D01*
X40873Y436409D01*
X40921Y436483D01*
X40972Y436556D01*
X41026Y436626D01*
X41084Y436693D01*
X41144Y436759D01*
X41206Y436821D01*
X41272Y436881D01*
X41339Y436939D01*
X41409Y436993D01*
X41482Y437044D01*
X41556Y437092D01*
X41633Y437137D01*
X41711Y437178D01*
X41791Y437217D01*
X41872Y437251D01*
X41955Y437283D01*
X42040Y437310D01*
X42125Y437335D01*
X42211Y437355D01*
X42298Y437372D01*
X42386Y437385D01*
X42474Y437394D01*
X42562Y437400D01*
X42651Y437402D01*
X45783Y437402D01*
X45783Y441579D01*
X40562Y441579D01*
X32855Y438446D02*
X37032Y432181D01*
X32855Y432181D02*
X37032Y438446D01*
X49313Y426340D02*
X49218Y426338D01*
X49124Y426332D01*
X49030Y426323D01*
X48936Y426310D01*
X48843Y426293D01*
X48751Y426272D01*
X48659Y426247D01*
X48569Y426219D01*
X48480Y426187D01*
X48392Y426152D01*
X48306Y426113D01*
X48221Y426071D01*
X48138Y426025D01*
X48057Y425976D01*
X47978Y425924D01*
X47901Y425869D01*
X47827Y425810D01*
X47755Y425749D01*
X47685Y425685D01*
X47618Y425618D01*
X47554Y425548D01*
X47493Y425476D01*
X47434Y425402D01*
X47379Y425325D01*
X47327Y425246D01*
X47278Y425165D01*
X47232Y425082D01*
X47190Y424997D01*
X47151Y424911D01*
X47116Y424823D01*
X47084Y424734D01*
X47056Y424644D01*
X47031Y424552D01*
X47010Y424460D01*
X46993Y424367D01*
X46980Y424273D01*
X46971Y424179D01*
X46965Y424085D01*
X46963Y423990D01*
X49313Y426339D02*
X49421Y426337D01*
X49530Y426331D01*
X49638Y426321D01*
X49745Y426308D01*
X49852Y426290D01*
X49959Y426269D01*
X50064Y426244D01*
X50169Y426215D01*
X50272Y426183D01*
X50374Y426146D01*
X50475Y426106D01*
X50574Y426063D01*
X50672Y426016D01*
X50768Y425965D01*
X50862Y425911D01*
X50954Y425854D01*
X51044Y425793D01*
X51132Y425729D01*
X51217Y425663D01*
X51300Y425593D01*
X51380Y425520D01*
X51458Y425444D01*
X51533Y425366D01*
X51605Y425285D01*
X51674Y425201D01*
X51740Y425115D01*
X51803Y425027D01*
X51862Y424936D01*
X51919Y424844D01*
X51972Y424749D01*
X52021Y424652D01*
X52067Y424554D01*
X52110Y424455D01*
X52149Y424353D01*
X52184Y424251D01*
X47746Y422162D02*
X47677Y422231D01*
X47611Y422302D01*
X47547Y422375D01*
X47486Y422451D01*
X47428Y422530D01*
X47374Y422610D01*
X47322Y422693D01*
X47274Y422777D01*
X47228Y422863D01*
X47187Y422951D01*
X47148Y423041D01*
X47113Y423132D01*
X47082Y423224D01*
X47054Y423317D01*
X47030Y423411D01*
X47010Y423506D01*
X46993Y423602D01*
X46980Y423699D01*
X46971Y423796D01*
X46965Y423893D01*
X46963Y423990D01*
X47746Y422162D02*
X52184Y416941D01*
X46963Y416941D01*
X43433Y416941D02*
X39256Y423206D01*
X43433Y423206D02*
X39256Y416941D01*
X55975Y401701D02*
X58585Y401701D01*
X55975Y401701D02*
X55874Y401703D01*
X55773Y401709D01*
X55672Y401719D01*
X55572Y401732D01*
X55472Y401750D01*
X55373Y401771D01*
X55275Y401797D01*
X55178Y401826D01*
X55082Y401858D01*
X54988Y401895D01*
X54895Y401935D01*
X54803Y401979D01*
X54714Y402026D01*
X54626Y402077D01*
X54540Y402131D01*
X54457Y402188D01*
X54375Y402248D01*
X54297Y402312D01*
X54220Y402378D01*
X54147Y402448D01*
X54076Y402520D01*
X54008Y402595D01*
X53943Y402673D01*
X53881Y402753D01*
X53822Y402835D01*
X53766Y402920D01*
X53714Y403007D01*
X53665Y403095D01*
X53619Y403186D01*
X53578Y403278D01*
X53539Y403372D01*
X53505Y403467D01*
X53474Y403563D01*
X53447Y403661D01*
X53423Y403759D01*
X53404Y403859D01*
X53388Y403959D01*
X53376Y404059D01*
X53368Y404160D01*
X53364Y404261D01*
X53364Y404363D01*
X53368Y404464D01*
X53376Y404565D01*
X53388Y404665D01*
X53404Y404765D01*
X53423Y404865D01*
X53447Y404963D01*
X53474Y405061D01*
X53505Y405157D01*
X53539Y405252D01*
X53578Y405346D01*
X53619Y405438D01*
X53665Y405529D01*
X53714Y405618D01*
X53766Y405704D01*
X53822Y405789D01*
X53881Y405871D01*
X53943Y405951D01*
X54008Y406029D01*
X54076Y406104D01*
X54147Y406176D01*
X54220Y406246D01*
X54297Y406312D01*
X54375Y406376D01*
X54457Y406436D01*
X54540Y406493D01*
X54626Y406547D01*
X54714Y406598D01*
X54803Y406645D01*
X54895Y406689D01*
X54988Y406729D01*
X55082Y406766D01*
X55178Y406798D01*
X55275Y406827D01*
X55373Y406853D01*
X55472Y406874D01*
X55572Y406892D01*
X55672Y406905D01*
X55773Y406915D01*
X55874Y406921D01*
X55975Y406923D01*
X55452Y411099D02*
X58585Y411099D01*
X55452Y411099D02*
X55362Y411097D01*
X55273Y411091D01*
X55183Y411082D01*
X55094Y411068D01*
X55006Y411051D01*
X54919Y411030D01*
X54832Y411005D01*
X54747Y410976D01*
X54663Y410944D01*
X54581Y410909D01*
X54500Y410869D01*
X54421Y410827D01*
X54344Y410781D01*
X54269Y410731D01*
X54196Y410679D01*
X54125Y410623D01*
X54057Y410565D01*
X53992Y410503D01*
X53929Y410439D01*
X53869Y410372D01*
X53812Y410303D01*
X53758Y410231D01*
X53707Y410157D01*
X53659Y410081D01*
X53615Y410003D01*
X53574Y409923D01*
X53536Y409841D01*
X53502Y409758D01*
X53472Y409673D01*
X53445Y409587D01*
X53422Y409501D01*
X53403Y409413D01*
X53388Y409324D01*
X53376Y409235D01*
X53368Y409146D01*
X53364Y409056D01*
X53364Y408966D01*
X53368Y408876D01*
X53376Y408787D01*
X53388Y408698D01*
X53403Y408609D01*
X53422Y408521D01*
X53445Y408435D01*
X53472Y408349D01*
X53502Y408264D01*
X53536Y408181D01*
X53574Y408099D01*
X53615Y408019D01*
X53659Y407941D01*
X53707Y407865D01*
X53758Y407791D01*
X53812Y407719D01*
X53869Y407650D01*
X53929Y407583D01*
X53992Y407519D01*
X54057Y407457D01*
X54125Y407399D01*
X54196Y407343D01*
X54269Y407291D01*
X54344Y407241D01*
X54421Y407195D01*
X54500Y407153D01*
X54581Y407113D01*
X54663Y407078D01*
X54747Y407046D01*
X54832Y407017D01*
X54919Y406992D01*
X55006Y406971D01*
X55094Y406954D01*
X55183Y406940D01*
X55273Y406931D01*
X55362Y406925D01*
X55452Y406923D01*
X55452Y406922D02*
X57541Y406922D01*
X49835Y402223D02*
X49835Y401701D01*
X49835Y402223D02*
X49313Y402223D01*
X49313Y401701D01*
X49835Y401701D01*
X45783Y401701D02*
X43173Y401701D01*
X43072Y401703D01*
X42971Y401709D01*
X42870Y401719D01*
X42770Y401732D01*
X42670Y401750D01*
X42571Y401771D01*
X42473Y401797D01*
X42376Y401826D01*
X42280Y401858D01*
X42186Y401895D01*
X42093Y401935D01*
X42001Y401979D01*
X41912Y402026D01*
X41824Y402077D01*
X41738Y402131D01*
X41655Y402188D01*
X41573Y402248D01*
X41495Y402312D01*
X41418Y402378D01*
X41345Y402448D01*
X41274Y402520D01*
X41206Y402595D01*
X41141Y402673D01*
X41079Y402753D01*
X41020Y402835D01*
X40964Y402920D01*
X40912Y403007D01*
X40863Y403095D01*
X40817Y403186D01*
X40776Y403278D01*
X40737Y403372D01*
X40703Y403467D01*
X40672Y403563D01*
X40645Y403661D01*
X40621Y403759D01*
X40602Y403859D01*
X40586Y403959D01*
X40574Y404059D01*
X40566Y404160D01*
X40562Y404261D01*
X40562Y404363D01*
X40566Y404464D01*
X40574Y404565D01*
X40586Y404665D01*
X40602Y404765D01*
X40621Y404865D01*
X40645Y404963D01*
X40672Y405061D01*
X40703Y405157D01*
X40737Y405252D01*
X40776Y405346D01*
X40817Y405438D01*
X40863Y405529D01*
X40912Y405618D01*
X40964Y405704D01*
X41020Y405789D01*
X41079Y405871D01*
X41141Y405951D01*
X41206Y406029D01*
X41274Y406104D01*
X41345Y406176D01*
X41418Y406246D01*
X41495Y406312D01*
X41573Y406376D01*
X41655Y406436D01*
X41738Y406493D01*
X41824Y406547D01*
X41912Y406598D01*
X42001Y406645D01*
X42093Y406689D01*
X42186Y406729D01*
X42280Y406766D01*
X42376Y406798D01*
X42473Y406827D01*
X42571Y406853D01*
X42670Y406874D01*
X42770Y406892D01*
X42870Y406905D01*
X42971Y406915D01*
X43072Y406921D01*
X43173Y406923D01*
X42651Y411099D02*
X45783Y411099D01*
X42651Y411099D02*
X42561Y411097D01*
X42472Y411091D01*
X42382Y411082D01*
X42293Y411068D01*
X42205Y411051D01*
X42118Y411030D01*
X42031Y411005D01*
X41946Y410976D01*
X41862Y410944D01*
X41780Y410909D01*
X41699Y410869D01*
X41620Y410827D01*
X41543Y410781D01*
X41468Y410731D01*
X41395Y410679D01*
X41324Y410623D01*
X41256Y410565D01*
X41191Y410503D01*
X41128Y410439D01*
X41068Y410372D01*
X41011Y410303D01*
X40957Y410231D01*
X40906Y410157D01*
X40858Y410081D01*
X40814Y410003D01*
X40773Y409923D01*
X40735Y409841D01*
X40701Y409758D01*
X40671Y409673D01*
X40644Y409587D01*
X40621Y409501D01*
X40602Y409413D01*
X40587Y409324D01*
X40575Y409235D01*
X40567Y409146D01*
X40563Y409056D01*
X40563Y408966D01*
X40567Y408876D01*
X40575Y408787D01*
X40587Y408698D01*
X40602Y408609D01*
X40621Y408521D01*
X40644Y408435D01*
X40671Y408349D01*
X40701Y408264D01*
X40735Y408181D01*
X40773Y408099D01*
X40814Y408019D01*
X40858Y407941D01*
X40906Y407865D01*
X40957Y407791D01*
X41011Y407719D01*
X41068Y407650D01*
X41128Y407583D01*
X41191Y407519D01*
X41256Y407457D01*
X41324Y407399D01*
X41395Y407343D01*
X41468Y407291D01*
X41543Y407241D01*
X41620Y407195D01*
X41699Y407153D01*
X41780Y407113D01*
X41862Y407078D01*
X41946Y407046D01*
X42031Y407017D01*
X42118Y406992D01*
X42205Y406971D01*
X42293Y406954D01*
X42382Y406940D01*
X42472Y406931D01*
X42561Y406925D01*
X42651Y406923D01*
X42651Y406922D02*
X44739Y406922D01*
X37032Y401701D02*
X32855Y407966D01*
X37032Y407966D02*
X32855Y401701D01*
X49052Y391682D02*
X52184Y391682D01*
X49052Y391682D02*
X48963Y391680D01*
X48875Y391674D01*
X48787Y391665D01*
X48699Y391652D01*
X48612Y391635D01*
X48526Y391615D01*
X48441Y391590D01*
X48356Y391563D01*
X48273Y391531D01*
X48192Y391497D01*
X48112Y391458D01*
X48034Y391417D01*
X47957Y391372D01*
X47883Y391324D01*
X47810Y391273D01*
X47740Y391219D01*
X47673Y391161D01*
X47607Y391101D01*
X47545Y391039D01*
X47485Y390973D01*
X47427Y390906D01*
X47373Y390836D01*
X47322Y390763D01*
X47274Y390689D01*
X47229Y390612D01*
X47188Y390534D01*
X47149Y390454D01*
X47115Y390373D01*
X47083Y390290D01*
X47056Y390205D01*
X47031Y390120D01*
X47011Y390034D01*
X46994Y389947D01*
X46981Y389859D01*
X46972Y389771D01*
X46966Y389683D01*
X46964Y389594D01*
X46963Y389594D02*
X46963Y389072D01*
X46965Y388971D01*
X46971Y388870D01*
X46981Y388769D01*
X46994Y388669D01*
X47012Y388569D01*
X47033Y388470D01*
X47059Y388372D01*
X47088Y388275D01*
X47120Y388179D01*
X47157Y388085D01*
X47197Y387992D01*
X47241Y387900D01*
X47288Y387811D01*
X47339Y387723D01*
X47393Y387637D01*
X47450Y387554D01*
X47510Y387472D01*
X47574Y387394D01*
X47640Y387317D01*
X47710Y387244D01*
X47782Y387173D01*
X47857Y387105D01*
X47935Y387040D01*
X48015Y386978D01*
X48097Y386919D01*
X48182Y386863D01*
X48268Y386811D01*
X48357Y386762D01*
X48448Y386716D01*
X48540Y386675D01*
X48634Y386636D01*
X48729Y386602D01*
X48825Y386571D01*
X48923Y386544D01*
X49021Y386520D01*
X49121Y386501D01*
X49221Y386485D01*
X49321Y386473D01*
X49422Y386465D01*
X49523Y386461D01*
X49625Y386461D01*
X49726Y386465D01*
X49827Y386473D01*
X49927Y386485D01*
X50027Y386501D01*
X50127Y386520D01*
X50225Y386544D01*
X50323Y386571D01*
X50419Y386602D01*
X50514Y386636D01*
X50608Y386675D01*
X50700Y386716D01*
X50791Y386762D01*
X50879Y386811D01*
X50966Y386863D01*
X51051Y386919D01*
X51133Y386978D01*
X51213Y387040D01*
X51291Y387105D01*
X51366Y387173D01*
X51438Y387244D01*
X51508Y387317D01*
X51574Y387394D01*
X51638Y387472D01*
X51698Y387554D01*
X51755Y387637D01*
X51809Y387723D01*
X51860Y387811D01*
X51907Y387900D01*
X51951Y387992D01*
X51991Y388085D01*
X52028Y388179D01*
X52060Y388275D01*
X52089Y388372D01*
X52115Y388470D01*
X52136Y388569D01*
X52154Y388669D01*
X52167Y388769D01*
X52177Y388870D01*
X52183Y388971D01*
X52185Y389072D01*
X52184Y389072D02*
X52184Y391682D01*
X52182Y391808D01*
X52176Y391934D01*
X52167Y392060D01*
X52154Y392185D01*
X52136Y392310D01*
X52116Y392435D01*
X52091Y392559D01*
X52063Y392682D01*
X52031Y392804D01*
X51995Y392925D01*
X51956Y393045D01*
X51913Y393163D01*
X51866Y393280D01*
X51816Y393396D01*
X51762Y393511D01*
X51706Y393623D01*
X51645Y393734D01*
X51582Y393843D01*
X51515Y393950D01*
X51445Y394055D01*
X51371Y394158D01*
X51295Y394258D01*
X51216Y394356D01*
X51134Y394452D01*
X51048Y394545D01*
X50961Y394636D01*
X50870Y394723D01*
X50777Y394809D01*
X50681Y394891D01*
X50583Y394970D01*
X50483Y395046D01*
X50380Y395120D01*
X50275Y395190D01*
X50168Y395257D01*
X50059Y395320D01*
X49948Y395381D01*
X49836Y395437D01*
X49721Y395491D01*
X49605Y395541D01*
X49488Y395588D01*
X49370Y395631D01*
X49250Y395670D01*
X49129Y395706D01*
X49007Y395738D01*
X48884Y395766D01*
X48760Y395791D01*
X48635Y395811D01*
X48510Y395829D01*
X48385Y395842D01*
X48259Y395851D01*
X48133Y395857D01*
X48007Y395859D01*
X39256Y392726D02*
X43433Y386461D01*
X39256Y386461D02*
X43433Y392726D01*
X49574Y371221D02*
X52184Y371221D01*
X49574Y371221D02*
X49473Y371223D01*
X49372Y371229D01*
X49271Y371239D01*
X49171Y371252D01*
X49071Y371270D01*
X48972Y371291D01*
X48874Y371317D01*
X48777Y371346D01*
X48681Y371378D01*
X48587Y371415D01*
X48494Y371455D01*
X48402Y371499D01*
X48313Y371546D01*
X48225Y371597D01*
X48139Y371651D01*
X48056Y371708D01*
X47974Y371768D01*
X47896Y371832D01*
X47819Y371898D01*
X47746Y371968D01*
X47675Y372040D01*
X47607Y372115D01*
X47542Y372193D01*
X47480Y372273D01*
X47421Y372355D01*
X47365Y372440D01*
X47313Y372527D01*
X47264Y372615D01*
X47218Y372706D01*
X47177Y372798D01*
X47138Y372892D01*
X47104Y372987D01*
X47073Y373083D01*
X47046Y373181D01*
X47022Y373279D01*
X47003Y373379D01*
X46987Y373479D01*
X46975Y373579D01*
X46967Y373680D01*
X46963Y373781D01*
X46963Y373883D01*
X46967Y373984D01*
X46975Y374085D01*
X46987Y374185D01*
X47003Y374285D01*
X47022Y374385D01*
X47046Y374483D01*
X47073Y374581D01*
X47104Y374677D01*
X47138Y374772D01*
X47177Y374866D01*
X47218Y374958D01*
X47264Y375049D01*
X47313Y375138D01*
X47365Y375224D01*
X47421Y375309D01*
X47480Y375391D01*
X47542Y375471D01*
X47607Y375549D01*
X47675Y375624D01*
X47746Y375696D01*
X47819Y375766D01*
X47896Y375832D01*
X47974Y375896D01*
X48056Y375956D01*
X48139Y376013D01*
X48225Y376067D01*
X48313Y376118D01*
X48402Y376165D01*
X48494Y376209D01*
X48587Y376249D01*
X48681Y376286D01*
X48777Y376318D01*
X48874Y376347D01*
X48972Y376373D01*
X49071Y376394D01*
X49171Y376412D01*
X49271Y376425D01*
X49372Y376435D01*
X49473Y376441D01*
X49574Y376443D01*
X49052Y380619D02*
X52184Y380619D01*
X49052Y380619D02*
X48962Y380617D01*
X48873Y380611D01*
X48783Y380602D01*
X48694Y380588D01*
X48606Y380571D01*
X48519Y380550D01*
X48432Y380525D01*
X48347Y380496D01*
X48263Y380464D01*
X48181Y380429D01*
X48100Y380389D01*
X48021Y380347D01*
X47944Y380301D01*
X47869Y380251D01*
X47796Y380199D01*
X47725Y380143D01*
X47657Y380085D01*
X47592Y380023D01*
X47529Y379959D01*
X47469Y379892D01*
X47412Y379823D01*
X47358Y379751D01*
X47307Y379677D01*
X47259Y379601D01*
X47215Y379523D01*
X47174Y379443D01*
X47136Y379361D01*
X47102Y379278D01*
X47072Y379193D01*
X47045Y379107D01*
X47022Y379021D01*
X47003Y378933D01*
X46988Y378844D01*
X46976Y378755D01*
X46968Y378666D01*
X46964Y378576D01*
X46964Y378486D01*
X46968Y378396D01*
X46976Y378307D01*
X46988Y378218D01*
X47003Y378129D01*
X47022Y378041D01*
X47045Y377955D01*
X47072Y377869D01*
X47102Y377784D01*
X47136Y377701D01*
X47174Y377619D01*
X47215Y377539D01*
X47259Y377461D01*
X47307Y377385D01*
X47358Y377311D01*
X47412Y377239D01*
X47469Y377170D01*
X47529Y377103D01*
X47592Y377039D01*
X47657Y376977D01*
X47725Y376919D01*
X47796Y376863D01*
X47869Y376811D01*
X47944Y376761D01*
X48021Y376715D01*
X48100Y376673D01*
X48181Y376633D01*
X48263Y376598D01*
X48347Y376566D01*
X48432Y376537D01*
X48519Y376512D01*
X48606Y376491D01*
X48694Y376474D01*
X48783Y376460D01*
X48873Y376451D01*
X48962Y376445D01*
X49052Y376443D01*
X49052Y376442D02*
X51140Y376442D01*
X43433Y371221D02*
X39256Y377486D01*
X43433Y377486D02*
X39256Y371221D01*
X46963Y358592D02*
X46965Y358693D01*
X46971Y358794D01*
X46981Y358895D01*
X46994Y358995D01*
X47012Y359095D01*
X47033Y359194D01*
X47059Y359292D01*
X47088Y359389D01*
X47120Y359485D01*
X47157Y359579D01*
X47197Y359672D01*
X47241Y359764D01*
X47288Y359853D01*
X47339Y359941D01*
X47393Y360027D01*
X47450Y360110D01*
X47510Y360192D01*
X47574Y360270D01*
X47640Y360347D01*
X47710Y360420D01*
X47782Y360491D01*
X47857Y360559D01*
X47935Y360624D01*
X48015Y360686D01*
X48097Y360745D01*
X48182Y360801D01*
X48269Y360853D01*
X48357Y360902D01*
X48448Y360948D01*
X48540Y360989D01*
X48634Y361028D01*
X48729Y361062D01*
X48825Y361093D01*
X48923Y361120D01*
X49021Y361144D01*
X49121Y361163D01*
X49221Y361179D01*
X49321Y361191D01*
X49422Y361199D01*
X49523Y361203D01*
X49625Y361203D01*
X49726Y361199D01*
X49827Y361191D01*
X49927Y361179D01*
X50027Y361163D01*
X50127Y361144D01*
X50225Y361120D01*
X50323Y361093D01*
X50419Y361062D01*
X50514Y361028D01*
X50608Y360989D01*
X50700Y360948D01*
X50791Y360902D01*
X50880Y360853D01*
X50966Y360801D01*
X51051Y360745D01*
X51133Y360686D01*
X51213Y360624D01*
X51291Y360559D01*
X51366Y360491D01*
X51438Y360420D01*
X51508Y360347D01*
X51574Y360270D01*
X51638Y360192D01*
X51698Y360110D01*
X51755Y360027D01*
X51809Y359941D01*
X51860Y359853D01*
X51907Y359764D01*
X51951Y359672D01*
X51991Y359579D01*
X52028Y359485D01*
X52060Y359389D01*
X52089Y359292D01*
X52115Y359194D01*
X52136Y359095D01*
X52154Y358995D01*
X52167Y358895D01*
X52177Y358794D01*
X52183Y358693D01*
X52185Y358592D01*
X52183Y358491D01*
X52177Y358390D01*
X52167Y358289D01*
X52154Y358189D01*
X52136Y358089D01*
X52115Y357990D01*
X52089Y357892D01*
X52060Y357795D01*
X52028Y357699D01*
X51991Y357605D01*
X51951Y357512D01*
X51907Y357420D01*
X51860Y357331D01*
X51809Y357243D01*
X51755Y357157D01*
X51698Y357074D01*
X51638Y356992D01*
X51574Y356914D01*
X51508Y356837D01*
X51438Y356764D01*
X51366Y356693D01*
X51291Y356625D01*
X51213Y356560D01*
X51133Y356498D01*
X51051Y356439D01*
X50966Y356383D01*
X50879Y356331D01*
X50791Y356282D01*
X50700Y356236D01*
X50608Y356195D01*
X50514Y356156D01*
X50419Y356122D01*
X50323Y356091D01*
X50225Y356064D01*
X50127Y356040D01*
X50027Y356021D01*
X49927Y356005D01*
X49827Y355993D01*
X49726Y355985D01*
X49625Y355981D01*
X49523Y355981D01*
X49422Y355985D01*
X49321Y355993D01*
X49221Y356005D01*
X49121Y356021D01*
X49021Y356040D01*
X48923Y356064D01*
X48825Y356091D01*
X48729Y356122D01*
X48634Y356156D01*
X48540Y356195D01*
X48448Y356236D01*
X48357Y356282D01*
X48268Y356331D01*
X48182Y356383D01*
X48097Y356439D01*
X48015Y356498D01*
X47935Y356560D01*
X47857Y356625D01*
X47782Y356693D01*
X47710Y356764D01*
X47640Y356837D01*
X47574Y356914D01*
X47510Y356992D01*
X47450Y357074D01*
X47393Y357157D01*
X47339Y357243D01*
X47288Y357331D01*
X47241Y357420D01*
X47197Y357512D01*
X47157Y357605D01*
X47120Y357699D01*
X47088Y357795D01*
X47059Y357892D01*
X47033Y357990D01*
X47012Y358089D01*
X46994Y358189D01*
X46981Y358289D01*
X46971Y358390D01*
X46965Y358491D01*
X46963Y358592D01*
X47486Y363291D02*
X47488Y363381D01*
X47494Y363470D01*
X47503Y363560D01*
X47517Y363649D01*
X47534Y363737D01*
X47555Y363824D01*
X47580Y363911D01*
X47609Y363996D01*
X47641Y364080D01*
X47676Y364162D01*
X47716Y364243D01*
X47758Y364322D01*
X47804Y364399D01*
X47854Y364474D01*
X47906Y364547D01*
X47962Y364618D01*
X48020Y364686D01*
X48082Y364751D01*
X48146Y364814D01*
X48213Y364874D01*
X48282Y364931D01*
X48354Y364985D01*
X48428Y365036D01*
X48504Y365084D01*
X48582Y365128D01*
X48662Y365169D01*
X48744Y365207D01*
X48827Y365241D01*
X48912Y365271D01*
X48998Y365298D01*
X49084Y365321D01*
X49172Y365340D01*
X49261Y365355D01*
X49350Y365367D01*
X49439Y365375D01*
X49529Y365379D01*
X49619Y365379D01*
X49709Y365375D01*
X49798Y365367D01*
X49887Y365355D01*
X49976Y365340D01*
X50064Y365321D01*
X50150Y365298D01*
X50236Y365271D01*
X50321Y365241D01*
X50404Y365207D01*
X50486Y365169D01*
X50566Y365128D01*
X50644Y365084D01*
X50720Y365036D01*
X50794Y364985D01*
X50866Y364931D01*
X50935Y364874D01*
X51002Y364814D01*
X51066Y364751D01*
X51128Y364686D01*
X51186Y364618D01*
X51242Y364547D01*
X51294Y364474D01*
X51344Y364399D01*
X51390Y364322D01*
X51432Y364243D01*
X51472Y364162D01*
X51507Y364080D01*
X51539Y363996D01*
X51568Y363911D01*
X51593Y363824D01*
X51614Y363737D01*
X51631Y363649D01*
X51645Y363560D01*
X51654Y363470D01*
X51660Y363381D01*
X51662Y363291D01*
X51660Y363201D01*
X51654Y363112D01*
X51645Y363022D01*
X51631Y362933D01*
X51614Y362845D01*
X51593Y362758D01*
X51568Y362671D01*
X51539Y362586D01*
X51507Y362502D01*
X51472Y362420D01*
X51432Y362339D01*
X51390Y362260D01*
X51344Y362183D01*
X51294Y362108D01*
X51242Y362035D01*
X51186Y361964D01*
X51128Y361896D01*
X51066Y361831D01*
X51002Y361768D01*
X50935Y361708D01*
X50866Y361651D01*
X50794Y361597D01*
X50720Y361546D01*
X50644Y361498D01*
X50566Y361454D01*
X50486Y361413D01*
X50404Y361375D01*
X50321Y361341D01*
X50236Y361311D01*
X50150Y361284D01*
X50064Y361261D01*
X49976Y361242D01*
X49887Y361227D01*
X49798Y361215D01*
X49709Y361207D01*
X49619Y361203D01*
X49529Y361203D01*
X49439Y361207D01*
X49350Y361215D01*
X49261Y361227D01*
X49172Y361242D01*
X49084Y361261D01*
X48998Y361284D01*
X48912Y361311D01*
X48827Y361341D01*
X48744Y361375D01*
X48662Y361413D01*
X48582Y361454D01*
X48504Y361498D01*
X48428Y361546D01*
X48354Y361597D01*
X48282Y361651D01*
X48213Y361708D01*
X48146Y361768D01*
X48082Y361831D01*
X48020Y361896D01*
X47962Y361964D01*
X47906Y362035D01*
X47854Y362108D01*
X47804Y362183D01*
X47758Y362260D01*
X47716Y362339D01*
X47676Y362420D01*
X47641Y362502D01*
X47609Y362586D01*
X47580Y362671D01*
X47555Y362758D01*
X47534Y362845D01*
X47517Y362933D01*
X47503Y363022D01*
X47494Y363112D01*
X47488Y363201D01*
X47486Y363291D01*
X39256Y362246D02*
X43433Y355981D01*
X39256Y355981D02*
X43433Y362246D01*
X122301Y372638D02*
X122301Y374726D01*
X122301Y372638D02*
X122303Y372549D01*
X122309Y372461D01*
X122318Y372373D01*
X122331Y372285D01*
X122348Y372198D01*
X122368Y372112D01*
X122393Y372027D01*
X122420Y371942D01*
X122452Y371859D01*
X122486Y371778D01*
X122525Y371698D01*
X122566Y371620D01*
X122611Y371543D01*
X122659Y371469D01*
X122710Y371396D01*
X122764Y371326D01*
X122822Y371259D01*
X122882Y371193D01*
X122944Y371131D01*
X123010Y371071D01*
X123077Y371013D01*
X123147Y370959D01*
X123220Y370908D01*
X123294Y370860D01*
X123371Y370815D01*
X123449Y370774D01*
X123529Y370735D01*
X123610Y370701D01*
X123693Y370669D01*
X123778Y370642D01*
X123863Y370617D01*
X123949Y370597D01*
X124036Y370580D01*
X124124Y370567D01*
X124212Y370558D01*
X124300Y370552D01*
X124389Y370550D01*
X124389Y370549D02*
X129611Y370549D01*
X129611Y370550D02*
X129702Y370552D01*
X129793Y370558D01*
X129884Y370568D01*
X129974Y370582D01*
X130063Y370599D01*
X130151Y370621D01*
X130239Y370647D01*
X130325Y370676D01*
X130410Y370709D01*
X130493Y370746D01*
X130575Y370786D01*
X130655Y370830D01*
X130733Y370877D01*
X130809Y370928D01*
X130882Y370981D01*
X130953Y371038D01*
X131022Y371099D01*
X131087Y371162D01*
X131150Y371227D01*
X131210Y371296D01*
X131268Y371367D01*
X131321Y371440D01*
X131372Y371516D01*
X131419Y371594D01*
X131463Y371674D01*
X131503Y371756D01*
X131540Y371839D01*
X131573Y371924D01*
X131602Y372010D01*
X131628Y372098D01*
X131650Y372186D01*
X131667Y372275D01*
X131681Y372365D01*
X131691Y372456D01*
X131697Y372547D01*
X131699Y372638D01*
X131699Y374726D01*
X131699Y378233D02*
X123867Y378233D01*
X123790Y378235D01*
X123714Y378241D01*
X123637Y378250D01*
X123561Y378263D01*
X123486Y378280D01*
X123412Y378300D01*
X123339Y378325D01*
X123268Y378352D01*
X123197Y378383D01*
X123129Y378418D01*
X123062Y378456D01*
X122997Y378497D01*
X122934Y378541D01*
X122874Y378588D01*
X122815Y378639D01*
X122760Y378692D01*
X122707Y378747D01*
X122656Y378806D01*
X122609Y378866D01*
X122565Y378929D01*
X122524Y378994D01*
X122486Y379061D01*
X122451Y379129D01*
X122420Y379200D01*
X122393Y379271D01*
X122368Y379344D01*
X122348Y379418D01*
X122331Y379493D01*
X122318Y379569D01*
X122309Y379646D01*
X122303Y379722D01*
X122301Y379799D01*
X124389Y382984D02*
X126478Y382984D01*
X126478Y382985D02*
X126568Y382987D01*
X126657Y382993D01*
X126747Y383002D01*
X126836Y383016D01*
X126924Y383033D01*
X127011Y383054D01*
X127098Y383079D01*
X127183Y383108D01*
X127267Y383140D01*
X127349Y383175D01*
X127430Y383215D01*
X127509Y383257D01*
X127586Y383303D01*
X127661Y383353D01*
X127734Y383405D01*
X127805Y383461D01*
X127873Y383519D01*
X127938Y383581D01*
X128001Y383645D01*
X128061Y383712D01*
X128118Y383781D01*
X128172Y383853D01*
X128223Y383927D01*
X128271Y384003D01*
X128315Y384081D01*
X128356Y384161D01*
X128394Y384243D01*
X128428Y384326D01*
X128458Y384411D01*
X128485Y384497D01*
X128508Y384583D01*
X128527Y384671D01*
X128542Y384760D01*
X128554Y384849D01*
X128562Y384938D01*
X128566Y385028D01*
X128566Y385118D01*
X128562Y385208D01*
X128554Y385297D01*
X128542Y385386D01*
X128527Y385475D01*
X128508Y385563D01*
X128485Y385649D01*
X128458Y385735D01*
X128428Y385820D01*
X128394Y385903D01*
X128356Y385985D01*
X128315Y386065D01*
X128271Y386143D01*
X128223Y386219D01*
X128172Y386293D01*
X128118Y386365D01*
X128061Y386434D01*
X128001Y386501D01*
X127938Y386565D01*
X127873Y386627D01*
X127805Y386685D01*
X127734Y386741D01*
X127661Y386793D01*
X127586Y386843D01*
X127509Y386889D01*
X127430Y386931D01*
X127349Y386971D01*
X127267Y387006D01*
X127183Y387038D01*
X127098Y387067D01*
X127011Y387092D01*
X126924Y387113D01*
X126836Y387130D01*
X126747Y387144D01*
X126657Y387153D01*
X126568Y387159D01*
X126478Y387161D01*
X124389Y387161D01*
X124299Y387159D01*
X124210Y387153D01*
X124120Y387144D01*
X124031Y387130D01*
X123943Y387113D01*
X123856Y387092D01*
X123769Y387067D01*
X123684Y387038D01*
X123600Y387006D01*
X123518Y386971D01*
X123437Y386931D01*
X123358Y386889D01*
X123281Y386843D01*
X123206Y386793D01*
X123133Y386741D01*
X123062Y386685D01*
X122994Y386627D01*
X122929Y386565D01*
X122866Y386501D01*
X122806Y386434D01*
X122749Y386365D01*
X122695Y386293D01*
X122644Y386219D01*
X122596Y386143D01*
X122552Y386065D01*
X122511Y385985D01*
X122473Y385903D01*
X122439Y385820D01*
X122409Y385735D01*
X122382Y385649D01*
X122359Y385563D01*
X122340Y385475D01*
X122325Y385386D01*
X122313Y385297D01*
X122305Y385208D01*
X122301Y385118D01*
X122301Y385028D01*
X122305Y384938D01*
X122313Y384849D01*
X122325Y384760D01*
X122340Y384671D01*
X122359Y384583D01*
X122382Y384497D01*
X122409Y384411D01*
X122439Y384326D01*
X122473Y384243D01*
X122511Y384161D01*
X122552Y384081D01*
X122596Y384003D01*
X122644Y383927D01*
X122695Y383853D01*
X122749Y383781D01*
X122806Y383712D01*
X122866Y383645D01*
X122929Y383581D01*
X122994Y383519D01*
X123062Y383461D01*
X123133Y383405D01*
X123206Y383353D01*
X123281Y383303D01*
X123358Y383257D01*
X123437Y383215D01*
X123518Y383175D01*
X123600Y383140D01*
X123684Y383108D01*
X123769Y383079D01*
X123856Y383054D01*
X123943Y383033D01*
X124031Y383016D01*
X124120Y383002D01*
X124210Y382993D01*
X124299Y382987D01*
X124389Y382985D01*
X122301Y392485D02*
X122301Y394574D01*
X122301Y392485D02*
X122303Y392408D01*
X122309Y392332D01*
X122318Y392255D01*
X122331Y392179D01*
X122348Y392104D01*
X122368Y392030D01*
X122393Y391957D01*
X122420Y391886D01*
X122451Y391815D01*
X122486Y391747D01*
X122524Y391680D01*
X122565Y391615D01*
X122609Y391552D01*
X122656Y391492D01*
X122707Y391433D01*
X122760Y391378D01*
X122815Y391325D01*
X122874Y391274D01*
X122934Y391227D01*
X122997Y391183D01*
X123062Y391142D01*
X123129Y391104D01*
X123197Y391069D01*
X123268Y391038D01*
X123339Y391011D01*
X123412Y390986D01*
X123486Y390966D01*
X123561Y390949D01*
X123637Y390936D01*
X123714Y390927D01*
X123790Y390921D01*
X123867Y390919D01*
X127000Y390919D01*
X127077Y390921D01*
X127153Y390927D01*
X127230Y390936D01*
X127306Y390949D01*
X127381Y390966D01*
X127455Y390986D01*
X127528Y391011D01*
X127599Y391038D01*
X127670Y391069D01*
X127738Y391104D01*
X127805Y391142D01*
X127870Y391183D01*
X127933Y391227D01*
X127993Y391274D01*
X128052Y391325D01*
X128107Y391378D01*
X128160Y391433D01*
X128211Y391492D01*
X128258Y391552D01*
X128302Y391615D01*
X128343Y391680D01*
X128381Y391747D01*
X128416Y391815D01*
X128447Y391886D01*
X128474Y391957D01*
X128499Y392030D01*
X128519Y392104D01*
X128536Y392179D01*
X128549Y392255D01*
X128558Y392332D01*
X128564Y392408D01*
X128566Y392485D01*
X128566Y394574D01*
X131699Y398329D02*
X122301Y398329D01*
X125434Y398329D02*
X128566Y402506D01*
X126739Y400156D02*
X122301Y402506D01*
X122301Y411200D02*
X131699Y411200D01*
X126478Y414333D01*
X131699Y417466D01*
X122301Y417466D01*
X123867Y421998D02*
X128566Y421998D01*
X123867Y421999D02*
X123790Y422001D01*
X123714Y422007D01*
X123637Y422016D01*
X123561Y422029D01*
X123486Y422046D01*
X123412Y422066D01*
X123339Y422091D01*
X123268Y422118D01*
X123197Y422149D01*
X123129Y422184D01*
X123062Y422222D01*
X122997Y422263D01*
X122934Y422307D01*
X122874Y422354D01*
X122815Y422405D01*
X122760Y422458D01*
X122707Y422513D01*
X122656Y422572D01*
X122609Y422632D01*
X122565Y422695D01*
X122524Y422760D01*
X122486Y422827D01*
X122451Y422895D01*
X122420Y422966D01*
X122393Y423037D01*
X122368Y423110D01*
X122348Y423184D01*
X122331Y423259D01*
X122318Y423335D01*
X122309Y423412D01*
X122303Y423488D01*
X122301Y423565D01*
X122301Y426175D01*
X128566Y426175D01*
X131699Y430353D02*
X123867Y430353D01*
X123867Y430354D02*
X123790Y430356D01*
X123714Y430362D01*
X123637Y430371D01*
X123561Y430384D01*
X123486Y430401D01*
X123412Y430421D01*
X123339Y430446D01*
X123268Y430473D01*
X123197Y430504D01*
X123129Y430539D01*
X123062Y430577D01*
X122997Y430618D01*
X122934Y430662D01*
X122874Y430709D01*
X122815Y430760D01*
X122760Y430813D01*
X122707Y430868D01*
X122656Y430927D01*
X122609Y430987D01*
X122565Y431050D01*
X122524Y431115D01*
X122486Y431182D01*
X122451Y431250D01*
X122420Y431321D01*
X122393Y431392D01*
X122368Y431465D01*
X122348Y431539D01*
X122331Y431614D01*
X122318Y431690D01*
X122309Y431767D01*
X122303Y431843D01*
X122301Y431920D01*
X128566Y434336D02*
X128566Y437469D01*
X131699Y435380D02*
X123867Y435380D01*
X123790Y435382D01*
X123714Y435388D01*
X123637Y435397D01*
X123561Y435410D01*
X123486Y435427D01*
X123412Y435447D01*
X123339Y435472D01*
X123268Y435499D01*
X123197Y435530D01*
X123129Y435565D01*
X123062Y435603D01*
X122997Y435644D01*
X122934Y435688D01*
X122874Y435735D01*
X122815Y435786D01*
X122760Y435839D01*
X122707Y435894D01*
X122656Y435953D01*
X122609Y436013D01*
X122565Y436076D01*
X122524Y436141D01*
X122486Y436208D01*
X122451Y436276D01*
X122420Y436347D01*
X122393Y436418D01*
X122368Y436491D01*
X122348Y436565D01*
X122331Y436640D01*
X122318Y436716D01*
X122309Y436793D01*
X122303Y436869D01*
X122301Y436946D01*
X122301Y437469D01*
X122301Y440851D02*
X128566Y440851D01*
X131177Y440590D02*
X131699Y440590D01*
X131699Y441112D01*
X131177Y441112D01*
X131177Y440590D01*
X128566Y444904D02*
X119168Y444904D01*
X128566Y444904D02*
X128566Y447514D01*
X128564Y447591D01*
X128558Y447667D01*
X128549Y447744D01*
X128536Y447820D01*
X128519Y447895D01*
X128499Y447969D01*
X128474Y448042D01*
X128447Y448113D01*
X128416Y448184D01*
X128381Y448252D01*
X128343Y448319D01*
X128302Y448384D01*
X128258Y448447D01*
X128211Y448507D01*
X128160Y448566D01*
X128107Y448621D01*
X128052Y448674D01*
X127993Y448725D01*
X127933Y448772D01*
X127870Y448816D01*
X127805Y448857D01*
X127738Y448895D01*
X127670Y448930D01*
X127599Y448961D01*
X127528Y448988D01*
X127455Y449013D01*
X127381Y449033D01*
X127306Y449050D01*
X127230Y449063D01*
X127153Y449072D01*
X127077Y449078D01*
X127000Y449080D01*
X127000Y449081D02*
X123867Y449081D01*
X123867Y449080D02*
X123790Y449078D01*
X123714Y449072D01*
X123637Y449063D01*
X123561Y449050D01*
X123486Y449033D01*
X123412Y449013D01*
X123339Y448988D01*
X123268Y448961D01*
X123197Y448930D01*
X123129Y448895D01*
X123062Y448857D01*
X122997Y448816D01*
X122934Y448772D01*
X122874Y448725D01*
X122815Y448674D01*
X122760Y448621D01*
X122707Y448566D01*
X122656Y448507D01*
X122609Y448447D01*
X122565Y448384D01*
X122524Y448319D01*
X122486Y448252D01*
X122451Y448184D01*
X122420Y448113D01*
X122393Y448042D01*
X122368Y447969D01*
X122348Y447895D01*
X122331Y447820D01*
X122318Y447744D01*
X122309Y447667D01*
X122303Y447591D01*
X122301Y447514D01*
X122301Y444904D01*
X123867Y452908D02*
X131699Y452908D01*
X123867Y452909D02*
X123790Y452911D01*
X123714Y452917D01*
X123637Y452926D01*
X123561Y452939D01*
X123486Y452956D01*
X123412Y452976D01*
X123339Y453001D01*
X123268Y453028D01*
X123197Y453059D01*
X123129Y453094D01*
X123062Y453132D01*
X122997Y453173D01*
X122934Y453217D01*
X122874Y453264D01*
X122815Y453315D01*
X122760Y453368D01*
X122707Y453423D01*
X122656Y453482D01*
X122609Y453542D01*
X122565Y453605D01*
X122524Y453670D01*
X122486Y453737D01*
X122451Y453805D01*
X122420Y453876D01*
X122393Y453947D01*
X122368Y454020D01*
X122348Y454094D01*
X122331Y454169D01*
X122318Y454245D01*
X122309Y454322D01*
X122303Y454398D01*
X122301Y454475D01*
X122301Y457614D02*
X128566Y457614D01*
X131177Y457353D02*
X131699Y457353D01*
X131699Y457876D01*
X131177Y457876D01*
X131177Y457353D01*
X122301Y462884D02*
X122301Y465494D01*
X122301Y462884D02*
X122303Y462807D01*
X122309Y462731D01*
X122318Y462654D01*
X122331Y462578D01*
X122348Y462503D01*
X122368Y462429D01*
X122393Y462356D01*
X122420Y462285D01*
X122451Y462214D01*
X122486Y462146D01*
X122524Y462079D01*
X122565Y462014D01*
X122609Y461951D01*
X122656Y461891D01*
X122707Y461832D01*
X122760Y461777D01*
X122815Y461724D01*
X122874Y461673D01*
X122934Y461626D01*
X122997Y461582D01*
X123062Y461541D01*
X123129Y461503D01*
X123197Y461468D01*
X123268Y461437D01*
X123339Y461410D01*
X123412Y461385D01*
X123486Y461365D01*
X123561Y461348D01*
X123637Y461335D01*
X123714Y461326D01*
X123790Y461320D01*
X123867Y461318D01*
X123867Y461317D02*
X126478Y461317D01*
X126478Y461318D02*
X126568Y461320D01*
X126657Y461326D01*
X126747Y461335D01*
X126836Y461349D01*
X126924Y461366D01*
X127011Y461387D01*
X127098Y461412D01*
X127183Y461441D01*
X127267Y461473D01*
X127349Y461508D01*
X127430Y461548D01*
X127509Y461590D01*
X127586Y461636D01*
X127661Y461686D01*
X127734Y461738D01*
X127805Y461794D01*
X127873Y461852D01*
X127938Y461914D01*
X128001Y461978D01*
X128061Y462045D01*
X128118Y462114D01*
X128172Y462186D01*
X128223Y462260D01*
X128271Y462336D01*
X128315Y462414D01*
X128356Y462494D01*
X128394Y462576D01*
X128428Y462659D01*
X128458Y462744D01*
X128485Y462830D01*
X128508Y462916D01*
X128527Y463004D01*
X128542Y463093D01*
X128554Y463182D01*
X128562Y463271D01*
X128566Y463361D01*
X128566Y463451D01*
X128562Y463541D01*
X128554Y463630D01*
X128542Y463719D01*
X128527Y463808D01*
X128508Y463896D01*
X128485Y463982D01*
X128458Y464068D01*
X128428Y464153D01*
X128394Y464236D01*
X128356Y464318D01*
X128315Y464398D01*
X128271Y464476D01*
X128223Y464552D01*
X128172Y464626D01*
X128118Y464698D01*
X128061Y464767D01*
X128001Y464834D01*
X127938Y464898D01*
X127873Y464960D01*
X127805Y465018D01*
X127734Y465074D01*
X127661Y465126D01*
X127586Y465176D01*
X127509Y465222D01*
X127430Y465264D01*
X127349Y465304D01*
X127267Y465339D01*
X127183Y465371D01*
X127098Y465400D01*
X127011Y465425D01*
X126924Y465446D01*
X126836Y465463D01*
X126747Y465477D01*
X126657Y465486D01*
X126568Y465492D01*
X126478Y465494D01*
X125434Y465494D01*
X125434Y461317D01*
X122301Y469598D02*
X128566Y469598D01*
X128566Y472731D01*
X127522Y472731D01*
X117785Y369078D02*
X117655Y368971D01*
X117522Y368868D01*
X117387Y368767D01*
X117249Y368670D01*
X117109Y368577D01*
X116966Y368486D01*
X116822Y368399D01*
X116675Y368316D01*
X116527Y368236D01*
X116376Y368160D01*
X116224Y368088D01*
X116070Y368019D01*
X115915Y367954D01*
X115758Y367892D01*
X115600Y367835D01*
X115440Y367781D01*
X115279Y367731D01*
X115117Y367685D01*
X114953Y367643D01*
X114789Y367605D01*
X114624Y367570D01*
X114458Y367540D01*
X114292Y367514D01*
X114125Y367492D01*
X113957Y367473D01*
X113789Y367459D01*
X113621Y367449D01*
X113453Y367443D01*
X113284Y367441D01*
X113115Y367443D01*
X112947Y367449D01*
X112779Y367459D01*
X112611Y367473D01*
X112443Y367492D01*
X112276Y367514D01*
X112110Y367540D01*
X111944Y367570D01*
X111779Y367605D01*
X111615Y367643D01*
X111451Y367685D01*
X111289Y367731D01*
X111128Y367781D01*
X110968Y367835D01*
X110810Y367892D01*
X110653Y367954D01*
X110498Y368019D01*
X110344Y368088D01*
X110192Y368160D01*
X110041Y368236D01*
X109893Y368316D01*
X109746Y368399D01*
X109602Y368486D01*
X109459Y368577D01*
X109319Y368670D01*
X109181Y368767D01*
X109046Y368868D01*
X108913Y368971D01*
X108783Y369078D01*
X116967Y371801D02*
X116967Y375894D01*
X109601Y371801D01*
X109601Y375894D01*
X111238Y382853D02*
X111238Y387763D01*
X113693Y387763D02*
X113693Y382853D01*
X116967Y395226D02*
X109601Y395226D01*
X109601Y398500D01*
X109601Y402455D02*
X109601Y404501D01*
X109601Y402455D02*
X109603Y402386D01*
X109609Y402318D01*
X109618Y402249D01*
X109632Y402182D01*
X109649Y402115D01*
X109670Y402049D01*
X109694Y401985D01*
X109723Y401922D01*
X109754Y401861D01*
X109789Y401802D01*
X109827Y401744D01*
X109869Y401689D01*
X109913Y401637D01*
X109961Y401587D01*
X110011Y401539D01*
X110063Y401495D01*
X110118Y401453D01*
X110176Y401415D01*
X110235Y401380D01*
X110296Y401349D01*
X110359Y401320D01*
X110423Y401296D01*
X110489Y401275D01*
X110556Y401258D01*
X110623Y401244D01*
X110692Y401235D01*
X110760Y401229D01*
X110829Y401227D01*
X110829Y401228D02*
X112875Y401228D01*
X112875Y401227D02*
X112954Y401229D01*
X113033Y401235D01*
X113112Y401244D01*
X113190Y401257D01*
X113267Y401275D01*
X113343Y401295D01*
X113418Y401320D01*
X113492Y401348D01*
X113565Y401379D01*
X113636Y401415D01*
X113705Y401453D01*
X113772Y401495D01*
X113837Y401540D01*
X113900Y401588D01*
X113961Y401639D01*
X114018Y401693D01*
X114074Y401749D01*
X114126Y401808D01*
X114176Y401870D01*
X114222Y401934D01*
X114266Y402000D01*
X114306Y402068D01*
X114342Y402138D01*
X114376Y402210D01*
X114406Y402284D01*
X114432Y402358D01*
X114455Y402434D01*
X114473Y402511D01*
X114489Y402588D01*
X114500Y402667D01*
X114508Y402745D01*
X114512Y402824D01*
X114512Y402904D01*
X114508Y402983D01*
X114500Y403061D01*
X114489Y403140D01*
X114473Y403217D01*
X114455Y403294D01*
X114432Y403370D01*
X114406Y403444D01*
X114376Y403518D01*
X114342Y403590D01*
X114306Y403660D01*
X114266Y403728D01*
X114222Y403794D01*
X114176Y403858D01*
X114126Y403920D01*
X114074Y403979D01*
X114018Y404035D01*
X113961Y404089D01*
X113900Y404140D01*
X113837Y404188D01*
X113772Y404233D01*
X113705Y404275D01*
X113636Y404313D01*
X113565Y404349D01*
X113492Y404380D01*
X113418Y404408D01*
X113343Y404433D01*
X113267Y404453D01*
X113190Y404471D01*
X113112Y404484D01*
X113033Y404493D01*
X112954Y404499D01*
X112875Y404501D01*
X112056Y404501D01*
X112056Y401228D01*
X112466Y408959D02*
X112466Y410800D01*
X112465Y408959D02*
X112463Y408884D01*
X112457Y408809D01*
X112447Y408735D01*
X112434Y408661D01*
X112416Y408588D01*
X112395Y408516D01*
X112370Y408446D01*
X112341Y408377D01*
X112309Y408309D01*
X112273Y408243D01*
X112234Y408179D01*
X112192Y408117D01*
X112146Y408058D01*
X112097Y408001D01*
X112046Y407946D01*
X111991Y407895D01*
X111934Y407846D01*
X111875Y407800D01*
X111813Y407758D01*
X111749Y407719D01*
X111683Y407683D01*
X111615Y407651D01*
X111546Y407622D01*
X111476Y407597D01*
X111404Y407576D01*
X111331Y407558D01*
X111257Y407545D01*
X111183Y407535D01*
X111108Y407529D01*
X111033Y407527D01*
X110958Y407529D01*
X110883Y407535D01*
X110809Y407545D01*
X110735Y407558D01*
X110662Y407576D01*
X110590Y407597D01*
X110520Y407622D01*
X110451Y407651D01*
X110383Y407683D01*
X110317Y407719D01*
X110253Y407758D01*
X110191Y407800D01*
X110132Y407846D01*
X110075Y407895D01*
X110020Y407946D01*
X109969Y408001D01*
X109920Y408058D01*
X109874Y408117D01*
X109832Y408179D01*
X109793Y408243D01*
X109757Y408309D01*
X109725Y408377D01*
X109696Y408446D01*
X109671Y408516D01*
X109650Y408588D01*
X109632Y408661D01*
X109619Y408735D01*
X109609Y408809D01*
X109603Y408884D01*
X109601Y408959D01*
X109601Y410800D01*
X113284Y410800D01*
X113284Y410801D02*
X113353Y410799D01*
X113421Y410793D01*
X113490Y410784D01*
X113557Y410770D01*
X113624Y410753D01*
X113690Y410732D01*
X113754Y410708D01*
X113817Y410679D01*
X113878Y410648D01*
X113937Y410613D01*
X113995Y410575D01*
X114050Y410533D01*
X114102Y410489D01*
X114152Y410441D01*
X114200Y410391D01*
X114244Y410339D01*
X114286Y410284D01*
X114324Y410226D01*
X114359Y410167D01*
X114390Y410106D01*
X114419Y410043D01*
X114443Y409979D01*
X114464Y409913D01*
X114481Y409846D01*
X114495Y409779D01*
X114504Y409710D01*
X114510Y409642D01*
X114512Y409573D01*
X114512Y407936D01*
X114512Y413907D02*
X109601Y415544D01*
X114512Y417181D01*
X109601Y421231D02*
X109601Y423277D01*
X109601Y421231D02*
X109603Y421162D01*
X109609Y421094D01*
X109618Y421025D01*
X109632Y420958D01*
X109649Y420891D01*
X109670Y420825D01*
X109694Y420761D01*
X109723Y420698D01*
X109754Y420637D01*
X109789Y420578D01*
X109827Y420520D01*
X109869Y420465D01*
X109913Y420413D01*
X109961Y420363D01*
X110011Y420315D01*
X110063Y420271D01*
X110118Y420229D01*
X110176Y420191D01*
X110235Y420156D01*
X110296Y420125D01*
X110359Y420096D01*
X110423Y420072D01*
X110489Y420051D01*
X110556Y420034D01*
X110623Y420020D01*
X110692Y420011D01*
X110760Y420005D01*
X110829Y420003D01*
X112875Y420003D01*
X112954Y420005D01*
X113033Y420011D01*
X113112Y420020D01*
X113190Y420033D01*
X113267Y420051D01*
X113343Y420071D01*
X113418Y420096D01*
X113492Y420124D01*
X113565Y420155D01*
X113636Y420191D01*
X113705Y420229D01*
X113772Y420271D01*
X113837Y420316D01*
X113900Y420364D01*
X113961Y420415D01*
X114018Y420469D01*
X114074Y420525D01*
X114126Y420584D01*
X114176Y420646D01*
X114222Y420710D01*
X114266Y420776D01*
X114306Y420844D01*
X114342Y420914D01*
X114376Y420986D01*
X114406Y421060D01*
X114432Y421134D01*
X114455Y421210D01*
X114473Y421287D01*
X114489Y421364D01*
X114500Y421443D01*
X114508Y421521D01*
X114512Y421600D01*
X114512Y421680D01*
X114508Y421759D01*
X114500Y421837D01*
X114489Y421916D01*
X114473Y421993D01*
X114455Y422070D01*
X114432Y422146D01*
X114406Y422220D01*
X114376Y422294D01*
X114342Y422366D01*
X114306Y422436D01*
X114266Y422504D01*
X114222Y422570D01*
X114176Y422634D01*
X114126Y422696D01*
X114074Y422755D01*
X114018Y422811D01*
X113961Y422865D01*
X113900Y422916D01*
X113837Y422964D01*
X113772Y423009D01*
X113705Y423051D01*
X113636Y423089D01*
X113565Y423125D01*
X113492Y423156D01*
X113418Y423184D01*
X113343Y423209D01*
X113267Y423229D01*
X113190Y423247D01*
X113112Y423260D01*
X113033Y423269D01*
X112954Y423275D01*
X112875Y423277D01*
X112056Y423277D01*
X112056Y420003D01*
X109601Y430582D02*
X116967Y430582D01*
X116967Y433856D01*
X113693Y433856D02*
X113693Y430582D01*
X110829Y436667D02*
X116967Y436667D01*
X110829Y436667D02*
X110760Y436669D01*
X110692Y436675D01*
X110623Y436684D01*
X110556Y436698D01*
X110489Y436715D01*
X110423Y436736D01*
X110359Y436760D01*
X110296Y436789D01*
X110235Y436820D01*
X110176Y436855D01*
X110118Y436893D01*
X110063Y436935D01*
X110011Y436979D01*
X109961Y437027D01*
X109913Y437077D01*
X109869Y437129D01*
X109827Y437184D01*
X109789Y437242D01*
X109754Y437301D01*
X109723Y437362D01*
X109694Y437425D01*
X109670Y437489D01*
X109649Y437555D01*
X109632Y437622D01*
X109618Y437689D01*
X109609Y437758D01*
X109603Y437826D01*
X109601Y437895D01*
X111238Y440486D02*
X112875Y440486D01*
X112954Y440488D01*
X113033Y440494D01*
X113112Y440503D01*
X113190Y440516D01*
X113267Y440534D01*
X113343Y440554D01*
X113418Y440579D01*
X113492Y440607D01*
X113565Y440638D01*
X113636Y440674D01*
X113705Y440712D01*
X113772Y440754D01*
X113837Y440799D01*
X113900Y440847D01*
X113961Y440898D01*
X114018Y440952D01*
X114074Y441008D01*
X114126Y441067D01*
X114176Y441129D01*
X114222Y441193D01*
X114266Y441259D01*
X114306Y441327D01*
X114342Y441397D01*
X114376Y441469D01*
X114406Y441543D01*
X114432Y441617D01*
X114455Y441693D01*
X114473Y441770D01*
X114489Y441847D01*
X114500Y441926D01*
X114508Y442004D01*
X114512Y442083D01*
X114512Y442163D01*
X114508Y442242D01*
X114500Y442320D01*
X114489Y442399D01*
X114473Y442476D01*
X114455Y442553D01*
X114432Y442629D01*
X114406Y442703D01*
X114376Y442777D01*
X114342Y442849D01*
X114306Y442919D01*
X114266Y442987D01*
X114222Y443053D01*
X114176Y443117D01*
X114126Y443179D01*
X114074Y443238D01*
X114018Y443294D01*
X113961Y443348D01*
X113900Y443399D01*
X113837Y443447D01*
X113772Y443492D01*
X113705Y443534D01*
X113636Y443572D01*
X113565Y443608D01*
X113492Y443639D01*
X113418Y443667D01*
X113343Y443692D01*
X113267Y443712D01*
X113190Y443730D01*
X113112Y443743D01*
X113033Y443752D01*
X112954Y443758D01*
X112875Y443760D01*
X112875Y443759D02*
X111238Y443759D01*
X111238Y443760D02*
X111159Y443758D01*
X111080Y443752D01*
X111001Y443743D01*
X110923Y443730D01*
X110846Y443712D01*
X110770Y443692D01*
X110695Y443667D01*
X110621Y443639D01*
X110548Y443608D01*
X110477Y443572D01*
X110408Y443534D01*
X110341Y443492D01*
X110276Y443447D01*
X110213Y443399D01*
X110152Y443348D01*
X110095Y443294D01*
X110039Y443238D01*
X109987Y443179D01*
X109937Y443117D01*
X109891Y443053D01*
X109847Y442987D01*
X109807Y442919D01*
X109771Y442849D01*
X109737Y442777D01*
X109707Y442703D01*
X109681Y442629D01*
X109658Y442553D01*
X109640Y442476D01*
X109624Y442399D01*
X109613Y442320D01*
X109605Y442242D01*
X109601Y442163D01*
X109601Y442083D01*
X109605Y442004D01*
X109613Y441926D01*
X109624Y441847D01*
X109640Y441770D01*
X109658Y441693D01*
X109681Y441617D01*
X109707Y441543D01*
X109737Y441469D01*
X109771Y441397D01*
X109807Y441327D01*
X109847Y441259D01*
X109891Y441193D01*
X109937Y441129D01*
X109987Y441067D01*
X110039Y441008D01*
X110095Y440952D01*
X110152Y440898D01*
X110213Y440847D01*
X110276Y440799D01*
X110341Y440754D01*
X110408Y440712D01*
X110477Y440674D01*
X110548Y440638D01*
X110621Y440607D01*
X110695Y440579D01*
X110770Y440554D01*
X110846Y440534D01*
X110923Y440516D01*
X111001Y440503D01*
X111080Y440494D01*
X111159Y440488D01*
X111238Y440486D01*
X112466Y448217D02*
X112466Y450058D01*
X112465Y448217D02*
X112463Y448142D01*
X112457Y448067D01*
X112447Y447993D01*
X112434Y447919D01*
X112416Y447846D01*
X112395Y447774D01*
X112370Y447704D01*
X112341Y447635D01*
X112309Y447567D01*
X112273Y447501D01*
X112234Y447437D01*
X112192Y447375D01*
X112146Y447316D01*
X112097Y447259D01*
X112046Y447204D01*
X111991Y447153D01*
X111934Y447104D01*
X111875Y447058D01*
X111813Y447016D01*
X111749Y446977D01*
X111683Y446941D01*
X111615Y446909D01*
X111546Y446880D01*
X111476Y446855D01*
X111404Y446834D01*
X111331Y446816D01*
X111257Y446803D01*
X111183Y446793D01*
X111108Y446787D01*
X111033Y446785D01*
X110958Y446787D01*
X110883Y446793D01*
X110809Y446803D01*
X110735Y446816D01*
X110662Y446834D01*
X110590Y446855D01*
X110520Y446880D01*
X110451Y446909D01*
X110383Y446941D01*
X110317Y446977D01*
X110253Y447016D01*
X110191Y447058D01*
X110132Y447104D01*
X110075Y447153D01*
X110020Y447204D01*
X109969Y447259D01*
X109920Y447316D01*
X109874Y447375D01*
X109832Y447437D01*
X109793Y447501D01*
X109757Y447567D01*
X109725Y447635D01*
X109696Y447704D01*
X109671Y447774D01*
X109650Y447846D01*
X109632Y447919D01*
X109619Y447993D01*
X109609Y448067D01*
X109603Y448142D01*
X109601Y448217D01*
X109601Y450058D01*
X113284Y450058D01*
X113284Y450059D02*
X113353Y450057D01*
X113421Y450051D01*
X113490Y450042D01*
X113557Y450028D01*
X113624Y450011D01*
X113690Y449990D01*
X113754Y449966D01*
X113817Y449937D01*
X113878Y449906D01*
X113937Y449871D01*
X113995Y449833D01*
X114050Y449791D01*
X114102Y449747D01*
X114152Y449699D01*
X114200Y449649D01*
X114244Y449597D01*
X114286Y449542D01*
X114324Y449484D01*
X114359Y449425D01*
X114390Y449364D01*
X114419Y449301D01*
X114443Y449237D01*
X114464Y449171D01*
X114481Y449104D01*
X114495Y449037D01*
X114504Y448968D01*
X114510Y448900D01*
X114512Y448831D01*
X114512Y447194D01*
X114512Y452779D02*
X114512Y455234D01*
X116967Y453597D02*
X110829Y453597D01*
X110760Y453599D01*
X110692Y453605D01*
X110623Y453614D01*
X110556Y453628D01*
X110489Y453645D01*
X110423Y453666D01*
X110359Y453690D01*
X110296Y453719D01*
X110235Y453750D01*
X110176Y453785D01*
X110118Y453823D01*
X110063Y453865D01*
X110011Y453909D01*
X109961Y453957D01*
X109913Y454007D01*
X109869Y454059D01*
X109827Y454114D01*
X109789Y454172D01*
X109754Y454231D01*
X109723Y454292D01*
X109694Y454355D01*
X109670Y454419D01*
X109649Y454485D01*
X109632Y454552D01*
X109618Y454619D01*
X109609Y454688D01*
X109603Y454756D01*
X109601Y454825D01*
X109601Y455234D01*
X109601Y457972D02*
X114512Y457972D01*
X116558Y457767D02*
X116967Y457767D01*
X116967Y458177D01*
X116558Y458177D01*
X116558Y457767D01*
X114512Y461212D02*
X109601Y461212D01*
X114512Y461212D02*
X114512Y463258D01*
X114510Y463327D01*
X114504Y463395D01*
X114495Y463464D01*
X114481Y463531D01*
X114464Y463598D01*
X114443Y463664D01*
X114419Y463728D01*
X114390Y463791D01*
X114359Y463852D01*
X114324Y463911D01*
X114286Y463969D01*
X114244Y464024D01*
X114200Y464076D01*
X114152Y464126D01*
X114102Y464174D01*
X114050Y464218D01*
X113995Y464260D01*
X113937Y464298D01*
X113878Y464333D01*
X113817Y464364D01*
X113754Y464393D01*
X113690Y464417D01*
X113624Y464438D01*
X113557Y464455D01*
X113490Y464469D01*
X113421Y464478D01*
X113353Y464484D01*
X113284Y464486D01*
X109601Y464486D01*
X109601Y468982D02*
X109601Y471028D01*
X109601Y468982D02*
X109603Y468913D01*
X109609Y468845D01*
X109618Y468776D01*
X109632Y468709D01*
X109649Y468642D01*
X109670Y468576D01*
X109694Y468512D01*
X109723Y468449D01*
X109754Y468388D01*
X109789Y468329D01*
X109827Y468271D01*
X109869Y468216D01*
X109913Y468164D01*
X109961Y468114D01*
X110011Y468066D01*
X110063Y468022D01*
X110118Y467980D01*
X110176Y467942D01*
X110235Y467907D01*
X110296Y467876D01*
X110359Y467847D01*
X110423Y467823D01*
X110489Y467802D01*
X110556Y467785D01*
X110623Y467771D01*
X110692Y467762D01*
X110760Y467756D01*
X110829Y467754D01*
X110829Y467755D02*
X113284Y467755D01*
X113284Y467754D02*
X113353Y467756D01*
X113421Y467762D01*
X113490Y467771D01*
X113557Y467785D01*
X113624Y467802D01*
X113690Y467823D01*
X113754Y467847D01*
X113817Y467876D01*
X113878Y467907D01*
X113937Y467942D01*
X113995Y467980D01*
X114050Y468022D01*
X114102Y468066D01*
X114152Y468114D01*
X114200Y468164D01*
X114244Y468216D01*
X114286Y468271D01*
X114324Y468329D01*
X114359Y468388D01*
X114390Y468449D01*
X114419Y468512D01*
X114443Y468576D01*
X114464Y468642D01*
X114481Y468709D01*
X114495Y468776D01*
X114504Y468845D01*
X114510Y468913D01*
X114512Y468982D01*
X114512Y471028D01*
X108373Y471028D01*
X108373Y471029D02*
X108304Y471027D01*
X108236Y471021D01*
X108167Y471012D01*
X108100Y470998D01*
X108033Y470981D01*
X107967Y470960D01*
X107903Y470936D01*
X107840Y470907D01*
X107779Y470876D01*
X107720Y470841D01*
X107662Y470803D01*
X107607Y470761D01*
X107555Y470717D01*
X107505Y470669D01*
X107457Y470619D01*
X107413Y470567D01*
X107372Y470512D01*
X107333Y470454D01*
X107298Y470395D01*
X107267Y470334D01*
X107238Y470271D01*
X107214Y470207D01*
X107193Y470141D01*
X107176Y470074D01*
X107162Y470007D01*
X107153Y469939D01*
X107147Y469870D01*
X107145Y469801D01*
X107146Y469801D02*
X107146Y468164D01*
X108783Y474202D02*
X108913Y474309D01*
X109046Y474412D01*
X109181Y474513D01*
X109319Y474610D01*
X109459Y474703D01*
X109602Y474794D01*
X109746Y474881D01*
X109893Y474964D01*
X110041Y475044D01*
X110192Y475120D01*
X110344Y475192D01*
X110498Y475261D01*
X110653Y475326D01*
X110810Y475388D01*
X110968Y475445D01*
X111128Y475499D01*
X111289Y475549D01*
X111451Y475595D01*
X111615Y475637D01*
X111779Y475675D01*
X111944Y475710D01*
X112110Y475740D01*
X112276Y475766D01*
X112443Y475788D01*
X112611Y475807D01*
X112779Y475821D01*
X112947Y475831D01*
X113115Y475837D01*
X113284Y475839D01*
X113453Y475837D01*
X113621Y475831D01*
X113789Y475821D01*
X113957Y475807D01*
X114125Y475788D01*
X114292Y475766D01*
X114458Y475740D01*
X114624Y475710D01*
X114789Y475675D01*
X114953Y475637D01*
X115117Y475595D01*
X115279Y475549D01*
X115440Y475499D01*
X115600Y475445D01*
X115758Y475388D01*
X115915Y475326D01*
X116070Y475261D01*
X116224Y475192D01*
X116376Y475120D01*
X116527Y475044D01*
X116675Y474964D01*
X116822Y474881D01*
X116966Y474794D01*
X117109Y474703D01*
X117249Y474610D01*
X117387Y474513D01*
X117522Y474412D01*
X117655Y474309D01*
X117785Y474202D01*
D11*
X35560Y452120D02*
X30480Y457200D01*
X35560Y452120D02*
X30480Y447040D01*
X35560Y452120D02*
X20320Y452120D01*
X25400Y490220D02*
X106680Y490220D01*
X261620Y537210D02*
X261620Y580390D01*
X279400Y582930D02*
X279500Y582928D01*
X279599Y582922D01*
X279699Y582912D01*
X279797Y582899D01*
X279896Y582881D01*
X279993Y582860D01*
X280089Y582835D01*
X280185Y582806D01*
X280279Y582773D01*
X280372Y582737D01*
X280463Y582697D01*
X280553Y582653D01*
X280641Y582606D01*
X280727Y582556D01*
X280811Y582502D01*
X280893Y582445D01*
X280972Y582385D01*
X281050Y582321D01*
X281124Y582255D01*
X281196Y582186D01*
X281265Y582114D01*
X281331Y582040D01*
X281395Y581962D01*
X281455Y581883D01*
X281512Y581801D01*
X281566Y581717D01*
X281616Y581631D01*
X281663Y581543D01*
X281707Y581453D01*
X281747Y581362D01*
X281783Y581269D01*
X281816Y581175D01*
X281845Y581079D01*
X281870Y580983D01*
X281891Y580886D01*
X281909Y580787D01*
X281922Y580689D01*
X281932Y580589D01*
X281938Y580490D01*
X281940Y580390D01*
X281940Y537210D02*
X281938Y537110D01*
X281932Y537011D01*
X281922Y536911D01*
X281909Y536813D01*
X281891Y536714D01*
X281870Y536617D01*
X281845Y536521D01*
X281816Y536425D01*
X281783Y536331D01*
X281747Y536238D01*
X281707Y536147D01*
X281663Y536057D01*
X281616Y535969D01*
X281566Y535883D01*
X281512Y535799D01*
X281455Y535717D01*
X281395Y535638D01*
X281331Y535560D01*
X281265Y535486D01*
X281196Y535414D01*
X281124Y535345D01*
X281050Y535279D01*
X280972Y535215D01*
X280893Y535155D01*
X280811Y535098D01*
X280727Y535044D01*
X280641Y534994D01*
X280553Y534947D01*
X280463Y534903D01*
X280372Y534863D01*
X280279Y534827D01*
X280185Y534794D01*
X280089Y534765D01*
X279993Y534740D01*
X279896Y534719D01*
X279797Y534701D01*
X279699Y534688D01*
X279599Y534678D01*
X279500Y534672D01*
X279400Y534670D01*
X264160Y534670D02*
X264060Y534672D01*
X263961Y534678D01*
X263861Y534688D01*
X263763Y534701D01*
X263664Y534719D01*
X263567Y534740D01*
X263471Y534765D01*
X263375Y534794D01*
X263281Y534827D01*
X263188Y534863D01*
X263097Y534903D01*
X263007Y534947D01*
X262919Y534994D01*
X262833Y535044D01*
X262749Y535098D01*
X262667Y535155D01*
X262588Y535215D01*
X262510Y535279D01*
X262436Y535345D01*
X262364Y535414D01*
X262295Y535486D01*
X262229Y535560D01*
X262165Y535638D01*
X262105Y535717D01*
X262048Y535799D01*
X261994Y535883D01*
X261944Y535969D01*
X261897Y536057D01*
X261853Y536147D01*
X261813Y536238D01*
X261777Y536331D01*
X261744Y536425D01*
X261715Y536521D01*
X261690Y536617D01*
X261669Y536714D01*
X261651Y536813D01*
X261638Y536911D01*
X261628Y537011D01*
X261622Y537110D01*
X261620Y537210D01*
X261620Y580390D02*
X261622Y580490D01*
X261628Y580589D01*
X261638Y580689D01*
X261651Y580787D01*
X261669Y580886D01*
X261690Y580983D01*
X261715Y581079D01*
X261744Y581175D01*
X261777Y581269D01*
X261813Y581362D01*
X261853Y581453D01*
X261897Y581543D01*
X261944Y581631D01*
X261994Y581717D01*
X262048Y581801D01*
X262105Y581883D01*
X262165Y581962D01*
X262229Y582040D01*
X262295Y582114D01*
X262364Y582186D01*
X262436Y582255D01*
X262510Y582321D01*
X262588Y582385D01*
X262667Y582445D01*
X262749Y582502D01*
X262833Y582556D01*
X262919Y582606D01*
X263007Y582653D01*
X263097Y582697D01*
X263188Y582737D01*
X263281Y582773D01*
X263375Y582806D01*
X263471Y582835D01*
X263567Y582860D01*
X263664Y582881D01*
X263763Y582899D01*
X263861Y582912D01*
X263961Y582922D01*
X264060Y582928D01*
X264160Y582930D01*
X279400Y582930D01*
X279400Y534670D02*
X264160Y534670D01*
X281940Y537210D02*
X281940Y580390D01*
D13*
X268605Y591185D02*
X268505Y591183D01*
X268406Y591177D01*
X268306Y591167D01*
X268208Y591154D01*
X268109Y591136D01*
X268012Y591115D01*
X267916Y591090D01*
X267820Y591061D01*
X267726Y591028D01*
X267633Y590992D01*
X267542Y590952D01*
X267452Y590908D01*
X267364Y590861D01*
X267278Y590811D01*
X267194Y590757D01*
X267112Y590700D01*
X267033Y590640D01*
X266955Y590576D01*
X266881Y590510D01*
X266809Y590441D01*
X266740Y590369D01*
X266674Y590295D01*
X266610Y590217D01*
X266550Y590138D01*
X266493Y590056D01*
X266439Y589972D01*
X266389Y589886D01*
X266342Y589798D01*
X266298Y589708D01*
X266258Y589617D01*
X266222Y589524D01*
X266189Y589430D01*
X266160Y589334D01*
X266135Y589238D01*
X266114Y589141D01*
X266096Y589042D01*
X266083Y588944D01*
X266073Y588844D01*
X266067Y588745D01*
X266065Y588645D01*
X266067Y588504D01*
X266072Y588363D01*
X266082Y588222D01*
X266095Y588081D01*
X266111Y587941D01*
X266132Y587801D01*
X266156Y587662D01*
X266184Y587523D01*
X266215Y587386D01*
X266250Y587249D01*
X266288Y587113D01*
X266330Y586978D01*
X266376Y586845D01*
X266425Y586712D01*
X266478Y586581D01*
X266534Y586452D01*
X266593Y586323D01*
X266656Y586197D01*
X266722Y586072D01*
X266791Y585949D01*
X266864Y585828D01*
X266940Y585709D01*
X267019Y585591D01*
X267100Y585476D01*
X267185Y585364D01*
X267273Y585253D01*
X267364Y585145D01*
X267457Y585039D01*
X267554Y584936D01*
X267653Y584835D01*
X274955Y585153D02*
X275055Y585155D01*
X275154Y585161D01*
X275254Y585171D01*
X275352Y585184D01*
X275451Y585202D01*
X275548Y585223D01*
X275644Y585248D01*
X275740Y585277D01*
X275834Y585310D01*
X275927Y585346D01*
X276018Y585386D01*
X276108Y585430D01*
X276196Y585477D01*
X276282Y585527D01*
X276366Y585581D01*
X276448Y585638D01*
X276527Y585698D01*
X276605Y585762D01*
X276679Y585828D01*
X276751Y585897D01*
X276820Y585969D01*
X276886Y586043D01*
X276950Y586121D01*
X277010Y586200D01*
X277067Y586282D01*
X277121Y586366D01*
X277171Y586452D01*
X277218Y586540D01*
X277262Y586630D01*
X277302Y586721D01*
X277338Y586814D01*
X277371Y586908D01*
X277400Y587004D01*
X277425Y587100D01*
X277446Y587197D01*
X277464Y587296D01*
X277477Y587394D01*
X277487Y587494D01*
X277493Y587593D01*
X277495Y587693D01*
X277496Y587693D02*
X277494Y587826D01*
X277489Y587959D01*
X277479Y588092D01*
X277466Y588225D01*
X277449Y588357D01*
X277429Y588489D01*
X277405Y588620D01*
X277377Y588750D01*
X277346Y588880D01*
X277311Y589008D01*
X277272Y589136D01*
X277230Y589262D01*
X277184Y589387D01*
X277135Y589511D01*
X277083Y589634D01*
X277027Y589755D01*
X276967Y589874D01*
X276905Y589992D01*
X276839Y590107D01*
X276770Y590221D01*
X276697Y590333D01*
X276622Y590443D01*
X276543Y590551D01*
X272732Y586422D02*
X272784Y586338D01*
X272839Y586255D01*
X272898Y586175D01*
X272959Y586097D01*
X273023Y586022D01*
X273091Y585949D01*
X273161Y585878D01*
X273233Y585811D01*
X273308Y585746D01*
X273386Y585684D01*
X273466Y585625D01*
X273548Y585569D01*
X273632Y585517D01*
X273718Y585468D01*
X273806Y585422D01*
X273896Y585379D01*
X273987Y585340D01*
X274080Y585305D01*
X274174Y585273D01*
X274269Y585245D01*
X274365Y585220D01*
X274462Y585200D01*
X274560Y585182D01*
X274658Y585169D01*
X274757Y585160D01*
X274856Y585154D01*
X274955Y585152D01*
X270828Y589915D02*
X270776Y589999D01*
X270721Y590082D01*
X270662Y590162D01*
X270601Y590240D01*
X270537Y590315D01*
X270469Y590388D01*
X270399Y590459D01*
X270327Y590526D01*
X270252Y590591D01*
X270174Y590653D01*
X270094Y590712D01*
X270012Y590768D01*
X269928Y590820D01*
X269842Y590869D01*
X269754Y590915D01*
X269664Y590958D01*
X269573Y590997D01*
X269480Y591032D01*
X269386Y591064D01*
X269291Y591092D01*
X269195Y591117D01*
X269098Y591137D01*
X269000Y591155D01*
X268902Y591168D01*
X268803Y591177D01*
X268704Y591183D01*
X268605Y591185D01*
X270828Y589915D02*
X272733Y586423D01*
X271780Y595884D02*
X272005Y595887D01*
X272230Y595895D01*
X272454Y595908D01*
X272678Y595927D01*
X272902Y595951D01*
X273125Y595980D01*
X273347Y596015D01*
X273568Y596055D01*
X273788Y596101D01*
X274007Y596151D01*
X274225Y596207D01*
X274442Y596268D01*
X274657Y596334D01*
X274870Y596405D01*
X275081Y596482D01*
X275291Y596563D01*
X275499Y596649D01*
X275704Y596740D01*
X275907Y596836D01*
X275908Y596836D02*
X275996Y596868D01*
X276083Y596904D01*
X276169Y596943D01*
X276253Y596986D01*
X276335Y597032D01*
X276415Y597081D01*
X276493Y597133D01*
X276569Y597189D01*
X276643Y597247D01*
X276714Y597309D01*
X276783Y597373D01*
X276849Y597440D01*
X276912Y597509D01*
X276973Y597581D01*
X277031Y597655D01*
X277085Y597732D01*
X277137Y597810D01*
X277185Y597891D01*
X277230Y597973D01*
X277272Y598058D01*
X277310Y598144D01*
X277345Y598231D01*
X277377Y598319D01*
X277404Y598409D01*
X277429Y598500D01*
X277449Y598592D01*
X277466Y598684D01*
X277479Y598778D01*
X277488Y598871D01*
X277494Y598965D01*
X277496Y599059D01*
X277494Y599153D01*
X277488Y599247D01*
X277479Y599340D01*
X277466Y599434D01*
X277449Y599526D01*
X277429Y599618D01*
X277404Y599709D01*
X277377Y599799D01*
X277345Y599887D01*
X277310Y599974D01*
X277272Y600060D01*
X277230Y600145D01*
X277185Y600227D01*
X277137Y600308D01*
X277085Y600386D01*
X277031Y600463D01*
X276973Y600537D01*
X276912Y600609D01*
X276849Y600678D01*
X276783Y600745D01*
X276714Y600809D01*
X276643Y600871D01*
X276569Y600929D01*
X276493Y600985D01*
X276415Y601037D01*
X276335Y601086D01*
X276253Y601132D01*
X276169Y601175D01*
X276083Y601214D01*
X275996Y601250D01*
X275908Y601282D01*
X275907Y601282D02*
X275704Y601378D01*
X275499Y601469D01*
X275291Y601555D01*
X275081Y601636D01*
X274870Y601713D01*
X274657Y601784D01*
X274442Y601850D01*
X274225Y601911D01*
X274007Y601967D01*
X273788Y602017D01*
X273568Y602063D01*
X273347Y602103D01*
X273125Y602138D01*
X272902Y602167D01*
X272678Y602191D01*
X272454Y602210D01*
X272230Y602223D01*
X272005Y602231D01*
X271780Y602234D01*
X271780Y595884D02*
X271555Y595887D01*
X271330Y595895D01*
X271106Y595908D01*
X270882Y595927D01*
X270658Y595951D01*
X270435Y595980D01*
X270213Y596015D01*
X269992Y596055D01*
X269772Y596101D01*
X269553Y596151D01*
X269335Y596207D01*
X269118Y596268D01*
X268903Y596334D01*
X268690Y596405D01*
X268479Y596482D01*
X268269Y596563D01*
X268061Y596649D01*
X267856Y596740D01*
X267653Y596836D01*
X267565Y596868D01*
X267478Y596904D01*
X267392Y596943D01*
X267308Y596986D01*
X267226Y597032D01*
X267146Y597081D01*
X267068Y597133D01*
X266992Y597189D01*
X266918Y597247D01*
X266847Y597309D01*
X266778Y597373D01*
X266712Y597440D01*
X266649Y597509D01*
X266588Y597581D01*
X266530Y597655D01*
X266476Y597732D01*
X266424Y597810D01*
X266376Y597891D01*
X266331Y597973D01*
X266289Y598058D01*
X266251Y598144D01*
X266216Y598231D01*
X266184Y598319D01*
X266157Y598409D01*
X266132Y598500D01*
X266112Y598592D01*
X266095Y598684D01*
X266082Y598778D01*
X266073Y598871D01*
X266067Y598965D01*
X266065Y599059D01*
X267653Y601282D02*
X267856Y601378D01*
X268061Y601469D01*
X268269Y601555D01*
X268479Y601636D01*
X268690Y601713D01*
X268903Y601784D01*
X269118Y601850D01*
X269335Y601911D01*
X269553Y601967D01*
X269772Y602017D01*
X269992Y602063D01*
X270213Y602103D01*
X270435Y602138D01*
X270658Y602167D01*
X270882Y602191D01*
X271106Y602210D01*
X271330Y602223D01*
X271555Y602231D01*
X271780Y602234D01*
X267653Y601282D02*
X267565Y601250D01*
X267478Y601214D01*
X267392Y601175D01*
X267308Y601132D01*
X267226Y601086D01*
X267146Y601037D01*
X267068Y600985D01*
X266992Y600929D01*
X266918Y600871D01*
X266847Y600809D01*
X266778Y600745D01*
X266712Y600678D01*
X266649Y600609D01*
X266588Y600537D01*
X266530Y600463D01*
X266476Y600386D01*
X266424Y600308D01*
X266376Y600227D01*
X266331Y600145D01*
X266289Y600060D01*
X266251Y599974D01*
X266216Y599887D01*
X266184Y599799D01*
X266157Y599709D01*
X266132Y599618D01*
X266112Y599526D01*
X266095Y599434D01*
X266082Y599340D01*
X266073Y599247D01*
X266067Y599153D01*
X266065Y599059D01*
X268605Y596519D02*
X274955Y601599D01*
D14*
X271980Y557866D02*
X271824Y557866D01*
X271824Y557865D02*
X271813Y557864D01*
X271802Y557859D01*
X271793Y557852D01*
X271786Y557843D01*
X271781Y557832D01*
X271780Y557821D01*
X271780Y557799D01*
X271836Y557946D02*
X271980Y557946D01*
X271836Y557946D02*
X271823Y557948D01*
X271810Y557952D01*
X271799Y557960D01*
X271790Y557970D01*
X271784Y557982D01*
X271780Y557995D01*
X271780Y558009D01*
X271784Y558022D01*
X271790Y558034D01*
X271799Y558044D01*
X271810Y558052D01*
X271823Y558056D01*
X271836Y558058D01*
X271836Y558057D02*
X271980Y558057D01*
X271980Y558139D02*
X271780Y558139D01*
X271869Y558206D02*
X271980Y558139D01*
X271869Y558206D02*
X271980Y558272D01*
X271780Y558272D01*
X271780Y558355D02*
X271980Y558355D01*
X271980Y558411D01*
X271978Y558424D01*
X271974Y558437D01*
X271966Y558448D01*
X271956Y558457D01*
X271944Y558463D01*
X271931Y558467D01*
X271917Y558467D01*
X271904Y558463D01*
X271892Y558457D01*
X271882Y558448D01*
X271874Y558437D01*
X271870Y558424D01*
X271868Y558411D01*
X271869Y558411D02*
X271869Y558355D01*
X271780Y558534D02*
X271780Y558623D01*
X271780Y558534D02*
X271980Y558534D01*
X271980Y558623D01*
X271891Y558601D02*
X271891Y558534D01*
X271980Y558691D02*
X271780Y558691D01*
X271980Y558691D02*
X271980Y558746D01*
X271978Y558759D01*
X271974Y558772D01*
X271966Y558783D01*
X271956Y558792D01*
X271944Y558798D01*
X271931Y558802D01*
X271917Y558802D01*
X271904Y558798D01*
X271892Y558792D01*
X271882Y558783D01*
X271874Y558772D01*
X271870Y558759D01*
X271868Y558746D01*
X271869Y558746D02*
X271869Y558691D01*
X271869Y558757D02*
X271780Y558802D01*
X271858Y558871D02*
X271858Y559004D01*
X271780Y559081D02*
X271980Y559081D01*
X271980Y559137D01*
X271978Y559150D01*
X271974Y559163D01*
X271966Y559174D01*
X271956Y559183D01*
X271944Y559189D01*
X271931Y559193D01*
X271917Y559193D01*
X271904Y559189D01*
X271892Y559183D01*
X271882Y559174D01*
X271874Y559163D01*
X271870Y559150D01*
X271868Y559137D01*
X271869Y559137D02*
X271869Y559081D01*
X271780Y559243D02*
X271980Y559310D01*
X271780Y559376D01*
X271830Y559360D02*
X271830Y559260D01*
X271780Y559440D02*
X271980Y559440D01*
X271980Y559496D01*
X271979Y559508D01*
X271974Y559520D01*
X271968Y559531D01*
X271959Y559540D01*
X271948Y559546D01*
X271936Y559551D01*
X271924Y559552D01*
X271924Y559551D02*
X271836Y559551D01*
X271836Y559552D02*
X271824Y559551D01*
X271812Y559546D01*
X271801Y559540D01*
X271792Y559531D01*
X271786Y559520D01*
X271781Y559508D01*
X271780Y559496D01*
X271780Y559440D01*
X271858Y559627D02*
X271858Y559760D01*
X271780Y559830D02*
X271780Y559886D01*
X271782Y559899D01*
X271786Y559912D01*
X271794Y559923D01*
X271804Y559932D01*
X271816Y559938D01*
X271829Y559942D01*
X271843Y559942D01*
X271856Y559938D01*
X271868Y559932D01*
X271878Y559923D01*
X271886Y559912D01*
X271890Y559899D01*
X271892Y559886D01*
X271980Y559897D02*
X271980Y559830D01*
X271980Y559897D02*
X271978Y559909D01*
X271973Y559921D01*
X271965Y559930D01*
X271954Y559937D01*
X271942Y559941D01*
X271930Y559941D01*
X271918Y559937D01*
X271907Y559930D01*
X271899Y559921D01*
X271894Y559909D01*
X271892Y559897D01*
X271891Y559897D02*
X271891Y559852D01*
X271858Y560011D02*
X271858Y560144D01*
X271980Y560275D02*
X271978Y560288D01*
X271973Y560300D01*
X271965Y560310D01*
X271955Y560318D01*
X271943Y560323D01*
X271930Y560325D01*
X271980Y560275D02*
X271979Y560262D01*
X271974Y560249D01*
X271968Y560237D01*
X271959Y560227D01*
X271948Y560220D01*
X271936Y560214D01*
X271891Y560308D02*
X271899Y560315D01*
X271909Y560321D01*
X271919Y560324D01*
X271930Y560325D01*
X271891Y560308D02*
X271780Y560214D01*
X271780Y560325D01*
X271836Y560394D02*
X271924Y560394D01*
X271924Y560393D02*
X271937Y560395D01*
X271950Y560399D01*
X271961Y560407D01*
X271970Y560417D01*
X271976Y560429D01*
X271980Y560442D01*
X271980Y560456D01*
X271976Y560469D01*
X271970Y560481D01*
X271961Y560491D01*
X271950Y560499D01*
X271937Y560503D01*
X271924Y560505D01*
X271836Y560505D01*
X271823Y560503D01*
X271810Y560499D01*
X271799Y560491D01*
X271790Y560481D01*
X271784Y560469D01*
X271780Y560456D01*
X271780Y560442D01*
X271784Y560429D01*
X271790Y560417D01*
X271799Y560407D01*
X271810Y560399D01*
X271823Y560395D01*
X271836Y560393D01*
X271780Y560580D02*
X271980Y560580D01*
X271980Y560669D01*
X271891Y560669D02*
X271891Y560580D01*
X271780Y560730D02*
X271780Y560785D01*
X271782Y560798D01*
X271786Y560811D01*
X271794Y560822D01*
X271804Y560831D01*
X271816Y560837D01*
X271829Y560841D01*
X271843Y560841D01*
X271856Y560837D01*
X271868Y560831D01*
X271878Y560822D01*
X271886Y560811D01*
X271890Y560798D01*
X271892Y560785D01*
X271980Y560797D02*
X271980Y560730D01*
X271980Y560797D02*
X271978Y560809D01*
X271973Y560821D01*
X271965Y560830D01*
X271954Y560837D01*
X271942Y560841D01*
X271930Y560841D01*
X271918Y560837D01*
X271907Y560830D01*
X271899Y560821D01*
X271894Y560809D01*
X271892Y560797D01*
X271891Y560797D02*
X271891Y560752D01*
X271758Y560903D02*
X271758Y560992D01*
X271780Y561060D02*
X271980Y561060D01*
X271780Y561171D01*
X271980Y561171D01*
X271780Y561290D02*
X271780Y561334D01*
X271780Y561290D02*
X271781Y561279D01*
X271786Y561268D01*
X271793Y561259D01*
X271802Y561252D01*
X271813Y561247D01*
X271824Y561246D01*
X271936Y561246D01*
X271947Y561247D01*
X271958Y561252D01*
X271967Y561259D01*
X271974Y561268D01*
X271978Y561279D01*
X271980Y561290D01*
X271980Y561334D01*
X271758Y561389D02*
X271758Y561478D01*
X271891Y561547D02*
X271891Y561603D01*
X271892Y561603D02*
X271890Y561616D01*
X271886Y561629D01*
X271878Y561640D01*
X271868Y561649D01*
X271856Y561655D01*
X271843Y561659D01*
X271829Y561659D01*
X271816Y561655D01*
X271804Y561649D01*
X271794Y561640D01*
X271786Y561629D01*
X271782Y561616D01*
X271780Y561603D01*
X271780Y561547D01*
X271980Y561547D01*
X271980Y561603D01*
X271978Y561615D01*
X271973Y561627D01*
X271965Y561636D01*
X271954Y561643D01*
X271942Y561647D01*
X271930Y561647D01*
X271918Y561643D01*
X271907Y561636D01*
X271899Y561627D01*
X271894Y561615D01*
X271892Y561603D01*
X271980Y561709D02*
X271886Y561775D01*
X271980Y561842D01*
X271886Y561775D02*
X271780Y561775D01*
X271758Y561893D02*
X271758Y561982D01*
X271780Y562087D02*
X271980Y562087D01*
X271980Y562032D02*
X271980Y562143D01*
X271980Y562206D02*
X271780Y562206D01*
X271980Y562206D02*
X271980Y562262D01*
X271978Y562275D01*
X271974Y562288D01*
X271966Y562299D01*
X271956Y562308D01*
X271944Y562314D01*
X271931Y562318D01*
X271917Y562318D01*
X271904Y562314D01*
X271892Y562308D01*
X271882Y562299D01*
X271874Y562288D01*
X271870Y562275D01*
X271868Y562262D01*
X271869Y562262D02*
X271869Y562206D01*
X271869Y562273D02*
X271780Y562317D01*
X271780Y562375D02*
X271980Y562441D01*
X271780Y562508D01*
X271830Y562491D02*
X271830Y562391D01*
X271780Y562610D02*
X271780Y562654D01*
X271780Y562610D02*
X271781Y562599D01*
X271786Y562588D01*
X271793Y562579D01*
X271802Y562572D01*
X271813Y562567D01*
X271824Y562566D01*
X271824Y562565D02*
X271936Y562565D01*
X271936Y562566D02*
X271947Y562567D01*
X271958Y562572D01*
X271967Y562579D01*
X271974Y562588D01*
X271978Y562599D01*
X271980Y562610D01*
X271980Y562654D01*
X271780Y562722D02*
X271780Y562811D01*
X271780Y562722D02*
X271980Y562722D01*
X271980Y562811D01*
X271891Y562788D02*
X271891Y562722D01*
X271758Y562865D02*
X271758Y562954D01*
X271780Y563022D02*
X271980Y563022D01*
X271780Y563022D02*
X271780Y563111D01*
X271780Y563160D02*
X271980Y563227D01*
X271780Y563294D01*
X271830Y563277D02*
X271830Y563177D01*
X271780Y563358D02*
X271980Y563358D01*
X271980Y563414D01*
X271978Y563427D01*
X271974Y563440D01*
X271966Y563451D01*
X271956Y563460D01*
X271944Y563466D01*
X271931Y563470D01*
X271917Y563470D01*
X271904Y563466D01*
X271892Y563460D01*
X271882Y563451D01*
X271874Y563440D01*
X271870Y563427D01*
X271868Y563414D01*
X271869Y563414D02*
X271869Y563358D01*
X271869Y563425D02*
X271780Y563469D01*
X271891Y563621D02*
X271891Y563655D01*
X271780Y563655D01*
X271780Y563588D01*
X271781Y563577D01*
X271786Y563566D01*
X271793Y563557D01*
X271802Y563550D01*
X271813Y563545D01*
X271824Y563544D01*
X271936Y563544D01*
X271947Y563545D01*
X271958Y563550D01*
X271967Y563557D01*
X271974Y563566D01*
X271978Y563577D01*
X271980Y563588D01*
X271980Y563655D01*
X271780Y563736D02*
X271780Y563825D01*
X271780Y563736D02*
X271980Y563736D01*
X271980Y563825D01*
X271891Y563802D02*
X271891Y563736D01*
D11*
X246380Y580390D02*
X246380Y537210D01*
X228600Y534670D02*
X228500Y534672D01*
X228401Y534678D01*
X228301Y534688D01*
X228203Y534701D01*
X228104Y534719D01*
X228007Y534740D01*
X227911Y534765D01*
X227815Y534794D01*
X227721Y534827D01*
X227628Y534863D01*
X227537Y534903D01*
X227447Y534947D01*
X227359Y534994D01*
X227273Y535044D01*
X227189Y535098D01*
X227107Y535155D01*
X227028Y535215D01*
X226950Y535279D01*
X226876Y535345D01*
X226804Y535414D01*
X226735Y535486D01*
X226669Y535560D01*
X226605Y535638D01*
X226545Y535717D01*
X226488Y535799D01*
X226434Y535883D01*
X226384Y535969D01*
X226337Y536057D01*
X226293Y536147D01*
X226253Y536238D01*
X226217Y536331D01*
X226184Y536425D01*
X226155Y536521D01*
X226130Y536617D01*
X226109Y536714D01*
X226091Y536813D01*
X226078Y536911D01*
X226068Y537011D01*
X226062Y537110D01*
X226060Y537210D01*
X226060Y580390D02*
X226062Y580490D01*
X226068Y580589D01*
X226078Y580689D01*
X226091Y580787D01*
X226109Y580886D01*
X226130Y580983D01*
X226155Y581079D01*
X226184Y581175D01*
X226217Y581269D01*
X226253Y581362D01*
X226293Y581453D01*
X226337Y581543D01*
X226384Y581631D01*
X226434Y581717D01*
X226488Y581801D01*
X226545Y581883D01*
X226605Y581962D01*
X226669Y582040D01*
X226735Y582114D01*
X226804Y582186D01*
X226876Y582255D01*
X226950Y582321D01*
X227028Y582385D01*
X227107Y582445D01*
X227189Y582502D01*
X227273Y582556D01*
X227359Y582606D01*
X227447Y582653D01*
X227537Y582697D01*
X227628Y582737D01*
X227721Y582773D01*
X227815Y582806D01*
X227911Y582835D01*
X228007Y582860D01*
X228104Y582881D01*
X228203Y582899D01*
X228301Y582912D01*
X228401Y582922D01*
X228500Y582928D01*
X228600Y582930D01*
X243840Y582930D02*
X243940Y582928D01*
X244039Y582922D01*
X244139Y582912D01*
X244237Y582899D01*
X244336Y582881D01*
X244433Y582860D01*
X244529Y582835D01*
X244625Y582806D01*
X244719Y582773D01*
X244812Y582737D01*
X244903Y582697D01*
X244993Y582653D01*
X245081Y582606D01*
X245167Y582556D01*
X245251Y582502D01*
X245333Y582445D01*
X245412Y582385D01*
X245490Y582321D01*
X245564Y582255D01*
X245636Y582186D01*
X245705Y582114D01*
X245771Y582040D01*
X245835Y581962D01*
X245895Y581883D01*
X245952Y581801D01*
X246006Y581717D01*
X246056Y581631D01*
X246103Y581543D01*
X246147Y581453D01*
X246187Y581362D01*
X246223Y581269D01*
X246256Y581175D01*
X246285Y581079D01*
X246310Y580983D01*
X246331Y580886D01*
X246349Y580787D01*
X246362Y580689D01*
X246372Y580589D01*
X246378Y580490D01*
X246380Y580390D01*
X246380Y537210D02*
X246378Y537110D01*
X246372Y537011D01*
X246362Y536911D01*
X246349Y536813D01*
X246331Y536714D01*
X246310Y536617D01*
X246285Y536521D01*
X246256Y536425D01*
X246223Y536331D01*
X246187Y536238D01*
X246147Y536147D01*
X246103Y536057D01*
X246056Y535969D01*
X246006Y535883D01*
X245952Y535799D01*
X245895Y535717D01*
X245835Y535638D01*
X245771Y535560D01*
X245705Y535486D01*
X245636Y535414D01*
X245564Y535345D01*
X245490Y535279D01*
X245412Y535215D01*
X245333Y535155D01*
X245251Y535098D01*
X245167Y535044D01*
X245081Y534994D01*
X244993Y534947D01*
X244903Y534903D01*
X244812Y534863D01*
X244719Y534827D01*
X244625Y534794D01*
X244529Y534765D01*
X244433Y534740D01*
X244336Y534719D01*
X244237Y534701D01*
X244139Y534688D01*
X244039Y534678D01*
X243940Y534672D01*
X243840Y534670D01*
X228600Y534670D01*
X228600Y582930D02*
X243840Y582930D01*
X226060Y580390D02*
X226060Y537210D01*
D13*
X230505Y588645D02*
X230507Y588745D01*
X230513Y588844D01*
X230523Y588944D01*
X230536Y589042D01*
X230554Y589141D01*
X230575Y589238D01*
X230600Y589334D01*
X230629Y589430D01*
X230662Y589524D01*
X230698Y589617D01*
X230738Y589708D01*
X230782Y589798D01*
X230829Y589886D01*
X230879Y589972D01*
X230933Y590056D01*
X230990Y590138D01*
X231050Y590217D01*
X231114Y590295D01*
X231180Y590369D01*
X231249Y590441D01*
X231321Y590510D01*
X231395Y590576D01*
X231473Y590640D01*
X231552Y590700D01*
X231634Y590757D01*
X231718Y590811D01*
X231804Y590861D01*
X231892Y590908D01*
X231982Y590952D01*
X232073Y590992D01*
X232166Y591028D01*
X232260Y591061D01*
X232356Y591090D01*
X232452Y591115D01*
X232549Y591136D01*
X232648Y591154D01*
X232746Y591167D01*
X232846Y591177D01*
X232945Y591183D01*
X233045Y591185D01*
X230505Y588645D02*
X230507Y588504D01*
X230512Y588363D01*
X230522Y588222D01*
X230535Y588081D01*
X230551Y587941D01*
X230572Y587801D01*
X230596Y587662D01*
X230624Y587523D01*
X230655Y587386D01*
X230690Y587249D01*
X230728Y587113D01*
X230770Y586978D01*
X230816Y586845D01*
X230865Y586712D01*
X230918Y586581D01*
X230974Y586452D01*
X231033Y586323D01*
X231096Y586197D01*
X231162Y586072D01*
X231231Y585949D01*
X231304Y585828D01*
X231380Y585709D01*
X231459Y585591D01*
X231540Y585476D01*
X231625Y585364D01*
X231713Y585253D01*
X231804Y585145D01*
X231897Y585039D01*
X231994Y584936D01*
X232093Y584835D01*
X239395Y585153D02*
X239495Y585155D01*
X239594Y585161D01*
X239694Y585171D01*
X239792Y585184D01*
X239891Y585202D01*
X239988Y585223D01*
X240084Y585248D01*
X240180Y585277D01*
X240274Y585310D01*
X240367Y585346D01*
X240458Y585386D01*
X240548Y585430D01*
X240636Y585477D01*
X240722Y585527D01*
X240806Y585581D01*
X240888Y585638D01*
X240967Y585698D01*
X241045Y585762D01*
X241119Y585828D01*
X241191Y585897D01*
X241260Y585969D01*
X241326Y586043D01*
X241390Y586121D01*
X241450Y586200D01*
X241507Y586282D01*
X241561Y586366D01*
X241611Y586452D01*
X241658Y586540D01*
X241702Y586630D01*
X241742Y586721D01*
X241778Y586814D01*
X241811Y586908D01*
X241840Y587004D01*
X241865Y587100D01*
X241886Y587197D01*
X241904Y587296D01*
X241917Y587394D01*
X241927Y587494D01*
X241933Y587593D01*
X241935Y587693D01*
X241936Y587693D02*
X241934Y587826D01*
X241929Y587959D01*
X241919Y588092D01*
X241906Y588225D01*
X241889Y588357D01*
X241869Y588489D01*
X241845Y588620D01*
X241817Y588750D01*
X241786Y588880D01*
X241751Y589008D01*
X241712Y589136D01*
X241670Y589262D01*
X241624Y589387D01*
X241575Y589511D01*
X241523Y589634D01*
X241467Y589755D01*
X241407Y589874D01*
X241345Y589992D01*
X241279Y590107D01*
X241210Y590221D01*
X241137Y590333D01*
X241062Y590443D01*
X240983Y590551D01*
X237172Y586422D02*
X237224Y586338D01*
X237279Y586255D01*
X237338Y586175D01*
X237399Y586097D01*
X237463Y586022D01*
X237531Y585949D01*
X237601Y585878D01*
X237673Y585811D01*
X237748Y585746D01*
X237826Y585684D01*
X237906Y585625D01*
X237988Y585569D01*
X238072Y585517D01*
X238158Y585468D01*
X238246Y585422D01*
X238336Y585379D01*
X238427Y585340D01*
X238520Y585305D01*
X238614Y585273D01*
X238709Y585245D01*
X238805Y585220D01*
X238902Y585200D01*
X239000Y585182D01*
X239098Y585169D01*
X239197Y585160D01*
X239296Y585154D01*
X239395Y585152D01*
X235268Y589915D02*
X235216Y589999D01*
X235161Y590082D01*
X235102Y590162D01*
X235041Y590240D01*
X234977Y590315D01*
X234909Y590388D01*
X234839Y590459D01*
X234767Y590526D01*
X234692Y590591D01*
X234614Y590653D01*
X234534Y590712D01*
X234452Y590768D01*
X234368Y590820D01*
X234282Y590869D01*
X234194Y590915D01*
X234104Y590958D01*
X234013Y590997D01*
X233920Y591032D01*
X233826Y591064D01*
X233731Y591092D01*
X233635Y591117D01*
X233538Y591137D01*
X233440Y591155D01*
X233342Y591168D01*
X233243Y591177D01*
X233144Y591183D01*
X233045Y591185D01*
X235268Y589915D02*
X237173Y586423D01*
X239395Y595884D02*
X241935Y599059D01*
X230505Y599059D01*
X230505Y595884D02*
X230505Y602234D01*
D14*
X236064Y553842D02*
X236220Y553842D01*
X236064Y553842D02*
X236053Y553841D01*
X236042Y553836D01*
X236033Y553829D01*
X236026Y553820D01*
X236021Y553809D01*
X236020Y553798D01*
X236020Y553775D01*
X236076Y553923D02*
X236220Y553923D01*
X236076Y553922D02*
X236063Y553924D01*
X236050Y553928D01*
X236039Y553936D01*
X236030Y553946D01*
X236024Y553958D01*
X236020Y553971D01*
X236020Y553985D01*
X236024Y553998D01*
X236030Y554010D01*
X236039Y554020D01*
X236050Y554028D01*
X236063Y554032D01*
X236076Y554034D01*
X236220Y554034D01*
X236220Y554115D02*
X236020Y554115D01*
X236109Y554182D02*
X236220Y554115D01*
X236109Y554182D02*
X236220Y554249D01*
X236020Y554249D01*
X236020Y554332D02*
X236220Y554332D01*
X236220Y554387D01*
X236218Y554400D01*
X236214Y554413D01*
X236206Y554424D01*
X236196Y554433D01*
X236184Y554439D01*
X236171Y554443D01*
X236157Y554443D01*
X236144Y554439D01*
X236132Y554433D01*
X236122Y554424D01*
X236114Y554413D01*
X236110Y554400D01*
X236108Y554387D01*
X236109Y554387D02*
X236109Y554332D01*
X236020Y554511D02*
X236020Y554600D01*
X236020Y554511D02*
X236220Y554511D01*
X236220Y554600D01*
X236131Y554577D02*
X236131Y554511D01*
X236220Y554667D02*
X236020Y554667D01*
X236220Y554667D02*
X236220Y554723D01*
X236218Y554736D01*
X236214Y554749D01*
X236206Y554760D01*
X236196Y554769D01*
X236184Y554775D01*
X236171Y554779D01*
X236157Y554779D01*
X236144Y554775D01*
X236132Y554769D01*
X236122Y554760D01*
X236114Y554749D01*
X236110Y554736D01*
X236108Y554723D01*
X236109Y554723D02*
X236109Y554667D01*
X236109Y554734D02*
X236020Y554778D01*
X236098Y554847D02*
X236098Y554981D01*
X236020Y555058D02*
X236220Y555058D01*
X236220Y555113D01*
X236218Y555126D01*
X236214Y555139D01*
X236206Y555150D01*
X236196Y555159D01*
X236184Y555165D01*
X236171Y555169D01*
X236157Y555169D01*
X236144Y555165D01*
X236132Y555159D01*
X236122Y555150D01*
X236114Y555139D01*
X236110Y555126D01*
X236108Y555113D01*
X236109Y555113D02*
X236109Y555058D01*
X236020Y555219D02*
X236220Y555286D01*
X236020Y555353D01*
X236070Y555336D02*
X236070Y555236D01*
X236020Y555416D02*
X236220Y555416D01*
X236220Y555472D01*
X236219Y555484D01*
X236214Y555496D01*
X236208Y555507D01*
X236199Y555516D01*
X236188Y555522D01*
X236176Y555527D01*
X236164Y555528D01*
X236076Y555528D01*
X236064Y555527D01*
X236052Y555522D01*
X236041Y555516D01*
X236032Y555507D01*
X236026Y555496D01*
X236021Y555484D01*
X236020Y555472D01*
X236020Y555416D01*
X236098Y555603D02*
X236098Y555737D01*
X236020Y555806D02*
X236020Y555862D01*
X236022Y555875D01*
X236026Y555888D01*
X236034Y555899D01*
X236044Y555908D01*
X236056Y555914D01*
X236069Y555918D01*
X236083Y555918D01*
X236096Y555914D01*
X236108Y555908D01*
X236118Y555899D01*
X236126Y555888D01*
X236130Y555875D01*
X236132Y555862D01*
X236220Y555873D02*
X236220Y555806D01*
X236220Y555873D02*
X236218Y555885D01*
X236213Y555897D01*
X236205Y555906D01*
X236194Y555913D01*
X236182Y555917D01*
X236170Y555917D01*
X236158Y555913D01*
X236147Y555906D01*
X236139Y555897D01*
X236134Y555885D01*
X236132Y555873D01*
X236131Y555873D02*
X236131Y555829D01*
X236098Y555987D02*
X236098Y556121D01*
X236220Y556251D02*
X236218Y556264D01*
X236213Y556276D01*
X236205Y556286D01*
X236195Y556294D01*
X236183Y556299D01*
X236170Y556301D01*
X236220Y556251D02*
X236219Y556238D01*
X236214Y556225D01*
X236208Y556213D01*
X236199Y556203D01*
X236188Y556196D01*
X236176Y556190D01*
X236131Y556285D02*
X236139Y556292D01*
X236149Y556298D01*
X236159Y556301D01*
X236170Y556302D01*
X236131Y556285D02*
X236020Y556190D01*
X236020Y556301D01*
X236076Y556370D02*
X236164Y556370D01*
X236177Y556372D01*
X236190Y556376D01*
X236201Y556384D01*
X236210Y556394D01*
X236216Y556406D01*
X236220Y556419D01*
X236220Y556433D01*
X236216Y556446D01*
X236210Y556458D01*
X236201Y556468D01*
X236190Y556476D01*
X236177Y556480D01*
X236164Y556482D01*
X236164Y556481D02*
X236076Y556481D01*
X236076Y556482D02*
X236063Y556480D01*
X236050Y556476D01*
X236039Y556468D01*
X236030Y556458D01*
X236024Y556446D01*
X236020Y556433D01*
X236020Y556419D01*
X236024Y556406D01*
X236030Y556394D01*
X236039Y556384D01*
X236050Y556376D01*
X236063Y556372D01*
X236076Y556370D01*
X236020Y556557D02*
X236220Y556557D01*
X236220Y556645D01*
X236131Y556645D02*
X236131Y556557D01*
X236020Y556706D02*
X236020Y556762D01*
X236022Y556775D01*
X236026Y556788D01*
X236034Y556799D01*
X236044Y556808D01*
X236056Y556814D01*
X236069Y556818D01*
X236083Y556818D01*
X236096Y556814D01*
X236108Y556808D01*
X236118Y556799D01*
X236126Y556788D01*
X236130Y556775D01*
X236132Y556762D01*
X236220Y556773D02*
X236220Y556706D01*
X236220Y556773D02*
X236218Y556785D01*
X236213Y556797D01*
X236205Y556806D01*
X236194Y556813D01*
X236182Y556817D01*
X236170Y556817D01*
X236158Y556813D01*
X236147Y556806D01*
X236139Y556797D01*
X236134Y556785D01*
X236132Y556773D01*
X236131Y556773D02*
X236131Y556729D01*
X235998Y556879D02*
X235998Y556968D01*
X236020Y557036D02*
X236220Y557036D01*
X236020Y557147D01*
X236220Y557147D01*
X236020Y557266D02*
X236020Y557311D01*
X236020Y557266D02*
X236021Y557255D01*
X236026Y557244D01*
X236033Y557235D01*
X236042Y557228D01*
X236053Y557223D01*
X236064Y557222D01*
X236176Y557222D01*
X236187Y557223D01*
X236198Y557228D01*
X236207Y557235D01*
X236214Y557244D01*
X236218Y557255D01*
X236220Y557266D01*
X236220Y557311D01*
X235998Y557365D02*
X235998Y557454D01*
X236131Y557524D02*
X236131Y557579D01*
X236132Y557579D02*
X236130Y557592D01*
X236126Y557605D01*
X236118Y557616D01*
X236108Y557625D01*
X236096Y557631D01*
X236083Y557635D01*
X236069Y557635D01*
X236056Y557631D01*
X236044Y557625D01*
X236034Y557616D01*
X236026Y557605D01*
X236022Y557592D01*
X236020Y557579D01*
X236020Y557524D01*
X236220Y557524D01*
X236220Y557579D01*
X236218Y557591D01*
X236213Y557603D01*
X236205Y557612D01*
X236194Y557619D01*
X236182Y557623D01*
X236170Y557623D01*
X236158Y557619D01*
X236147Y557612D01*
X236139Y557603D01*
X236134Y557591D01*
X236132Y557579D01*
X236220Y557685D02*
X236126Y557752D01*
X236220Y557818D01*
X236126Y557752D02*
X236020Y557752D01*
X235998Y557869D02*
X235998Y557958D01*
X236020Y558064D02*
X236220Y558064D01*
X236220Y558119D02*
X236220Y558008D01*
X236220Y558183D02*
X236020Y558183D01*
X236220Y558183D02*
X236220Y558238D01*
X236218Y558251D01*
X236214Y558264D01*
X236206Y558275D01*
X236196Y558284D01*
X236184Y558290D01*
X236171Y558294D01*
X236157Y558294D01*
X236144Y558290D01*
X236132Y558284D01*
X236122Y558275D01*
X236114Y558264D01*
X236110Y558251D01*
X236108Y558238D01*
X236109Y558238D02*
X236109Y558183D01*
X236109Y558249D02*
X236020Y558294D01*
X236020Y558351D02*
X236220Y558418D01*
X236020Y558484D01*
X236070Y558468D02*
X236070Y558368D01*
X236020Y558586D02*
X236020Y558631D01*
X236020Y558586D02*
X236021Y558575D01*
X236026Y558564D01*
X236033Y558555D01*
X236042Y558548D01*
X236053Y558543D01*
X236064Y558542D01*
X236176Y558542D01*
X236187Y558543D01*
X236198Y558548D01*
X236207Y558555D01*
X236214Y558564D01*
X236218Y558575D01*
X236220Y558586D01*
X236220Y558631D01*
X236020Y558698D02*
X236020Y558787D01*
X236020Y558698D02*
X236220Y558698D01*
X236220Y558787D01*
X236131Y558765D02*
X236131Y558698D01*
X235998Y558841D02*
X235998Y558930D01*
X236020Y558998D02*
X236220Y558998D01*
X236020Y558998D02*
X236020Y559087D01*
X236020Y559137D02*
X236220Y559204D01*
X236020Y559270D01*
X236070Y559254D02*
X236070Y559154D01*
X236020Y559335D02*
X236220Y559335D01*
X236220Y559390D01*
X236218Y559403D01*
X236214Y559416D01*
X236206Y559427D01*
X236196Y559436D01*
X236184Y559442D01*
X236171Y559446D01*
X236157Y559446D01*
X236144Y559442D01*
X236132Y559436D01*
X236122Y559427D01*
X236114Y559416D01*
X236110Y559403D01*
X236108Y559390D01*
X236109Y559390D02*
X236109Y559335D01*
X236109Y559401D02*
X236020Y559446D01*
X236131Y559598D02*
X236131Y559631D01*
X236020Y559631D01*
X236020Y559564D01*
X236021Y559553D01*
X236026Y559542D01*
X236033Y559533D01*
X236042Y559526D01*
X236053Y559521D01*
X236064Y559520D01*
X236176Y559520D01*
X236187Y559521D01*
X236198Y559526D01*
X236207Y559533D01*
X236214Y559542D01*
X236218Y559553D01*
X236220Y559564D01*
X236220Y559631D01*
X236020Y559712D02*
X236020Y559801D01*
X236020Y559712D02*
X236220Y559712D01*
X236220Y559801D01*
X236131Y559779D02*
X236131Y559712D01*
D13*
X957580Y-15240D02*
X982980Y-15240D01*
X8890Y-15240D02*
X-17780Y-15240D01*
M02*
