G04 EAGLE Gerber RS-274X export*
G75*
%MOMM*%
%FSLAX34Y34*%
%LPD*%
%INSoldermask Top*%
%IPPOS*%
%AMOC8*
5,1,8,0,0,1.08239X$1,22.5*%
G01*
%ADD10R,1.601600X0.451600*%
%ADD11R,0.451600X1.601600*%
%ADD12C,1.422400*%
%ADD13C,5.181600*%
%ADD14P,1.649562X8X292.500000*%
%ADD15C,2.895600*%
%ADD16C,1.422400*%
%ADD17P,1.539592X8X22.500000*%
%ADD18P,1.649562X8X112.500000*%
%ADD19P,1.539592X8X292.500000*%
%ADD20P,1.539592X8X202.500000*%
%ADD21P,1.759533X8X292.500000*%


D10*
X326400Y314000D03*
X326400Y309000D03*
X326400Y304000D03*
X326400Y299000D03*
X326400Y294000D03*
X326400Y289000D03*
X326400Y284000D03*
X326400Y279000D03*
X326400Y274000D03*
X326400Y269000D03*
X326400Y264000D03*
X326400Y259000D03*
X326400Y254000D03*
X326400Y249000D03*
X326400Y244000D03*
X326400Y239000D03*
X326400Y234000D03*
X326400Y229000D03*
X326400Y224000D03*
X326400Y219000D03*
X326400Y214000D03*
X326400Y209000D03*
X326400Y204000D03*
X326400Y199000D03*
X326400Y194000D03*
D11*
X346400Y174000D03*
X351400Y174000D03*
X356400Y174000D03*
X361400Y174000D03*
X366400Y174000D03*
X371400Y174000D03*
X376400Y174000D03*
X381400Y174000D03*
X386400Y174000D03*
X391400Y174000D03*
X396400Y174000D03*
X401400Y174000D03*
X406400Y174000D03*
X411400Y174000D03*
X416400Y174000D03*
X421400Y174000D03*
X426400Y174000D03*
X431400Y174000D03*
X436400Y174000D03*
X441400Y174000D03*
X446400Y174000D03*
X451400Y174000D03*
X456400Y174000D03*
X461400Y174000D03*
X466400Y174000D03*
D10*
X486400Y194000D03*
X486400Y199000D03*
X486400Y204000D03*
X486400Y209000D03*
X486400Y214000D03*
X486400Y219000D03*
X486400Y224000D03*
X486400Y229000D03*
X486400Y234000D03*
X486400Y239000D03*
X486400Y244000D03*
X486400Y249000D03*
X486400Y254000D03*
X486400Y259000D03*
X486400Y264000D03*
X486400Y269000D03*
X486400Y274000D03*
X486400Y279000D03*
X486400Y284000D03*
X486400Y289000D03*
X486400Y294000D03*
X486400Y299000D03*
X486400Y304000D03*
X486400Y309000D03*
X486400Y314000D03*
D11*
X466400Y334000D03*
X461400Y334000D03*
X456400Y334000D03*
X451400Y334000D03*
X446400Y334000D03*
X441400Y334000D03*
X436400Y334000D03*
X431400Y334000D03*
X426400Y334000D03*
X421400Y334000D03*
X416400Y334000D03*
X411400Y334000D03*
X406400Y334000D03*
X401400Y334000D03*
X396400Y334000D03*
X391400Y334000D03*
X386400Y334000D03*
X381400Y334000D03*
X376400Y334000D03*
X371400Y334000D03*
X366400Y334000D03*
X361400Y334000D03*
X356400Y334000D03*
X351400Y334000D03*
X346400Y334000D03*
D12*
X622300Y286004D02*
X622300Y272796D01*
X647700Y272796D02*
X647700Y286004D01*
X774700Y286004D02*
X774700Y272796D01*
X800100Y272796D02*
X800100Y286004D01*
X673100Y286004D02*
X673100Y272796D01*
X698500Y272796D02*
X698500Y286004D01*
X749300Y286004D02*
X749300Y272796D01*
X723900Y272796D02*
X723900Y286004D01*
X825500Y286004D02*
X825500Y272796D01*
X850900Y272796D02*
X850900Y286004D01*
X876300Y286004D02*
X876300Y272796D01*
X901700Y272796D02*
X901700Y286004D01*
X927100Y286004D02*
X927100Y272796D01*
X952500Y272796D02*
X952500Y286004D01*
X952500Y348996D02*
X952500Y362204D01*
X927100Y362204D02*
X927100Y348996D01*
X901700Y348996D02*
X901700Y362204D01*
X876300Y362204D02*
X876300Y348996D01*
X850900Y348996D02*
X850900Y362204D01*
X825500Y362204D02*
X825500Y348996D01*
X800100Y348996D02*
X800100Y362204D01*
X774700Y362204D02*
X774700Y348996D01*
X749300Y348996D02*
X749300Y362204D01*
X723900Y362204D02*
X723900Y348996D01*
X698500Y348996D02*
X698500Y362204D01*
X673100Y362204D02*
X673100Y348996D01*
X647700Y348996D02*
X647700Y362204D01*
X622300Y362204D02*
X622300Y348996D01*
D13*
X952500Y27940D03*
D14*
X901700Y53340D03*
X876300Y53340D03*
X850900Y53340D03*
X825500Y53340D03*
X800100Y53340D03*
X774700Y53340D03*
X749300Y53340D03*
X723900Y53340D03*
X698500Y53340D03*
X673100Y53340D03*
X647700Y53340D03*
X622300Y53340D03*
X596900Y53340D03*
X571500Y53340D03*
X546100Y53340D03*
X520700Y53340D03*
X495300Y53340D03*
X469900Y53340D03*
X444500Y53340D03*
X419100Y53340D03*
X393700Y53340D03*
X368300Y53340D03*
X342900Y53340D03*
X317500Y53340D03*
X292100Y53340D03*
X266700Y53340D03*
X241300Y53340D03*
X215900Y53340D03*
X190500Y53340D03*
X165100Y53340D03*
X139700Y53340D03*
X114300Y53340D03*
X901700Y104140D03*
X876300Y104140D03*
X850900Y104140D03*
X825500Y104140D03*
X800100Y104140D03*
X774700Y104140D03*
X749300Y104140D03*
X723900Y104140D03*
X698500Y104140D03*
X673100Y104140D03*
X647700Y104140D03*
X622300Y104140D03*
X596900Y104140D03*
X571500Y104140D03*
X546100Y104140D03*
X520700Y104140D03*
X495300Y104140D03*
X469900Y104140D03*
X444500Y104140D03*
X419100Y104140D03*
X393700Y104140D03*
X368300Y104140D03*
X342900Y104140D03*
X317500Y104140D03*
X292100Y104140D03*
X266700Y104140D03*
X241300Y104140D03*
X215900Y104140D03*
X190500Y104140D03*
X165100Y104140D03*
X139700Y104140D03*
X114300Y104140D03*
D13*
X63500Y27940D03*
D14*
X901700Y78740D03*
X876300Y78740D03*
X850900Y78740D03*
X825500Y78740D03*
X800100Y78740D03*
X774700Y78740D03*
X749300Y78740D03*
X723900Y78740D03*
X698500Y78740D03*
X673100Y78740D03*
X647700Y78740D03*
X622300Y78740D03*
X596900Y78740D03*
X571500Y78740D03*
X546100Y78740D03*
X520700Y78740D03*
X495300Y78740D03*
X469900Y78740D03*
X444500Y78740D03*
X419100Y78740D03*
X393700Y78740D03*
X368300Y78740D03*
X342900Y78740D03*
X317500Y78740D03*
X292100Y78740D03*
X266700Y78740D03*
X241300Y78740D03*
X215900Y78740D03*
X190500Y78740D03*
X165100Y78740D03*
X139700Y78740D03*
X114300Y78740D03*
D15*
X952500Y27940D03*
X63500Y27940D03*
D16*
X152400Y355600D03*
X152400Y279400D03*
X228600Y279400D03*
X228600Y355600D03*
D17*
X50800Y165100D03*
X101600Y165100D03*
X50800Y190500D03*
X101600Y190500D03*
X50800Y215900D03*
X101600Y215900D03*
X50800Y241300D03*
X101600Y241300D03*
X50800Y266700D03*
X101600Y266700D03*
X50800Y292100D03*
X101600Y292100D03*
D12*
X622300Y159004D02*
X622300Y145796D01*
X647700Y145796D02*
X647700Y159004D01*
X774700Y159004D02*
X774700Y145796D01*
X800100Y145796D02*
X800100Y159004D01*
X673100Y159004D02*
X673100Y145796D01*
X698500Y145796D02*
X698500Y159004D01*
X749300Y159004D02*
X749300Y145796D01*
X723900Y145796D02*
X723900Y159004D01*
X825500Y159004D02*
X825500Y145796D01*
X850900Y145796D02*
X850900Y159004D01*
X876300Y159004D02*
X876300Y145796D01*
X901700Y145796D02*
X901700Y159004D01*
X927100Y159004D02*
X927100Y145796D01*
X952500Y145796D02*
X952500Y159004D01*
X952500Y221996D02*
X952500Y235204D01*
X927100Y235204D02*
X927100Y221996D01*
X901700Y221996D02*
X901700Y235204D01*
X876300Y235204D02*
X876300Y221996D01*
X850900Y221996D02*
X850900Y235204D01*
X825500Y235204D02*
X825500Y221996D01*
X800100Y221996D02*
X800100Y235204D01*
X774700Y235204D02*
X774700Y221996D01*
X749300Y221996D02*
X749300Y235204D01*
X723900Y235204D02*
X723900Y221996D01*
X698500Y221996D02*
X698500Y235204D01*
X673100Y235204D02*
X673100Y221996D01*
X647700Y221996D02*
X647700Y235204D01*
X622300Y235204D02*
X622300Y221996D01*
D18*
X228600Y165100D03*
X203200Y165100D03*
X228600Y190500D03*
X203200Y190500D03*
X228600Y215900D03*
X203200Y215900D03*
D17*
X127000Y165100D03*
X177800Y165100D03*
X127000Y190500D03*
X177800Y190500D03*
X127000Y215900D03*
X177800Y215900D03*
D12*
X32004Y292100D02*
X18796Y292100D01*
X18796Y266700D02*
X32004Y266700D01*
X32004Y241300D02*
X18796Y241300D01*
X18796Y215900D02*
X32004Y215900D01*
X32004Y190500D02*
X18796Y190500D01*
X18796Y165100D02*
X32004Y165100D01*
D19*
X584200Y228600D03*
X584200Y177800D03*
X584200Y203200D03*
X584200Y355600D03*
X584200Y304800D03*
X584200Y330200D03*
X279400Y381000D03*
X279400Y330200D03*
X279400Y355600D03*
D20*
X457200Y368300D03*
X406400Y368300D03*
X431800Y368300D03*
X381000Y368300D03*
X330200Y368300D03*
X355600Y368300D03*
X977900Y101600D03*
D16*
X998220Y101600D03*
D20*
X977900Y378460D03*
D16*
X998220Y378460D03*
D21*
X520700Y304800D03*
X546100Y304800D03*
X520700Y279400D03*
X546100Y279400D03*
X520700Y254000D03*
X546100Y254000D03*
X520700Y228600D03*
X546100Y228600D03*
X520700Y203200D03*
X546100Y203200D03*
M02*
