G04 EAGLE Gerber RS-274X export*
G75*
%MOMM*%
%FSLAX34Y34*%
%LPD*%
%INSolderpaste Top*%
%IPPOS*%
%AMOC8*
5,1,8,0,0,1.08239X$1,22.5*%
G01*
%ADD10R,1.500000X0.350000*%
%ADD11R,0.350000X1.500000*%
%ADD12R,1.600000X1.300000*%
%ADD13R,1.300000X1.600000*%
%ADD14R,0.300000X1.000000*%
%ADD15R,1.300000X1.500000*%
%ADD16R,1.500000X1.300000*%
%ADD17R,0.660400X2.032000*%


D10*
G36*
X352045Y497923D02*
X341440Y487318D01*
X338965Y489793D01*
X349570Y500398D01*
X352045Y497923D01*
G37*
G36*
X355581Y494387D02*
X344976Y483782D01*
X342501Y486257D01*
X353106Y496862D01*
X355581Y494387D01*
G37*
G36*
X359116Y490852D02*
X348511Y480247D01*
X346036Y482722D01*
X356641Y493327D01*
X359116Y490852D01*
G37*
G36*
X362652Y487316D02*
X352047Y476711D01*
X349572Y479186D01*
X360177Y489791D01*
X362652Y487316D01*
G37*
G36*
X366187Y483781D02*
X355582Y473176D01*
X353107Y475651D01*
X363712Y486256D01*
X366187Y483781D01*
G37*
G36*
X369723Y480245D02*
X359118Y469640D01*
X356643Y472115D01*
X367248Y482720D01*
X369723Y480245D01*
G37*
G36*
X373258Y476710D02*
X362653Y466105D01*
X360178Y468580D01*
X370783Y479185D01*
X373258Y476710D01*
G37*
G36*
X376794Y473174D02*
X366189Y462569D01*
X363714Y465044D01*
X374319Y475649D01*
X376794Y473174D01*
G37*
G36*
X380329Y469639D02*
X369724Y459034D01*
X367249Y461509D01*
X377854Y472114D01*
X380329Y469639D01*
G37*
G36*
X383865Y466103D02*
X373260Y455498D01*
X370785Y457973D01*
X381390Y468578D01*
X383865Y466103D01*
G37*
G36*
X387400Y462568D02*
X376795Y451963D01*
X374320Y454438D01*
X384925Y465043D01*
X387400Y462568D01*
G37*
G36*
X390936Y459032D02*
X380331Y448427D01*
X377856Y450902D01*
X388461Y461507D01*
X390936Y459032D01*
G37*
G36*
X394471Y455496D02*
X383866Y444891D01*
X381391Y447366D01*
X391996Y457971D01*
X394471Y455496D01*
G37*
G36*
X398007Y451961D02*
X387402Y441356D01*
X384927Y443831D01*
X395532Y454436D01*
X398007Y451961D01*
G37*
G36*
X401543Y448425D02*
X390938Y437820D01*
X388463Y440295D01*
X399068Y450900D01*
X401543Y448425D01*
G37*
G36*
X405078Y444890D02*
X394473Y434285D01*
X391998Y436760D01*
X402603Y447365D01*
X405078Y444890D01*
G37*
G36*
X408614Y441354D02*
X398009Y430749D01*
X395534Y433224D01*
X406139Y443829D01*
X408614Y441354D01*
G37*
G36*
X412149Y437819D02*
X401544Y427214D01*
X399069Y429689D01*
X409674Y440294D01*
X412149Y437819D01*
G37*
G36*
X415685Y434283D02*
X405080Y423678D01*
X402605Y426153D01*
X413210Y436758D01*
X415685Y434283D01*
G37*
G36*
X419220Y430748D02*
X408615Y420143D01*
X406140Y422618D01*
X416745Y433223D01*
X419220Y430748D01*
G37*
G36*
X422756Y427212D02*
X412151Y416607D01*
X409676Y419082D01*
X420281Y429687D01*
X422756Y427212D01*
G37*
G36*
X426291Y423677D02*
X415686Y413072D01*
X413211Y415547D01*
X423816Y426152D01*
X426291Y423677D01*
G37*
G36*
X429827Y420141D02*
X419222Y409536D01*
X416747Y412011D01*
X427352Y422616D01*
X429827Y420141D01*
G37*
G36*
X433362Y416606D02*
X422757Y406001D01*
X420282Y408476D01*
X430887Y419081D01*
X433362Y416606D01*
G37*
G36*
X436898Y413070D02*
X426293Y402465D01*
X423818Y404940D01*
X434423Y415545D01*
X436898Y413070D01*
G37*
D11*
G36*
X465182Y404940D02*
X462707Y402465D01*
X452102Y413070D01*
X454577Y415545D01*
X465182Y404940D01*
G37*
G36*
X468718Y408476D02*
X466243Y406001D01*
X455638Y416606D01*
X458113Y419081D01*
X468718Y408476D01*
G37*
G36*
X472253Y412011D02*
X469778Y409536D01*
X459173Y420141D01*
X461648Y422616D01*
X472253Y412011D01*
G37*
G36*
X475789Y415547D02*
X473314Y413072D01*
X462709Y423677D01*
X465184Y426152D01*
X475789Y415547D01*
G37*
G36*
X479324Y419082D02*
X476849Y416607D01*
X466244Y427212D01*
X468719Y429687D01*
X479324Y419082D01*
G37*
G36*
X482860Y422618D02*
X480385Y420143D01*
X469780Y430748D01*
X472255Y433223D01*
X482860Y422618D01*
G37*
G36*
X486395Y426153D02*
X483920Y423678D01*
X473315Y434283D01*
X475790Y436758D01*
X486395Y426153D01*
G37*
G36*
X489931Y429689D02*
X487456Y427214D01*
X476851Y437819D01*
X479326Y440294D01*
X489931Y429689D01*
G37*
G36*
X493466Y433224D02*
X490991Y430749D01*
X480386Y441354D01*
X482861Y443829D01*
X493466Y433224D01*
G37*
G36*
X497002Y436760D02*
X494527Y434285D01*
X483922Y444890D01*
X486397Y447365D01*
X497002Y436760D01*
G37*
G36*
X500537Y440295D02*
X498062Y437820D01*
X487457Y448425D01*
X489932Y450900D01*
X500537Y440295D01*
G37*
G36*
X504073Y443831D02*
X501598Y441356D01*
X490993Y451961D01*
X493468Y454436D01*
X504073Y443831D01*
G37*
G36*
X507609Y447366D02*
X505134Y444891D01*
X494529Y455496D01*
X497004Y457971D01*
X507609Y447366D01*
G37*
G36*
X511144Y450902D02*
X508669Y448427D01*
X498064Y459032D01*
X500539Y461507D01*
X511144Y450902D01*
G37*
G36*
X514680Y454438D02*
X512205Y451963D01*
X501600Y462568D01*
X504075Y465043D01*
X514680Y454438D01*
G37*
G36*
X518215Y457973D02*
X515740Y455498D01*
X505135Y466103D01*
X507610Y468578D01*
X518215Y457973D01*
G37*
G36*
X521751Y461509D02*
X519276Y459034D01*
X508671Y469639D01*
X511146Y472114D01*
X521751Y461509D01*
G37*
G36*
X525286Y465044D02*
X522811Y462569D01*
X512206Y473174D01*
X514681Y475649D01*
X525286Y465044D01*
G37*
G36*
X528822Y468580D02*
X526347Y466105D01*
X515742Y476710D01*
X518217Y479185D01*
X528822Y468580D01*
G37*
G36*
X532357Y472115D02*
X529882Y469640D01*
X519277Y480245D01*
X521752Y482720D01*
X532357Y472115D01*
G37*
G36*
X535893Y475651D02*
X533418Y473176D01*
X522813Y483781D01*
X525288Y486256D01*
X535893Y475651D01*
G37*
G36*
X539428Y479186D02*
X536953Y476711D01*
X526348Y487316D01*
X528823Y489791D01*
X539428Y479186D01*
G37*
G36*
X542964Y482722D02*
X540489Y480247D01*
X529884Y490852D01*
X532359Y493327D01*
X542964Y482722D01*
G37*
G36*
X546499Y486257D02*
X544024Y483782D01*
X533419Y494387D01*
X535894Y496862D01*
X546499Y486257D01*
G37*
G36*
X550035Y489793D02*
X547560Y487318D01*
X536955Y497923D01*
X539430Y500398D01*
X550035Y489793D01*
G37*
D10*
G36*
X550035Y526207D02*
X539430Y515602D01*
X536955Y518077D01*
X547560Y528682D01*
X550035Y526207D01*
G37*
G36*
X546499Y529743D02*
X535894Y519138D01*
X533419Y521613D01*
X544024Y532218D01*
X546499Y529743D01*
G37*
G36*
X542964Y533278D02*
X532359Y522673D01*
X529884Y525148D01*
X540489Y535753D01*
X542964Y533278D01*
G37*
G36*
X539428Y536814D02*
X528823Y526209D01*
X526348Y528684D01*
X536953Y539289D01*
X539428Y536814D01*
G37*
G36*
X535893Y540349D02*
X525288Y529744D01*
X522813Y532219D01*
X533418Y542824D01*
X535893Y540349D01*
G37*
G36*
X532357Y543885D02*
X521752Y533280D01*
X519277Y535755D01*
X529882Y546360D01*
X532357Y543885D01*
G37*
G36*
X528822Y547420D02*
X518217Y536815D01*
X515742Y539290D01*
X526347Y549895D01*
X528822Y547420D01*
G37*
G36*
X525286Y550956D02*
X514681Y540351D01*
X512206Y542826D01*
X522811Y553431D01*
X525286Y550956D01*
G37*
G36*
X521751Y554491D02*
X511146Y543886D01*
X508671Y546361D01*
X519276Y556966D01*
X521751Y554491D01*
G37*
G36*
X518215Y558027D02*
X507610Y547422D01*
X505135Y549897D01*
X515740Y560502D01*
X518215Y558027D01*
G37*
G36*
X514680Y561562D02*
X504075Y550957D01*
X501600Y553432D01*
X512205Y564037D01*
X514680Y561562D01*
G37*
G36*
X511144Y565098D02*
X500539Y554493D01*
X498064Y556968D01*
X508669Y567573D01*
X511144Y565098D01*
G37*
G36*
X507609Y568634D02*
X497004Y558029D01*
X494529Y560504D01*
X505134Y571109D01*
X507609Y568634D01*
G37*
G36*
X504073Y572169D02*
X493468Y561564D01*
X490993Y564039D01*
X501598Y574644D01*
X504073Y572169D01*
G37*
G36*
X500537Y575705D02*
X489932Y565100D01*
X487457Y567575D01*
X498062Y578180D01*
X500537Y575705D01*
G37*
G36*
X497002Y579240D02*
X486397Y568635D01*
X483922Y571110D01*
X494527Y581715D01*
X497002Y579240D01*
G37*
G36*
X493466Y582776D02*
X482861Y572171D01*
X480386Y574646D01*
X490991Y585251D01*
X493466Y582776D01*
G37*
G36*
X489931Y586311D02*
X479326Y575706D01*
X476851Y578181D01*
X487456Y588786D01*
X489931Y586311D01*
G37*
G36*
X486395Y589847D02*
X475790Y579242D01*
X473315Y581717D01*
X483920Y592322D01*
X486395Y589847D01*
G37*
G36*
X482860Y593382D02*
X472255Y582777D01*
X469780Y585252D01*
X480385Y595857D01*
X482860Y593382D01*
G37*
G36*
X479324Y596918D02*
X468719Y586313D01*
X466244Y588788D01*
X476849Y599393D01*
X479324Y596918D01*
G37*
G36*
X475789Y600453D02*
X465184Y589848D01*
X462709Y592323D01*
X473314Y602928D01*
X475789Y600453D01*
G37*
G36*
X472253Y603989D02*
X461648Y593384D01*
X459173Y595859D01*
X469778Y606464D01*
X472253Y603989D01*
G37*
G36*
X468718Y607524D02*
X458113Y596919D01*
X455638Y599394D01*
X466243Y609999D01*
X468718Y607524D01*
G37*
G36*
X465182Y611060D02*
X454577Y600455D01*
X452102Y602930D01*
X462707Y613535D01*
X465182Y611060D01*
G37*
D11*
G36*
X436898Y602930D02*
X434423Y600455D01*
X423818Y611060D01*
X426293Y613535D01*
X436898Y602930D01*
G37*
G36*
X433362Y599394D02*
X430887Y596919D01*
X420282Y607524D01*
X422757Y609999D01*
X433362Y599394D01*
G37*
G36*
X429827Y595859D02*
X427352Y593384D01*
X416747Y603989D01*
X419222Y606464D01*
X429827Y595859D01*
G37*
G36*
X426291Y592323D02*
X423816Y589848D01*
X413211Y600453D01*
X415686Y602928D01*
X426291Y592323D01*
G37*
G36*
X422756Y588788D02*
X420281Y586313D01*
X409676Y596918D01*
X412151Y599393D01*
X422756Y588788D01*
G37*
G36*
X419220Y585252D02*
X416745Y582777D01*
X406140Y593382D01*
X408615Y595857D01*
X419220Y585252D01*
G37*
G36*
X415685Y581717D02*
X413210Y579242D01*
X402605Y589847D01*
X405080Y592322D01*
X415685Y581717D01*
G37*
G36*
X412149Y578181D02*
X409674Y575706D01*
X399069Y586311D01*
X401544Y588786D01*
X412149Y578181D01*
G37*
G36*
X408614Y574646D02*
X406139Y572171D01*
X395534Y582776D01*
X398009Y585251D01*
X408614Y574646D01*
G37*
G36*
X405078Y571110D02*
X402603Y568635D01*
X391998Y579240D01*
X394473Y581715D01*
X405078Y571110D01*
G37*
G36*
X401543Y567575D02*
X399068Y565100D01*
X388463Y575705D01*
X390938Y578180D01*
X401543Y567575D01*
G37*
G36*
X398007Y564039D02*
X395532Y561564D01*
X384927Y572169D01*
X387402Y574644D01*
X398007Y564039D01*
G37*
G36*
X394471Y560504D02*
X391996Y558029D01*
X381391Y568634D01*
X383866Y571109D01*
X394471Y560504D01*
G37*
G36*
X390936Y556968D02*
X388461Y554493D01*
X377856Y565098D01*
X380331Y567573D01*
X390936Y556968D01*
G37*
G36*
X387400Y553432D02*
X384925Y550957D01*
X374320Y561562D01*
X376795Y564037D01*
X387400Y553432D01*
G37*
G36*
X383865Y549897D02*
X381390Y547422D01*
X370785Y558027D01*
X373260Y560502D01*
X383865Y549897D01*
G37*
G36*
X380329Y546361D02*
X377854Y543886D01*
X367249Y554491D01*
X369724Y556966D01*
X380329Y546361D01*
G37*
G36*
X376794Y542826D02*
X374319Y540351D01*
X363714Y550956D01*
X366189Y553431D01*
X376794Y542826D01*
G37*
G36*
X373258Y539290D02*
X370783Y536815D01*
X360178Y547420D01*
X362653Y549895D01*
X373258Y539290D01*
G37*
G36*
X369723Y535755D02*
X367248Y533280D01*
X356643Y543885D01*
X359118Y546360D01*
X369723Y535755D01*
G37*
G36*
X366187Y532219D02*
X363712Y529744D01*
X353107Y540349D01*
X355582Y542824D01*
X366187Y532219D01*
G37*
G36*
X362652Y528684D02*
X360177Y526209D01*
X349572Y536814D01*
X352047Y539289D01*
X362652Y528684D01*
G37*
G36*
X359116Y525148D02*
X356641Y522673D01*
X346036Y533278D01*
X348511Y535753D01*
X359116Y525148D01*
G37*
G36*
X355581Y521613D02*
X353106Y519138D01*
X342501Y529743D01*
X344976Y532218D01*
X355581Y521613D01*
G37*
G36*
X352045Y518077D02*
X349570Y515602D01*
X338965Y526207D01*
X341440Y528682D01*
X352045Y518077D01*
G37*
D12*
X736600Y558640D03*
X736600Y538640D03*
X850900Y558640D03*
X850900Y538640D03*
D13*
X244000Y502920D03*
X264000Y502920D03*
D12*
X327660Y518000D03*
X327660Y498000D03*
X566420Y518000D03*
X566420Y498000D03*
X203200Y515460D03*
X203200Y495460D03*
X203200Y602140D03*
X203200Y622140D03*
D14*
X683050Y573000D03*
X677550Y573000D03*
X672050Y573000D03*
X666550Y573000D03*
X661050Y573000D03*
X655550Y573000D03*
X650050Y573000D03*
X650050Y443000D03*
X655550Y443000D03*
X661050Y443000D03*
X666550Y443000D03*
X672050Y443000D03*
X677550Y443000D03*
X683050Y443000D03*
X688550Y443000D03*
X694050Y443000D03*
X699550Y443000D03*
X705050Y443000D03*
X710550Y443000D03*
X716050Y443000D03*
X721550Y443000D03*
X721550Y573000D03*
X716050Y573000D03*
X710550Y573000D03*
X705050Y573000D03*
X699550Y573000D03*
X694050Y573000D03*
X688550Y573000D03*
X797350Y573000D03*
X791850Y573000D03*
X786350Y573000D03*
X780850Y573000D03*
X775350Y573000D03*
X769850Y573000D03*
X764350Y573000D03*
X764350Y443000D03*
X769850Y443000D03*
X775350Y443000D03*
X780850Y443000D03*
X786350Y443000D03*
X791850Y443000D03*
X797350Y443000D03*
X802850Y443000D03*
X808350Y443000D03*
X813850Y443000D03*
X819350Y443000D03*
X824850Y443000D03*
X830350Y443000D03*
X835850Y443000D03*
X835850Y573000D03*
X830350Y573000D03*
X824850Y573000D03*
X819350Y573000D03*
X813850Y573000D03*
X808350Y573000D03*
X802850Y573000D03*
D15*
X244500Y457200D03*
X263500Y457200D03*
X244500Y431800D03*
X263500Y431800D03*
X244500Y406400D03*
X263500Y406400D03*
D16*
X152400Y574700D03*
X152400Y593700D03*
X127000Y574700D03*
X127000Y593700D03*
D17*
X234950Y528066D03*
X234950Y589534D03*
X247650Y528066D03*
X260350Y528066D03*
X247650Y589534D03*
X260350Y589534D03*
X273050Y528066D03*
X273050Y589534D03*
M02*
