G04 EAGLE Gerber RS-274X export*
G75*
%MOMM*%
%FSLAX34Y34*%
%LPD*%
%INSolderpaste Top*%
%IPPOS*%
%AMOC8*
5,1,8,0,0,1.08239X$1,22.5*%
G01*
%ADD10R,1.500000X0.350000*%
%ADD11R,0.350000X1.500000*%


D10*
X326400Y314000D03*
X326400Y309000D03*
X326400Y304000D03*
X326400Y299000D03*
X326400Y294000D03*
X326400Y289000D03*
X326400Y284000D03*
X326400Y279000D03*
X326400Y274000D03*
X326400Y269000D03*
X326400Y264000D03*
X326400Y259000D03*
X326400Y254000D03*
X326400Y249000D03*
X326400Y244000D03*
X326400Y239000D03*
X326400Y234000D03*
X326400Y229000D03*
X326400Y224000D03*
X326400Y219000D03*
X326400Y214000D03*
X326400Y209000D03*
X326400Y204000D03*
X326400Y199000D03*
X326400Y194000D03*
D11*
X346400Y174000D03*
X351400Y174000D03*
X356400Y174000D03*
X361400Y174000D03*
X366400Y174000D03*
X371400Y174000D03*
X376400Y174000D03*
X381400Y174000D03*
X386400Y174000D03*
X391400Y174000D03*
X396400Y174000D03*
X401400Y174000D03*
X406400Y174000D03*
X411400Y174000D03*
X416400Y174000D03*
X421400Y174000D03*
X426400Y174000D03*
X431400Y174000D03*
X436400Y174000D03*
X441400Y174000D03*
X446400Y174000D03*
X451400Y174000D03*
X456400Y174000D03*
X461400Y174000D03*
X466400Y174000D03*
D10*
X486400Y194000D03*
X486400Y199000D03*
X486400Y204000D03*
X486400Y209000D03*
X486400Y214000D03*
X486400Y219000D03*
X486400Y224000D03*
X486400Y229000D03*
X486400Y234000D03*
X486400Y239000D03*
X486400Y244000D03*
X486400Y249000D03*
X486400Y254000D03*
X486400Y259000D03*
X486400Y264000D03*
X486400Y269000D03*
X486400Y274000D03*
X486400Y279000D03*
X486400Y284000D03*
X486400Y289000D03*
X486400Y294000D03*
X486400Y299000D03*
X486400Y304000D03*
X486400Y309000D03*
X486400Y314000D03*
D11*
X466400Y334000D03*
X461400Y334000D03*
X456400Y334000D03*
X451400Y334000D03*
X446400Y334000D03*
X441400Y334000D03*
X436400Y334000D03*
X431400Y334000D03*
X426400Y334000D03*
X421400Y334000D03*
X416400Y334000D03*
X411400Y334000D03*
X406400Y334000D03*
X401400Y334000D03*
X396400Y334000D03*
X391400Y334000D03*
X386400Y334000D03*
X381400Y334000D03*
X376400Y334000D03*
X371400Y334000D03*
X366400Y334000D03*
X361400Y334000D03*
X356400Y334000D03*
X351400Y334000D03*
X346400Y334000D03*
M02*
